<svg width="311" height="210" viewBox="0 0 311 210" fill="none" xmlns="http://www.w3.org/2000/svg">
<mask id="mask0_1_272" style="mask-type:alpha" maskUnits="userSpaceOnUse" x="0" y="0" width="311" height="210">
<rect width="311" height="210" rx="20" fill="#016FD0"/>
</mask>
<g mask="url(#mask0_1_272)">
<path d="M0 -50.5556H310.228V112.668L294.872 136.052L310.228 156.865V251.806H0V97.9358L9.59714 87.1789L0 76.8897V-50.5556Z" fill="#016FD0"/>
<path d="M60.222 160.138V112.668H111.792L117.325 119.698L123.041 112.668H310.228V156.865C310.228 156.865 305.332 160.091 299.671 160.138H196.022L189.784 152.655V160.138H169.342V147.365C169.342 147.365 166.549 149.148 160.512 149.148H153.554V160.138H122.603L117.078 152.958L111.469 160.138H60.222Z" fill="white"/>
<path d="M0 76.6801L11.6216 50.2315H31.7199L38.3153 65.0469V50.2315H63.2994L67.2256 60.9396L71.032 50.2315H183.185V55.6148C183.185 55.6148 189.08 50.2315 198.77 50.2315L235.159 50.3556L241.641 64.9771V50.2315H262.549L268.303 58.6304V50.2315H289.403V97.7454H268.303L262.788 89.3193V97.7454H232.07L228.981 90.2555H220.722L217.684 97.7454H196.851C188.514 97.7454 183.185 92.4719 183.185 92.4719V97.7454H151.775L145.541 90.2555V97.7454H28.7425L25.6554 90.2555H17.4236L14.3584 97.7454H0V76.6801Z" fill="white"/>
<path d="M15.7454 56.3174L0.0600281 91.8618H10.272L13.1661 84.7442H29.9911L32.8703 91.8618H43.3072L27.6368 56.3174H15.7454ZM21.5486 64.5897L26.6771 77.0273H16.4052L21.5486 64.5897Z" fill="#016FD0"/>
<path d="M44.3868 91.8558V56.3114L58.8985 56.364L67.3391 79.2807L75.5775 56.3114H89.9732V91.8558H80.8559V65.6652L71.1914 91.8558H63.1955L53.5041 65.6652V91.8558H44.3868Z" fill="#016FD0"/>
<path d="M96.2114 91.8558V56.3114H125.963V64.2622H105.425V70.3421H125.483V77.8252H105.425V84.139H125.963V91.8558H96.2114Z" fill="#016FD0"/>
<path d="M131.241 56.3174V91.8618H140.358V79.2342H144.197L155.129 91.8618H166.271L154.274 78.7665C159.198 78.3616 164.276 74.2431 164.276 67.8489C164.276 60.3691 158.253 56.3174 151.53 56.3174H131.241ZM140.358 64.2681H150.78C153.28 64.2681 155.099 66.1742 155.099 68.0097C155.099 70.3711 152.743 71.7512 150.915 71.7512H140.358V64.2681Z" fill="#016FD0"/>
<path d="M177.307 91.8558H167.998V56.3114H177.307V91.8558Z" fill="#016FD0"/>
<path d="M199.381 91.8558H197.371C187.649 91.8558 181.746 84.3904 181.746 74.2298C181.746 63.8182 187.583 56.3114 199.861 56.3114H209.938V64.7298H199.492C194.508 64.7298 190.983 68.5208 190.983 74.3175C190.983 81.2011 195.014 84.0922 200.82 84.0922H203.22L199.381 91.8558Z" fill="#016FD0"/>
<path d="M219.22 56.3174L203.534 91.8618H213.746L216.641 84.7442H233.466L236.345 91.8618H246.782L231.111 56.3174H219.22ZM225.023 64.5897L230.152 77.0273H219.88L225.023 64.5897Z" fill="#016FD0"/>
<path d="M247.846 91.8558V56.3114H259.438L274.238 78.6436V56.3114H283.356V91.8558H272.139L256.964 68.9391V91.8558H247.846Z" fill="#016FD0"/>
<path d="M66.4602 154.058V118.514H96.2114V126.465H75.6735V132.545H95.7315V140.028H75.6735V146.342H96.2114V154.058H66.4602Z" fill="#016FD0"/>
<path d="M212.241 154.058V118.514H241.992V126.465H221.454V132.545H241.416V140.028H221.454V146.342H241.992V154.058H212.241Z" fill="#016FD0"/>
<path d="M97.366 154.058L111.852 136.506L97.0211 118.514H108.508L117.34 129.636L126.202 118.514H137.239L122.604 136.286L137.116 154.058H125.631L117.055 143.112L108.688 154.058H97.366Z" fill="#016FD0"/>
<path d="M138.199 118.52V154.064H147.556V142.84H157.153C165.274 142.84 171.429 138.641 171.429 130.475C171.429 123.711 166.601 118.52 158.338 118.52H138.199ZM147.556 126.558H157.663C160.287 126.558 162.162 128.126 162.162 130.651C162.162 133.023 160.296 134.743 157.633 134.743H147.556V126.558Z" fill="#016FD0"/>
<path d="M175.388 118.514V154.058H184.505V141.431H188.344L199.276 154.058H210.417L198.421 140.963C203.344 140.558 208.423 136.44 208.423 130.046C208.423 122.566 202.399 118.514 195.677 118.514H175.388ZM184.505 126.465H194.927C197.427 126.465 199.246 128.371 199.246 130.206C199.246 132.568 196.889 133.948 195.062 133.948H184.505V126.465Z" fill="#016FD0"/>
<path d="M246.215 154.058V146.342H264.461C267.161 146.342 268.33 144.92 268.33 143.36C268.33 141.866 267.165 140.355 264.461 140.355H256.216C249.049 140.355 245.057 136.099 245.057 129.709C245.057 124.01 248.712 118.514 259.363 118.514H277.118L273.279 126.512H257.923C254.988 126.512 254.084 128.013 254.084 129.446C254.084 130.92 255.201 132.545 257.443 132.545H266.081C274.071 132.545 277.537 136.962 277.537 142.746C277.537 148.965 273.674 154.058 265.646 154.058H246.215Z" fill="#016FD0"/>
<path d="M279.677 154.058V146.342H297.924C300.624 146.342 301.793 144.92 301.793 143.36C301.793 141.866 300.627 140.355 297.924 140.355H289.678C282.511 140.355 278.52 136.099 278.52 129.709C278.52 124.01 282.175 118.514 292.825 118.514H310.58L306.741 126.512H291.386C288.451 126.512 287.547 128.013 287.547 129.446C287.547 130.92 288.664 132.545 290.906 132.545H299.543C307.533 132.545 311 136.962 311 142.746C311 148.965 307.137 154.058 299.108 154.058H279.677Z" fill="#016FD0"/>
</g>
</svg>
