<svg width="311" height="210" viewBox="0 0 311 210" fill="none" xmlns="http://www.w3.org/2000/svg">
<rect width="311" height="210" rx="20" fill="white"/>
<path d="M29.3832 130.816C29.3832 125.761 26.7349 126.094 24.1956 126.039V124.578C26.3962 124.686 28.6522 124.686 30.8574 124.686C33.2284 124.686 36.4474 124.578 40.6269 124.578C55.2454 124.578 63.2065 134.298 63.2065 144.25C63.2065 149.816 59.9345 163.809 39.9473 163.809C37.0692 163.809 34.4127 163.698 31.7604 163.698C29.221 163.698 26.7349 163.754 24.1953 163.809V162.35C27.5807 162.01 29.221 161.898 29.383 158.075L29.3832 130.816ZM34.9178 157.178C34.9178 161.506 38.026 162.011 40.7912 162.011C52.9895 162.011 56.9946 152.849 56.9946 144.473C56.9946 133.967 50.218 126.38 39.3236 126.38C37.0058 126.38 35.9406 126.545 34.918 126.605L34.9178 157.178Z" fill="#211E1F"/>
<path d="M65.1877 162.35H66.2571C67.8357 162.35 68.9671 162.35 68.9671 160.49V145.262C68.9671 142.792 68.1212 142.448 66.0315 141.331V140.43C68.6838 139.637 71.8497 138.576 72.0711 138.407C72.4694 138.182 72.806 138.123 73.0894 138.123C73.3686 138.123 73.4856 138.462 73.4856 138.914V160.49C73.4856 162.35 74.7276 162.35 76.3083 162.35H77.267V163.811C75.3452 163.811 73.3684 163.699 71.3403 163.699C69.308 163.699 67.2735 163.754 65.1879 163.811V162.35H65.1877ZM71.2272 129.469C69.7575 129.469 68.4622 128.121 68.4622 126.66C68.4622 125.252 69.8171 123.956 71.2272 123.956C72.6908 123.956 73.9945 125.142 73.9945 126.66C73.9945 128.178 72.7485 129.469 71.2272 129.469Z" fill="#211E1F"/>
<path d="M82.6308 145.597C82.6308 143.519 82.0064 142.959 79.3586 141.891V140.824C81.785 140.038 84.0967 139.306 86.8082 138.123C86.9767 138.123 87.1426 138.237 87.1426 138.685V142.34C90.3661 140.038 93.1334 138.123 96.9209 138.123C101.714 138.123 103.408 141.608 103.408 145.991V160.491C103.408 162.35 104.65 162.35 106.232 162.35H107.249V163.811C105.267 163.811 103.293 163.699 101.265 163.699C99.23 163.699 97.1953 163.754 95.1653 163.811V162.35H96.1793C97.7641 162.35 98.8872 162.35 98.8872 160.491V145.938C98.8872 142.73 96.9209 141.159 93.6975 141.159C91.8933 141.159 89.0129 142.62 87.1424 143.858V160.49C87.1424 162.35 88.3906 162.35 89.9739 162.35H90.9879V163.811C89.0129 163.811 87.0338 163.698 85.0016 163.698C82.9712 163.698 80.9348 163.754 78.9044 163.811V162.35H79.9227C81.5034 162.35 82.6303 162.35 82.6303 160.49V145.597H82.6308Z" fill="#211E1F"/>
<path d="M111.541 148.298C111.424 148.805 111.424 149.647 111.541 151.559C111.874 156.896 115.327 161.279 119.837 161.279C122.945 161.279 125.378 159.594 127.464 157.516L128.252 158.304C125.653 161.731 122.436 164.653 117.809 164.653C108.829 164.653 107.023 155.995 107.023 152.401C107.023 141.384 114.475 138.123 118.424 138.123C123 138.123 127.915 140.987 127.968 146.945C127.968 147.287 127.968 147.62 127.915 147.961L127.404 148.298H111.541ZM121.537 146.498C122.945 146.498 123.112 145.767 123.112 145.095C123.112 142.228 121.362 139.923 118.199 139.923C114.758 139.923 112.387 142.448 111.71 146.498H121.537Z" fill="#211E1F"/>
<path d="M129.268 162.35H130.794C132.37 162.35 133.499 162.35 133.499 160.49V144.7C133.499 142.959 131.414 142.62 130.564 142.17V141.331C134.686 139.586 136.946 138.123 137.459 138.123C137.794 138.123 137.96 138.292 137.96 138.856V143.913H138.079C139.487 141.723 141.863 138.123 145.303 138.123C146.716 138.123 148.52 139.077 148.52 141.102C148.52 142.62 147.451 143.973 145.87 143.973C144.113 143.973 144.113 142.62 142.14 142.62C141.179 142.62 138.02 143.913 138.02 147.287V160.49C138.02 162.35 139.147 162.35 140.73 162.35H143.889V163.811C140.783 163.754 138.42 163.699 135.987 163.699C133.674 163.699 131.301 163.754 129.269 163.811L129.268 162.35Z" fill="#211E1F"/>
<path d="M151.006 155.995C151.741 159.706 153.997 162.855 158.122 162.855C161.445 162.855 162.689 160.832 162.689 158.864C162.689 152.232 150.384 154.367 150.384 145.319C150.384 142.171 152.927 138.123 159.135 138.123C160.94 138.123 163.366 138.632 165.567 139.758L165.967 145.485H164.666C164.103 141.948 162.129 139.923 158.511 139.923C156.253 139.923 154.11 141.217 154.11 143.632C154.11 150.213 167.207 148.184 167.207 157.007C167.207 160.716 164.214 164.653 157.495 164.653C155.237 164.653 152.584 163.866 150.61 162.745L149.988 156.28L151.006 155.995Z" fill="#211E1F"/>
<path d="M218.189 134.751H216.781C215.707 128.178 211.02 125.534 204.7 125.534C198.202 125.534 188.773 129.859 188.773 143.347C188.773 154.708 196.909 162.854 205.601 162.854C211.188 162.854 215.822 159.033 216.951 153.131L218.246 153.466L216.951 161.671C214.58 163.136 208.2 164.653 204.469 164.653C191.261 164.653 182.908 156.165 182.908 143.519C182.908 131.997 193.238 123.732 204.303 123.732C208.875 123.732 213.278 125.199 217.626 126.717L218.189 134.751Z" fill="#211E1F"/>
<path d="M220.226 162.35H221.295C222.878 162.35 224.011 162.35 224.011 160.49V129.19C224.011 125.534 223.164 125.421 221.016 124.804V123.905C223.274 123.176 225.645 122.162 226.832 121.486C227.447 121.151 227.903 120.867 228.07 120.867C228.415 120.867 228.528 121.206 228.528 121.658V160.49C228.528 162.35 229.767 162.35 231.35 162.35H232.303V163.811C230.392 163.811 228.415 163.699 226.38 163.699C224.35 163.699 222.318 163.754 220.225 163.811V162.35H220.226Z" fill="#211E1F"/>
<path d="M256.477 160.715C256.477 161.731 257.095 161.786 258.054 161.786C258.733 161.786 259.577 161.731 260.314 161.731V162.914C257.883 163.137 253.254 164.318 252.18 164.653L251.897 164.483V159.935C248.514 162.687 245.912 164.653 241.901 164.653C238.853 164.653 235.692 162.687 235.692 157.969V143.576C235.692 142.115 235.468 140.709 232.31 140.429V139.361C234.345 139.306 238.853 138.968 239.59 138.968C240.216 138.968 240.216 139.361 240.216 140.597V155.094C240.216 156.784 240.216 161.616 245.124 161.616C247.044 161.616 249.583 160.155 251.952 158.194V143.067C251.952 141.947 249.245 141.33 247.217 140.766V139.755C252.291 139.416 255.459 138.968 256.019 138.968C256.477 138.968 256.477 139.36 256.477 139.982L256.477 160.715Z" fill="#211E1F"/>
<path d="M267.711 142.171C269.967 140.26 273.015 138.123 276.124 138.123C282.674 138.123 286.622 143.805 286.622 149.927C286.622 157.289 281.205 164.653 273.126 164.653C268.95 164.653 266.75 163.302 265.28 162.687L263.589 163.976L262.406 163.361C262.907 160.045 263.194 156.784 263.194 153.357V129.189C263.194 125.534 262.342 125.421 260.199 124.804V123.905C262.464 123.176 264.828 122.162 266.015 121.486C266.637 121.151 267.086 120.867 267.261 120.867C267.598 120.867 267.711 121.206 267.711 121.658V142.17H267.711V142.171ZM267.711 157.456C267.711 159.594 269.741 163.194 273.525 163.194C279.566 163.194 282.106 157.289 282.106 152.285C282.106 146.216 277.481 141.159 273.075 141.159C270.981 141.159 269.234 142.51 267.711 143.805L267.711 157.456Z" fill="#211E1F"/>
<path d="M24.131 196.488H24.5635C25.667 196.488 26.8344 196.34 26.8344 194.747V178.726C26.8344 177.131 25.667 176.981 24.5635 176.981H24.131V176.062C25.3304 176.062 27.1731 176.183 28.6836 176.183C30.2174 176.183 32.058 176.062 33.5024 176.062V176.981H33.0699C31.9685 176.981 30.7992 177.131 30.7992 178.726V194.747C30.7992 196.34 31.9685 196.488 33.0699 196.488H33.5024V197.411C32.0282 197.411 30.1812 197.29 28.6495 197.29C27.1435 197.29 25.3304 197.411 24.131 197.411V196.488Z" fill="#211E1F"/>
<path d="M33.5033 197.54C32.0184 197.54 30.178 197.417 28.6482 197.417C27.1463 197.417 25.34 197.54 24.1319 197.54H24V197.408V196.49V196.357H24.1319H24.5624C25.6764 196.331 26.6906 196.242 26.7013 194.747V178.726C26.6906 177.231 25.6766 177.131 24.5624 177.11H24V176.981V175.927H24.1319C25.34 175.927 27.1806 176.048 28.6823 176.048C30.2119 176.048 32.0506 175.927 33.5033 175.927H33.6398V176.067V177.11H33.5033H33.0729C31.9588 177.131 30.9381 177.231 30.9319 178.726V194.747C30.9381 196.242 31.9585 196.331 33.0729 196.357H33.6396V196.49V197.54H33.5033ZM33.3712 197.279V196.626H33.0731C31.976 196.626 30.6701 196.437 30.6635 194.747V178.726C30.6699 177.036 31.9758 176.845 33.0731 176.845H33.3712V176.196C31.9524 176.196 30.1735 176.315 28.6823 176.315C27.223 176.315 25.4569 176.204 24.2682 176.196V176.845H24.5622C25.6572 176.845 26.9674 177.036 26.9674 178.726V194.747C26.9674 196.437 25.6572 196.626 24.5622 196.626H24.2682V197.279C25.4569 197.266 27.193 197.156 28.6482 197.156C30.1437 197.156 31.9225 197.27 33.3712 197.279Z" fill="#211E1F"/>
<path d="M54.6086 191.382L54.6702 191.323V179.856C54.6702 177.345 52.9171 176.98 51.9968 176.98H51.3191V176.062C52.7656 176.062 54.178 176.183 55.6203 176.183C56.8791 176.183 58.1448 176.062 59.4017 176.062V176.98H58.9415C57.6484 176.98 56.204 177.224 56.204 180.863V194.781C56.204 195.85 56.2357 196.918 56.387 197.866H55.2177L39.3998 180.312V192.913C39.3998 195.574 39.9175 196.488 42.2864 196.488H42.806V197.411C41.4876 197.411 40.1687 197.29 38.8457 197.29C37.4674 197.29 36.0531 197.411 34.6683 197.411V196.488H35.0987C37.2184 196.488 37.8619 195.055 37.8619 192.61V179.729C37.8619 178.018 36.4453 176.981 35.069 176.981H34.6685V176.063C35.8358 176.063 37.0332 176.183 38.1985 176.183C39.1208 176.183 40.0136 176.063 40.9337 176.063L54.6086 191.382Z" fill="#211E1F"/>
<path d="M56.3864 198L55.119 197.953L39.5289 180.657V192.913C39.5652 195.572 39.9721 196.327 42.2856 196.357H42.9439V196.488V197.54H42.8076C41.4782 197.54 40.1553 197.417 38.8449 197.417C37.4687 197.417 36.0584 197.54 34.6652 197.54H34.5309V197.408V196.357H34.6652H35.0976C37.1278 196.346 37.7073 195.048 37.7307 192.61V179.731C37.7263 178.102 36.3843 177.114 35.0678 177.11H34.5307V176.974V175.931H34.6649C35.839 175.931 37.0424 176.048 38.1949 176.048C39.1088 176.048 39.9995 175.931 41.0347 175.976L54.5368 191.105V179.858C54.5198 177.424 52.8903 177.131 51.9953 177.11H51.1815V176.974V175.931H51.3179C52.7688 175.931 54.1832 176.048 55.619 176.048C56.8695 176.048 58.1286 175.931 59.3983 175.931H59.5325V176.063V177.11H59.3983H58.9402C57.6727 177.146 56.371 177.256 56.335 180.863V194.779C56.335 195.848 56.3668 196.916 56.5161 197.843L56.5459 198H56.3864V198ZM55.2192 197.731H56.2353C56.0971 196.812 56.0734 195.795 56.0734 194.779V180.863C56.0734 177.193 57.6179 176.845 58.9409 176.845H59.2647V176.196C58.0547 176.204 56.8404 176.315 55.6199 176.315C54.2138 176.315 52.8462 176.204 51.4551 176.196L51.4529 176.845H51.9962C52.9399 176.845 54.804 177.265 54.804 179.858L54.7614 191.414L54.6996 191.478L54.5954 191.573L40.9333 176.196C40.0217 176.196 39.131 176.315 38.1958 176.315C37.0688 176.315 35.9163 176.204 34.8021 176.196L34.7957 176.845H35.0684C36.5107 176.845 37.9913 177.941 37.9913 179.731V192.61C37.9913 195.054 37.3074 196.619 35.0983 196.628L34.8021 196.619V197.279C36.1336 197.266 37.5013 197.156 38.8453 197.156C40.128 197.156 41.4041 197.266 42.6735 197.279V196.628H42.286C39.8679 196.619 39.2673 195.572 39.265 192.913V179.968L55.2192 197.731ZM54.5372 191.321V191.31L54.5117 191.289L54.5372 191.321Z" fill="#211E1F"/>
<path d="M64.0005 177.589C61.6933 177.589 61.606 178.141 61.1458 180.371H60.2234C60.3448 179.516 60.4982 178.662 60.5919 177.771C60.7153 176.915 60.7749 176.062 60.7749 175.176H61.5141C61.7613 176.094 62.5284 176.062 63.3614 176.062H79.209C80.0396 176.062 80.8068 176.033 80.8707 175.113L81.6033 175.236C81.484 176.062 81.3604 176.887 81.2667 177.714C81.2113 178.539 81.2113 179.366 81.2113 180.189L80.2868 180.53C80.2228 179.4 80.0695 177.589 78.0137 177.589H72.9754V193.861C72.9754 196.219 74.0514 196.488 75.5212 196.488H76.107V197.411C74.9098 197.411 72.7562 197.29 71.1007 197.29C69.2582 197.29 67.1042 197.411 65.9048 197.411V196.488H66.4906C68.1843 196.488 69.0406 196.337 69.0406 193.924V177.589H64.0005Z" fill="#211E1F"/>
<path d="M76.1119 197.54C74.9017 197.54 72.7522 197.417 71.1011 197.417C69.2605 197.417 67.1112 197.54 65.9052 197.54H65.7774V197.411V196.357H65.9052H66.4911C68.1847 196.316 68.8662 196.295 68.9047 193.924V177.723H64.0007V177.589V177.453H69.1712V193.924C69.1712 196.378 68.1785 196.626 66.4913 196.628H66.0396V197.273C67.2518 197.266 69.3182 197.156 71.1013 197.156C72.7036 197.156 74.757 197.266 75.9713 197.273V196.628H75.5218C74.037 196.626 72.8418 196.263 72.8418 193.861V177.453H78.0143C80.0765 177.462 80.3449 179.207 80.4131 180.341L81.0756 180.097C81.0756 179.3 81.0799 178.501 81.1353 177.695C81.2247 176.908 81.3377 176.128 81.4527 175.348L80.9838 175.269C80.8413 176.16 79.9783 176.204 79.205 176.196H63.3616H63.2018C62.4796 176.196 61.6893 176.162 61.4144 175.308H60.9074C60.9029 176.154 60.8433 176.974 60.7261 177.788C60.6366 178.628 60.496 179.436 60.381 180.244H61.0395C61.444 178.113 61.7084 177.422 64.0005 177.454V177.589V177.723C61.7295 177.763 61.7766 178.145 61.2758 180.405L61.2525 180.509H61.146H60.0702L60.0872 180.35C60.2108 179.493 60.3665 178.641 60.4579 177.75C60.5857 176.902 60.6454 176.054 60.6454 175.176V175.043H60.7753H61.619L61.6403 175.138C61.8512 175.91 62.42 175.914 63.2018 175.927H63.3616H79.205C80.0616 175.914 80.6834 175.901 80.7367 175.102L80.7495 174.957L80.8879 174.987L81.755 175.123L81.7356 175.257C81.612 176.075 81.4908 176.902 81.4014 177.723C81.3396 178.537 81.3396 179.364 81.3396 180.189V180.284L81.2544 180.318L80.1658 180.712L80.1574 180.534C80.0763 179.385 79.9548 177.722 78.0141 177.722H73.11V193.861C73.1377 196.168 74.0578 196.327 75.5214 196.356H76.2414V196.488V197.539L76.1119 197.54Z" fill="#211E1F"/>
<path d="M82.586 196.488H83.0185C84.1222 196.488 85.2913 196.34 85.2913 194.747V178.726C85.2913 177.131 84.1222 176.981 83.0185 176.981H82.586V176.062C84.4564 176.062 87.6564 176.183 90.2316 176.183C92.8181 176.183 96.0072 176.062 98.0947 176.062C98.044 177.375 98.0715 179.398 98.1629 180.74L97.2362 180.986C97.0894 178.999 96.7206 177.411 93.4932 177.411H89.2263V185.42H92.8779C94.7202 185.42 95.1231 184.383 95.3042 182.727H96.2245C96.1651 183.925 96.1329 185.117 96.1329 186.308C96.1329 187.473 96.1648 188.632 96.2245 189.794L95.3042 189.977C95.1231 188.143 95.0296 186.951 92.9075 186.951H89.2265V194.073C89.2265 196.064 91.0011 196.064 92.9695 196.064C96.6569 196.064 98.2824 195.816 99.2051 192.334L100.066 192.544C99.6631 194.168 99.2967 195.786 99.024 197.411C97.0555 197.411 93.5213 197.29 90.7601 197.29C87.9907 197.29 84.3376 197.411 82.586 197.411V196.488Z" fill="#211E1F"/>
<path d="M99.021 197.54C97.0483 197.54 93.5162 197.415 90.7576 197.415C87.9903 197.415 84.3386 197.54 82.5854 197.54H82.4556V197.411V196.488V196.357H82.5854H83.0159C84.1299 196.34 85.1397 196.242 85.1548 194.747V178.726C85.1399 177.233 84.1299 177.133 83.0159 177.11H82.4556V176.981V175.931H82.5854C84.4601 175.931 87.6556 176.048 90.2312 176.048C92.8151 176.048 96.0023 175.931 98.0943 175.931H98.2328L98.2262 176.067C98.2049 176.527 98.1966 177.07 98.1966 177.647C98.1966 178.704 98.2262 179.86 98.2881 180.732L98.2924 180.842L98.1902 180.872L97.1101 181.152L97.1039 180.995C96.9228 179.01 96.6565 177.57 93.4932 177.541H89.3539L89.3494 185.282H92.8775C94.6459 185.265 94.9629 184.364 95.1719 182.717L95.1828 182.596H95.3018H96.3608L96.3587 182.733C96.2993 183.925 96.2605 185.117 96.2605 186.308C96.2605 187.466 96.2993 188.626 96.3587 189.79L96.3608 189.898L96.2501 189.923L95.1828 190.136L95.1719 189.991C94.961 188.125 94.9459 187.103 92.905 187.08L89.3537 187.078V194.073C89.3562 195.931 90.9664 195.92 92.9691 195.931C96.6672 195.909 98.1501 195.731 99.0768 192.296L99.1068 192.173L99.2366 192.197L100.221 192.449L100.191 192.576C99.7949 194.196 99.4262 195.812 99.1512 197.432L99.1258 197.54H99.021ZM98.9083 197.273C99.1746 195.731 99.5257 194.183 99.9032 192.644L99.296 192.491C98.3757 195.914 96.5943 196.219 92.9687 196.196C91.0343 196.196 89.0957 196.196 89.087 194.073V186.817H92.905C95.0498 186.794 95.2697 188.083 95.4207 189.824L96.0856 189.686C96.0257 188.56 95.9983 187.43 95.9983 186.308C95.9983 185.157 96.0257 184.012 96.0856 182.86H95.4207C95.2505 184.453 94.7497 185.572 92.8773 185.551H89.0872V177.273H93.4932C96.6887 177.252 97.2187 178.893 97.3553 180.816L98.018 180.638C97.9648 179.775 97.9281 178.668 97.9281 177.646C97.9281 177.123 97.9411 176.629 97.9582 176.196C95.8706 176.204 92.7601 176.315 90.2314 176.315C87.7069 176.315 84.599 176.204 82.7177 176.196V176.845H83.0157C84.1107 176.845 85.4189 177.036 85.423 178.726V194.747C85.4187 196.433 84.1107 196.62 83.0157 196.628H82.7177V197.273C84.5095 197.27 88.0587 197.156 90.7574 197.156C93.4672 197.156 96.9269 197.27 98.9083 197.273Z" fill="#211E1F"/>
<path d="M104.211 179.302C104.211 177.072 102.984 176.981 102.028 176.981H101.476V176.06C102.46 176.06 104.362 176.183 106.237 176.183C108.08 176.183 109.556 176.06 111.182 176.06C115.05 176.06 118.496 177.101 118.496 181.448C118.496 184.194 116.653 185.878 114.226 186.83L119.477 194.654C120.338 195.947 120.95 196.31 122.458 196.488V197.41C121.444 197.41 120.459 197.289 119.447 197.289C118.495 197.289 117.509 197.41 116.561 197.41C114.196 194.321 112.164 191.017 110.167 187.498H108.146V194.045C108.146 196.403 109.248 196.488 110.66 196.488H111.214V197.411C109.458 197.411 107.684 197.29 105.931 197.29C104.454 197.29 103.01 197.411 101.476 197.411V196.488H102.028C103.169 196.488 104.211 195.975 104.211 194.84V179.302ZM108.146 186.397H109.646C112.72 186.397 114.375 185.235 114.375 181.626C114.375 178.908 112.626 177.163 109.889 177.163C108.966 177.163 108.574 177.258 108.145 177.286V186.397H108.146Z" fill="#211E1F"/>
<path d="M122.458 197.54C121.429 197.54 120.451 197.417 119.441 197.417C118.504 197.417 117.524 197.54 116.453 197.489C114.096 194.412 112.077 191.128 110.091 187.633H108.276V194.041C108.308 196.342 109.237 196.323 110.658 196.357H111.346V196.488V197.54H111.209C109.454 197.54 107.671 197.417 105.926 197.417C104.458 197.417 103.018 197.54 101.476 197.54H101.341V197.409V196.357H101.476H102.028C103.135 196.351 104.068 195.871 104.073 194.841V179.303C104.049 177.132 102.982 177.144 102.028 177.113H101.341V176.981V175.927H101.476C102.471 175.927 104.367 176.048 106.237 176.048C108.071 176.048 109.548 175.927 111.184 175.927C115.055 175.936 118.621 177 118.631 181.44C118.631 184.203 116.797 185.927 114.426 186.89L119.588 194.582C120.447 195.85 120.981 196.166 122.477 196.357L122.59 196.374V196.488V197.54H122.458V197.54ZM108.142 187.366H110.242L110.279 187.434C112.281 190.947 114.298 194.247 116.561 197.279C117.498 197.279 118.484 197.154 119.441 197.154C120.423 197.154 121.369 197.26 122.325 197.275V196.605C120.883 196.426 120.208 195.998 119.369 194.728L114.024 186.766L114.175 186.704C116.578 185.763 118.357 184.128 118.359 181.439C118.357 177.197 115.046 176.213 111.184 176.196C109.563 176.196 108.088 176.317 106.237 176.317C104.433 176.317 102.611 176.204 101.606 176.196V176.845H102.028C102.982 176.847 104.341 177.004 104.341 179.303V194.84C104.341 196.068 103.184 196.628 102.028 196.63H101.606V197.274C103.084 197.27 104.484 197.154 105.926 197.154C107.645 197.154 109.377 197.27 111.077 197.274V196.63H110.658C109.256 196.628 108.008 196.454 108.008 194.041V187.366H108.142H108.142ZM108.142 186.526H108.008V177.163L108.125 177.152C108.545 177.121 108.96 177.034 109.889 177.034C112.688 177.034 114.507 178.844 114.511 181.632C114.503 185.284 112.743 186.524 109.646 186.526H108.142V186.526ZM109.646 186.264C112.688 186.238 114.218 185.187 114.25 181.633C114.233 178.961 112.564 177.303 109.889 177.292C109.058 177.292 108.668 177.369 108.276 177.403V186.264H109.646Z" fill="#211E1F"/>
<path d="M143.316 191.382L143.371 191.323V179.856C143.371 177.345 141.623 176.98 140.702 176.98H140.029V176.062C141.471 176.062 142.882 176.183 144.328 176.183C145.589 176.183 146.844 176.062 148.112 176.062V176.98H147.649C146.359 176.98 144.914 177.224 144.914 180.863V194.781C144.914 195.85 144.944 196.918 145.095 197.866H143.93L128.11 180.312V192.913C128.11 195.574 128.632 196.488 130.996 196.488H131.519V197.411C130.2 197.411 128.877 197.29 127.558 197.29C126.171 197.29 124.759 197.411 123.378 197.411V196.488H123.804C125.926 196.488 126.572 195.055 126.572 192.61V179.729C126.572 178.018 125.159 176.981 123.779 176.981H123.378V176.063C124.542 176.063 125.745 176.183 126.91 176.183C127.827 176.183 128.721 176.063 129.644 176.063L143.316 191.382Z" fill="#211E1F"/>
<path d="M145.096 197.998L143.831 197.955L128.239 180.657V192.911C128.275 195.572 128.68 196.327 130.998 196.357H131.648V196.488V197.54H131.513C130.184 197.54 128.867 197.415 127.551 197.415C126.179 197.415 124.76 197.54 123.377 197.54H123.239V197.411V196.357H123.377H123.804C125.832 196.348 126.413 195.048 126.432 192.602V179.729C126.43 178.1 125.09 177.112 123.778 177.11H123.239V176.981V175.927H123.377C124.549 175.927 125.751 176.048 126.91 176.048C127.813 176.048 128.703 175.927 129.734 175.969L143.239 191.105V179.854C143.23 177.424 141.594 177.123 140.702 177.11H139.89V176.981V175.927H140.024C141.477 175.927 142.891 176.048 144.327 176.048C145.58 176.048 146.839 175.927 148.104 175.927H148.238V176.065V177.11H148.104H147.648C146.381 177.144 145.075 177.256 145.043 180.863V194.779C145.043 195.848 145.071 196.908 145.226 197.849L145.243 197.998H145.096ZM143.929 197.731H144.939C144.804 196.812 144.774 195.795 144.774 194.779V180.863C144.777 177.192 146.332 176.853 147.648 176.843H147.97V176.196C146.764 176.204 145.548 176.315 144.327 176.315C142.917 176.315 141.547 176.204 140.156 176.196V176.843H140.701C141.647 176.853 143.509 177.265 143.509 179.854L143.467 191.414L143.407 191.478L143.313 191.575L129.641 176.196C128.729 176.196 127.838 176.315 126.91 176.315C125.772 176.315 124.624 176.205 123.506 176.196V176.843H123.778C125.22 176.854 126.701 177.937 126.701 179.729V192.601C126.701 195.057 126.007 196.619 123.804 196.628L123.506 196.626V197.273C124.833 197.266 126.203 197.156 127.551 197.156C128.84 197.156 130.116 197.266 131.386 197.273V196.628H130.998C128.578 196.626 127.973 195.572 127.969 192.911V179.972L143.929 197.731ZM143.239 191.323V191.312L143.215 191.289L143.239 191.323Z" fill="#211E1F"/>
<path d="M153.052 193.036C152.741 194.073 152.37 194.874 152.37 195.419C152.37 196.34 153.663 196.488 154.673 196.488H155.016V197.41C153.785 197.344 152.53 197.289 151.292 197.289C150.187 197.289 149.087 197.345 147.98 197.41V196.488H148.165C149.362 196.488 150.378 195.786 150.832 194.499L155.753 180.466C156.149 179.334 156.707 177.805 156.893 176.671C157.871 176.338 159.102 175.727 159.684 175.358C159.78 175.327 159.833 175.295 159.929 175.295C160.021 175.295 160.08 175.295 160.148 175.39C160.238 175.632 160.327 175.91 160.425 176.154L166.077 192.15C166.445 193.218 166.809 194.349 167.208 195.269C167.579 196.125 168.226 196.488 169.243 196.488H169.424V197.41C168.041 197.345 166.657 197.29 165.187 197.29C163.68 197.29 162.14 197.345 160.574 197.41V196.488H160.915C161.618 196.488 162.82 196.369 162.82 195.604C162.82 195.207 162.543 194.382 162.2 193.401L161.005 189.853H154.032L153.052 193.036ZM157.534 179.487H157.472L154.615 188.142H160.357L157.534 179.487Z" fill="#211E1F"/>
<path d="M169.415 197.54C168.032 197.478 166.65 197.415 165.186 197.415C163.68 197.415 162.15 197.478 160.578 197.54L160.44 197.548V197.411V196.352H160.574H160.913C161.624 196.352 162.681 196.191 162.681 195.604C162.689 195.256 162.412 194.417 162.074 193.444L160.904 189.985H154.128L153.173 193.074C152.862 194.118 152.494 194.925 152.496 195.424C152.506 196.17 153.654 196.352 154.673 196.352H155.146V196.49V197.548L155.007 197.54C153.778 197.478 152.523 197.415 151.298 197.415C150.197 197.415 149.089 197.478 147.988 197.54L147.845 197.548V197.411V196.352H147.979H148.163C149.307 196.348 150.261 195.702 150.704 194.457L155.623 180.422C156.026 179.288 156.58 177.763 156.846 176.544C157.809 176.22 159.042 175.605 159.635 175.232C159.72 175.204 159.805 175.162 159.931 175.162C160.006 175.16 160.172 175.179 160.27 175.34C160.357 175.592 160.453 175.864 160.546 176.112L166.205 192.106C166.567 193.179 166.934 194.309 167.334 195.212C167.69 196.029 168.255 196.349 169.243 196.353H169.556V196.491V197.549L169.415 197.54ZM160.708 197.266C162.229 197.213 163.718 197.154 165.186 197.154C166.613 197.154 167.949 197.213 169.285 197.266V196.628H169.242C168.19 196.634 167.463 196.223 167.086 195.322C166.686 194.393 166.311 193.259 165.951 192.188L160.295 176.196C160.201 175.952 160.112 175.675 160.031 175.458C160.005 175.429 160.011 175.429 159.986 175.429H159.93C159.867 175.429 159.83 175.448 159.751 175.469C159.159 175.853 157.926 176.453 157.016 176.692C156.826 177.85 156.275 179.377 155.874 180.509L150.957 194.546C150.489 195.873 149.413 196.63 148.163 196.628H148.114V197.266C149.166 197.213 150.231 197.154 151.298 197.154C152.485 197.154 153.699 197.213 154.871 197.266V196.628H154.673C153.674 196.615 152.276 196.503 152.238 195.424C152.24 194.813 152.617 194.031 152.917 192.998L153.052 193.038L152.917 192.994L153.929 189.724H161.091L162.325 193.358C162.67 194.34 162.949 195.154 162.949 195.604C162.907 196.543 161.609 196.609 160.912 196.628H160.708L160.708 197.266ZM154.428 188.274L157.37 179.353H157.472H157.536H157.628L160.544 188.274H154.428ZM154.796 188.009H160.173L157.499 179.813L154.796 188.009Z" fill="#211E1F"/>
<path d="M170.774 177.589C168.469 177.589 168.378 178.141 167.915 180.371H166.992C167.114 179.516 167.27 178.662 167.366 177.771C167.489 176.915 167.545 176.062 167.545 175.176H168.286C168.531 176.094 169.302 176.062 170.127 176.062H185.983C186.807 176.062 187.574 176.033 187.638 175.113L188.373 175.236C188.256 176.062 188.135 176.887 188.041 177.714C187.975 178.539 187.975 179.366 187.975 180.189L187.054 180.53C186.997 179.4 186.843 177.589 184.783 177.589H179.745V193.861C179.745 196.219 180.823 196.488 182.293 196.488H182.877V197.411C181.68 197.411 179.532 197.29 177.87 197.29C176.03 197.29 173.876 197.411 172.679 197.411V196.488H173.26C174.954 196.488 175.815 196.337 175.815 193.924V177.589H170.774Z" fill="#211E1F"/>
<path d="M182.877 197.54C181.671 197.54 179.519 197.417 177.87 197.417C176.034 197.417 173.882 197.54 172.679 197.54H172.542V197.411V196.357H172.679H173.26C174.954 196.316 175.634 196.295 175.676 193.924L175.672 177.723H170.774V177.589V177.453H175.942V193.924C175.942 196.378 174.947 196.619 173.26 196.626H172.809V197.279C174.025 197.266 176.087 197.156 177.87 197.156C179.474 197.156 181.528 197.266 182.742 197.279V196.626H182.289C180.812 196.619 179.615 196.265 179.611 193.861V177.453H184.783C186.845 177.462 187.116 179.207 187.174 180.341L187.845 180.097C187.845 179.3 187.847 178.501 187.906 177.699C187.992 176.913 188.106 176.128 188.22 175.348L187.755 175.269C187.615 176.16 186.748 176.209 185.983 176.196H170.126H169.971C169.247 176.204 168.463 176.162 168.183 175.303H167.681C167.672 176.151 167.615 176.974 167.493 177.788C167.412 178.63 167.261 179.44 167.146 180.244H167.804C168.211 178.113 168.478 177.421 170.774 177.453V177.589L170.774 177.723C168.497 177.761 168.548 178.145 168.045 180.405L168.021 180.509H167.915H166.837L166.856 180.356C166.984 179.493 167.137 178.641 167.227 177.756C167.352 176.902 167.412 176.054 167.412 175.176V175.042H167.544H168.383L168.409 175.138C168.624 175.91 169.184 175.914 169.971 175.926L170.126 175.931H185.982C186.83 175.914 187.45 175.901 187.503 175.104L187.512 174.958L187.657 174.988L188.528 175.123L188.505 175.257C188.379 176.075 188.262 176.902 188.168 177.723C188.106 178.537 188.106 179.366 188.106 180.189V180.284L188.019 180.318L186.931 180.713L186.924 180.534C186.845 179.385 186.724 177.723 184.783 177.723H179.877V193.861C179.909 196.168 180.827 196.327 182.289 196.356H183.009V196.488V197.54L182.877 197.54Z" fill="#211E1F"/>
<path d="M189.508 196.488H189.938C191.048 196.488 192.209 196.34 192.209 194.747V178.726C192.209 177.131 191.048 176.981 189.938 176.981H189.508V176.062C190.707 176.062 192.548 176.183 194.049 176.183C195.592 176.183 197.435 176.062 198.879 176.062V176.981H198.449C197.343 176.981 196.171 177.131 196.171 178.726V194.747C196.171 196.34 197.343 196.488 198.449 196.488H198.879V197.411C197.403 197.411 195.558 197.29 194.026 197.29C192.518 197.29 190.707 197.411 189.508 197.411V196.488Z" fill="#211E1F"/>
<path d="M198.88 197.54C197.395 197.54 195.557 197.415 194.025 197.415C192.523 197.415 190.708 197.54 189.509 197.54H189.375V197.411V196.488V196.357H189.509H189.939C191.049 196.34 192.067 196.244 192.072 194.747V178.726C192.067 177.233 191.049 177.131 189.939 177.11H189.375V176.981V175.931H189.509C190.708 175.931 192.553 176.048 194.05 176.048C195.582 176.048 197.425 175.931 198.88 175.931H199.01V176.062V177.11H198.88H198.45C197.327 177.131 196.319 177.233 196.304 178.726V194.747C196.319 196.244 197.327 196.34 198.45 196.357H199.01V196.488V197.54H198.88ZM198.742 197.273V196.626H198.45C197.348 196.626 196.045 196.433 196.045 194.747V178.726C196.045 177.036 197.348 176.845 198.45 176.845H198.742V176.196C197.323 176.204 195.548 176.315 194.05 176.315C192.595 176.315 190.834 176.204 189.643 176.196V176.845H189.939C191.032 176.845 192.34 177.036 192.344 178.726V194.747C192.34 196.433 191.032 196.626 189.939 196.626H189.643V197.273C190.828 197.26 192.566 197.156 194.025 197.156C195.514 197.156 197.293 197.266 198.742 197.273Z" fill="#211E1F"/>
<path d="M211.131 175.604C217.679 175.604 222.899 179.646 222.899 186.157C222.899 193.193 217.83 197.868 211.29 197.868C204.771 197.868 199.799 193.464 199.799 186.889C199.799 180.53 204.742 175.604 211.131 175.604ZM211.595 196.522C217.556 196.522 218.593 191.289 218.593 186.83C218.593 182.36 216.173 176.949 211.071 176.949C205.694 176.949 204.098 181.72 204.098 185.814C204.098 191.289 206.617 196.522 211.595 196.522Z" fill="#211E1F"/>
<path d="M199.662 186.889C199.675 180.456 204.677 175.479 211.129 175.471V175.604V175.734C204.815 175.734 199.928 180.596 199.922 186.889C199.937 193.39 204.839 197.728 211.289 197.73C217.765 197.728 222.761 193.118 222.772 186.151C222.765 179.722 217.625 175.742 211.13 175.734V175.604V175.471C217.729 175.475 223.019 179.557 223.032 186.151C223.026 193.261 217.891 197.985 211.289 197.997C204.719 197.985 199.675 193.536 199.662 186.889H199.662V186.889ZM203.965 185.814C203.974 181.701 205.588 176.811 211.072 176.811C216.287 176.824 218.722 182.337 218.73 186.83C218.722 191.289 217.668 196.649 211.596 196.649V196.522V196.39C217.438 196.382 218.45 191.289 218.464 186.83C218.464 182.396 216.065 177.089 211.072 177.082C205.801 177.089 204.242 181.741 204.232 185.814C204.236 191.261 206.731 196.378 211.596 196.39V196.522V196.649C206.496 196.643 203.974 191.321 203.965 185.814Z" fill="#211E1F"/>
<path d="M243.601 191.382L243.663 191.323V179.856C243.663 177.345 241.908 176.98 240.985 176.98H240.321V176.062C241.761 176.062 243.173 176.183 244.613 176.183C245.876 176.183 247.135 176.062 248.397 176.062V176.98H247.932C246.645 176.98 245.199 177.224 245.199 180.863V194.781C245.199 195.85 245.229 196.918 245.385 197.866H244.219L228.395 180.312V192.913C228.395 195.574 228.915 196.488 231.279 196.488H231.805V197.411C230.483 197.411 229.164 197.29 227.843 197.29C226.46 197.29 225.044 197.411 223.661 197.411V196.488H224.093C226.218 196.488 226.855 195.055 226.855 192.61V179.729C226.855 178.018 225.448 176.981 224.061 176.981H223.661V176.063C224.828 176.063 226.028 176.183 227.193 176.183C228.116 176.183 229.004 176.063 229.929 176.063L243.601 191.382Z" fill="#211E1F"/>
<path d="M245.387 197.998L244.115 197.953L228.527 180.657V192.913C228.561 195.572 228.968 196.325 231.275 196.352H231.94V196.49V197.54H231.806C230.474 197.54 229.156 197.417 227.843 197.417C226.465 197.417 225.054 197.54 223.659 197.54H223.531V197.408V196.352H223.659H224.094C226.12 196.346 226.701 195.049 226.727 192.61V179.729C226.722 178.1 225.382 177.112 224.062 177.11H223.531V176.981V175.931H223.659C224.837 175.931 226.034 176.048 227.193 176.048C228.105 176.048 228.991 175.931 230.031 175.976L243.529 191.105V179.858C243.52 177.424 241.884 177.131 240.985 177.11H240.178V176.981V175.932H240.316C241.763 175.932 243.179 176.048 244.608 176.048C245.87 176.048 247.123 175.932 248.396 175.932H248.528V176.063V177.11H248.396H247.932C246.668 177.146 245.361 177.261 245.335 180.863V194.779C245.335 195.848 245.358 196.914 245.508 197.849L245.533 197.998H245.387V197.998ZM244.22 197.731H245.225C245.091 196.812 245.067 195.795 245.067 194.779V180.863C245.067 177.186 246.616 176.853 247.933 176.843H248.265V176.196C247.053 176.204 245.839 176.315 244.61 176.315C243.212 176.315 241.838 176.204 240.447 176.196V176.843H240.986C241.938 176.853 243.791 177.271 243.791 179.858L243.758 191.414L243.7 191.478L243.602 191.575L229.93 176.196C229.024 176.196 228.127 176.315 227.194 176.315C226.063 176.315 224.91 176.205 223.792 176.196V176.843H224.062C225.505 176.854 226.989 177.937 226.989 179.729V192.61C226.989 195.055 226.304 196.62 224.094 196.628L223.792 196.626V197.273C225.125 197.266 226.493 197.156 227.844 197.156C229.124 197.156 230.396 197.266 231.672 197.273V196.628H231.276C228.865 196.626 228.262 195.572 228.262 192.913V179.968L244.22 197.731ZM243.529 191.323V191.312L243.503 191.289L243.529 191.323Z" fill="#211E1F"/>
<path d="M253.334 193.036C253.033 194.073 252.66 194.874 252.66 195.419C252.66 196.34 253.954 196.488 254.961 196.488H255.304V197.41C254.075 197.344 252.814 197.289 251.585 197.289C250.475 197.289 249.373 197.345 248.272 197.41V196.488H248.447C249.65 196.488 250.669 195.786 251.122 194.499L256.044 180.466C256.44 179.334 256.996 177.805 257.175 176.671C258.159 176.338 259.386 175.727 259.976 175.358C260.063 175.327 260.125 175.295 260.219 175.295C260.311 175.295 260.368 175.295 260.43 175.39C260.524 175.632 260.62 175.91 260.711 176.154L266.361 192.15C266.729 193.218 267.096 194.349 267.501 195.269C267.869 196.125 268.517 196.488 269.527 196.488H269.714V197.41C268.33 197.345 266.947 197.29 265.471 197.29C263.968 197.29 262.431 197.345 260.862 197.41V196.488H261.204C261.904 196.488 263.11 196.369 263.11 195.604C263.11 195.207 262.831 194.382 262.488 193.401L261.295 189.853H254.32L253.334 193.036ZM257.824 179.487H257.763L254.902 188.142H260.651L257.824 179.487Z" fill="#211E1F"/>
<path d="M269.701 197.54C268.318 197.485 266.938 197.417 265.47 197.417C263.972 197.417 262.435 197.485 260.866 197.54L260.73 197.548V197.408V196.357H260.862H261.197C261.912 196.357 262.971 196.191 262.973 195.604C262.98 195.256 262.703 194.423 262.36 193.443L261.193 189.985H254.412L253.461 193.074C253.155 194.122 252.788 194.925 252.795 195.42C252.795 196.17 253.945 196.357 254.961 196.357H255.43V196.488V197.548L255.294 197.54C254.064 197.485 252.807 197.417 251.585 197.417C250.483 197.417 249.379 197.485 248.272 197.54L248.137 197.548V197.408V196.357H248.272H248.447C249.592 196.352 250.551 195.697 250.999 194.457L255.916 180.422C256.307 179.288 256.861 177.763 257.134 176.548C258.099 176.215 259.332 175.605 259.929 175.231C260.01 175.204 260.093 175.168 260.219 175.168C260.3 175.159 260.457 175.178 260.555 175.346C260.647 175.586 260.736 175.863 260.839 176.111L266.488 192.105C266.855 193.178 267.223 194.308 267.622 195.218C267.981 196.028 268.542 196.348 269.522 196.357H269.841V196.488V197.548L269.701 197.54ZM260.994 197.27C262.513 197.213 264.009 197.154 265.47 197.154C266.9 197.154 268.24 197.213 269.577 197.266L269.573 196.628H269.522C268.482 196.63 267.756 196.223 267.375 195.322C266.97 194.393 266.604 193.259 266.237 192.192L260.583 176.196C260.491 175.952 260.398 175.674 260.323 175.467C260.297 175.428 260.3 175.428 260.276 175.428H260.219C260.155 175.428 260.12 175.45 260.046 175.471C259.447 175.846 258.216 176.457 257.306 176.692C257.117 177.85 256.559 179.374 256.163 180.509L251.244 194.546C250.777 195.873 249.703 196.63 248.446 196.628H248.401V197.266C249.458 197.213 250.515 197.154 251.584 197.154C252.775 197.154 253.987 197.213 255.17 197.266V196.628H254.961C253.962 196.615 252.56 196.507 252.524 195.419C252.53 194.813 252.911 194.035 253.208 192.998L253.333 193.038L253.208 192.993L254.22 189.724H261.384L262.615 193.358C262.954 194.342 263.233 195.154 263.233 195.604C263.188 196.543 261.899 196.609 261.196 196.628H260.994V197.27H260.994ZM254.718 188.272L257.665 179.353H257.758H257.824H257.92L260.824 188.272H254.718ZM255.087 188.009H260.46L257.788 179.818L255.087 188.009Z" fill="#211E1F"/>
<path d="M277.455 194.412C277.455 195.636 278.307 196 279.292 196.125C280.551 196.219 281.933 196.219 283.352 196.064C284.639 195.909 285.747 195.176 286.296 194.412C286.786 193.738 287.063 192.881 287.248 192.209H288.139C287.802 193.952 287.372 195.669 287.001 197.41C284.304 197.41 281.595 197.289 278.895 197.289C276.188 197.289 273.489 197.41 270.785 197.41V196.488H271.207C272.319 196.488 273.521 196.34 273.521 194.442V178.726C273.521 177.131 272.319 176.981 271.207 176.981H270.785V176.062C272.408 176.062 274.008 176.183 275.634 176.183C277.206 176.183 278.74 176.062 280.308 176.062V176.981H279.534C278.371 176.981 277.455 177.014 277.455 178.63V194.412Z" fill="#211E1F"/>
<path d="M287.001 197.54C284.294 197.54 281.591 197.417 278.896 197.417C276.19 197.417 273.486 197.54 270.779 197.54H270.649V197.408V196.357H270.779H271.207C272.321 196.331 273.374 196.255 273.386 194.442V178.72C273.374 177.233 272.328 177.131 271.207 177.11H270.649V176.981V175.931H270.779C272.413 175.931 274.013 176.048 275.636 176.048C277.195 176.048 278.729 175.931 280.308 175.931H280.434V176.063V177.11H280.308H279.537C278.346 177.144 277.605 177.089 277.581 178.631V194.413C277.589 195.551 278.34 195.859 279.298 195.992C279.841 196.03 280.41 196.054 281.003 196.054C281.754 196.054 282.536 196.018 283.329 195.933C284.581 195.787 285.659 195.068 286.188 194.338C286.661 193.685 286.934 192.846 287.117 192.178L287.144 192.076H287.247H288.301L288.273 192.237C287.926 193.987 287.505 195.696 287.132 197.436L287.106 197.54H287.002H287.001V197.54ZM286.891 197.273C287.246 195.615 287.649 193.992 287.979 192.338H287.349C287.157 193.004 286.884 193.825 286.401 194.493C285.828 195.286 284.69 196.032 283.358 196.195C282.553 196.278 281.756 196.32 281.002 196.32C280.408 196.32 279.831 196.293 279.275 196.255C278.276 196.144 277.306 195.72 277.311 194.412V178.63C277.311 176.932 278.39 176.845 279.537 176.845H280.171V176.196C278.657 176.204 277.166 176.317 275.636 176.317C274.045 176.317 272.489 176.204 270.913 176.196V176.845H271.207C272.304 176.845 273.646 177.036 273.646 178.719V194.442C273.646 196.42 272.31 196.626 271.207 196.626H270.913V197.273C273.569 197.27 276.226 197.156 278.895 197.156C281.565 197.156 284.232 197.27 286.891 197.273Z" fill="#211E1F"/>
<path d="M287.766 175.193C289.617 175.193 291 176.609 291 178.424C291 180.231 289.617 181.635 287.766 181.635C285.915 181.635 284.53 180.231 284.53 178.424C284.53 176.61 285.914 175.193 287.766 175.193ZM287.766 181.035C289.212 181.035 290.325 179.805 290.325 178.424C290.325 177.036 289.229 175.795 287.766 175.795C286.311 175.795 285.199 177.036 285.199 178.424C285.199 179.805 286.311 181.035 287.766 181.035ZM286.155 180.121V179.962C286.554 179.907 286.626 179.919 286.626 179.673V177.29C286.626 176.955 286.59 176.841 286.17 176.858V176.694H287.826C288.396 176.694 288.918 176.964 288.918 177.549C288.918 178.028 288.599 178.382 288.153 178.52L288.684 179.258C288.933 179.593 289.212 179.907 289.398 180.017V180.121H288.767C288.465 180.121 288.2 179.487 287.604 178.636H287.246V179.707C287.246 179.919 287.32 179.906 287.719 179.962V180.121L286.155 180.121ZM287.246 178.424H287.627C288.045 178.424 288.241 178.109 288.241 177.602C288.241 177.089 287.938 176.908 287.606 176.908H287.246V178.424Z" fill="#211E1F"/>
<path d="M163.259 120.867C192.604 121.007 219.389 97.0464 219.389 67.8978C219.389 36.0222 192.604 13.9894 163.259 14H138.003C108.306 13.9894 83.8627 36.0288 83.8627 67.8978C83.8627 97.0528 108.306 121.007 138.003 120.867H163.259Z" fill="#0079BE"/>
<path d="M138.123 18.4167C110.987 18.4252 88.9971 40.3181 88.9907 67.3383C88.9971 94.3537 110.986 116.244 138.123 116.253C165.266 116.244 187.26 94.3537 187.263 67.3383C187.259 40.3181 165.266 18.4252 138.123 18.4167ZM106.979 67.3383C107.005 54.1347 115.29 42.8755 126.973 38.4013V96.2684C115.29 91.7968 107.005 80.5437 106.979 67.3383ZM149.269 96.2812V38.3994C160.956 42.8628 169.254 54.1283 169.275 67.3383C169.254 80.5522 160.956 91.8093 149.269 96.2812Z" fill="white"/>
<path d="M163.259 120.867C192.604 121.007 219.389 97.0464 219.389 67.8978C219.389 36.0222 192.604 13.9894 163.259 14H138.003C108.306 13.9894 83.8627 36.0288 83.8627 67.8978C83.8627 97.0528 108.306 121.007 138.003 120.867H163.259Z" fill="#0079BE"/>
<path d="M138.123 18.4167C110.987 18.4252 88.9971 40.3181 88.9907 67.3383C88.9971 94.3537 110.986 116.244 138.123 116.253C165.266 116.244 187.26 94.3537 187.263 67.3383C187.259 40.3181 165.266 18.4252 138.123 18.4167ZM106.979 67.3383C107.005 54.1347 115.29 42.8755 126.973 38.4013V96.2684C115.29 91.7968 107.005 80.5437 106.979 67.3383ZM149.269 96.2812V38.3994C160.956 42.8628 169.254 54.1283 169.275 67.3383C169.254 80.5522 160.956 91.8093 149.269 96.2812Z" fill="white"/>
<path d="M29.3832 130.816C29.3832 125.761 26.7349 126.094 24.1956 126.039V124.578C26.3962 124.686 28.6522 124.686 30.8574 124.686C33.2284 124.686 36.4474 124.578 40.6269 124.578C55.2454 124.578 63.2065 134.298 63.2065 144.25C63.2065 149.816 59.9345 163.809 39.9473 163.809C37.0692 163.809 34.4127 163.698 31.7604 163.698C29.221 163.698 26.7349 163.754 24.1953 163.809V162.35C27.5807 162.01 29.221 161.898 29.383 158.075L29.3832 130.816ZM34.9178 157.178C34.9178 161.506 38.026 162.011 40.7912 162.011C52.9895 162.011 56.9946 152.849 56.9946 144.473C56.9946 133.967 50.218 126.38 39.3236 126.38C37.0058 126.38 35.9406 126.545 34.918 126.605L34.9178 157.178Z" fill="#211E1F"/>
<path d="M65.1877 162.35H66.2571C67.8357 162.35 68.9671 162.35 68.9671 160.49V145.262C68.9671 142.792 68.1212 142.448 66.0315 141.331V140.43C68.6838 139.637 71.8497 138.576 72.0711 138.407C72.4694 138.182 72.806 138.123 73.0894 138.123C73.3686 138.123 73.4856 138.462 73.4856 138.914V160.49C73.4856 162.35 74.7276 162.35 76.3083 162.35H77.267V163.811C75.3452 163.811 73.3684 163.699 71.3403 163.699C69.308 163.699 67.2735 163.754 65.1879 163.811V162.35H65.1877ZM71.2272 129.469C69.7575 129.469 68.4622 128.121 68.4622 126.66C68.4622 125.252 69.8171 123.956 71.2272 123.956C72.6908 123.956 73.9945 125.142 73.9945 126.66C73.9945 128.178 72.7485 129.469 71.2272 129.469Z" fill="#211E1F"/>
<path d="M82.6308 145.597C82.6308 143.519 82.0064 142.959 79.3586 141.891V140.824C81.785 140.038 84.0967 139.306 86.8082 138.123C86.9767 138.123 87.1426 138.237 87.1426 138.685V142.34C90.3661 140.038 93.1334 138.123 96.9209 138.123C101.714 138.123 103.408 141.608 103.408 145.991V160.491C103.408 162.35 104.65 162.35 106.232 162.35H107.249V163.811C105.267 163.811 103.293 163.699 101.265 163.699C99.23 163.699 97.1953 163.754 95.1653 163.811V162.35H96.1793C97.7641 162.35 98.8872 162.35 98.8872 160.491V145.938C98.8872 142.73 96.9209 141.159 93.6975 141.159C91.8933 141.159 89.0129 142.62 87.1424 143.858V160.49C87.1424 162.35 88.3906 162.35 89.9739 162.35H90.9879V163.811C89.0129 163.811 87.0338 163.698 85.0016 163.698C82.9712 163.698 80.9348 163.754 78.9044 163.811V162.35H79.9227C81.5034 162.35 82.6303 162.35 82.6303 160.49V145.597H82.6308Z" fill="#211E1F"/>
<path d="M111.541 148.298C111.424 148.805 111.424 149.647 111.541 151.559C111.874 156.896 115.327 161.279 119.837 161.279C122.945 161.279 125.378 159.594 127.464 157.516L128.252 158.304C125.653 161.731 122.436 164.653 117.809 164.653C108.829 164.653 107.023 155.995 107.023 152.401C107.023 141.384 114.475 138.123 118.424 138.123C123 138.123 127.915 140.987 127.968 146.945C127.968 147.287 127.968 147.62 127.915 147.961L127.404 148.298H111.541ZM121.537 146.498C122.945 146.498 123.112 145.767 123.112 145.095C123.112 142.228 121.362 139.923 118.199 139.923C114.758 139.923 112.387 142.448 111.71 146.498H121.537Z" fill="#211E1F"/>
<path d="M129.268 162.35H130.794C132.37 162.35 133.499 162.35 133.499 160.49V144.7C133.499 142.959 131.414 142.62 130.564 142.17V141.331C134.686 139.586 136.946 138.123 137.459 138.123C137.794 138.123 137.96 138.292 137.96 138.856V143.913H138.079C139.487 141.723 141.863 138.123 145.303 138.123C146.716 138.123 148.52 139.077 148.52 141.102C148.52 142.62 147.451 143.973 145.87 143.973C144.113 143.973 144.113 142.62 142.14 142.62C141.179 142.62 138.02 143.913 138.02 147.287V160.49C138.02 162.35 139.147 162.35 140.73 162.35H143.889V163.811C140.783 163.754 138.42 163.699 135.987 163.699C133.674 163.699 131.301 163.754 129.269 163.811L129.268 162.35Z" fill="#211E1F"/>
<path d="M151.006 155.995C151.741 159.706 153.997 162.855 158.122 162.855C161.445 162.855 162.689 160.832 162.689 158.864C162.689 152.232 150.384 154.367 150.384 145.319C150.384 142.171 152.927 138.123 159.135 138.123C160.94 138.123 163.366 138.632 165.567 139.758L165.967 145.485H164.666C164.103 141.948 162.129 139.923 158.511 139.923C156.253 139.923 154.11 141.217 154.11 143.632C154.11 150.213 167.207 148.184 167.207 157.007C167.207 160.716 164.214 164.653 157.495 164.653C155.237 164.653 152.584 163.866 150.61 162.745L149.988 156.28L151.006 155.995Z" fill="#211E1F"/>
<path d="M218.189 134.751H216.781C215.707 128.178 211.02 125.534 204.7 125.534C198.202 125.534 188.773 129.859 188.773 143.347C188.773 154.708 196.909 162.854 205.601 162.854C211.188 162.854 215.822 159.033 216.951 153.131L218.246 153.466L216.951 161.671C214.58 163.136 208.2 164.653 204.469 164.653C191.261 164.653 182.908 156.165 182.908 143.519C182.908 131.997 193.238 123.732 204.303 123.732C208.875 123.732 213.278 125.199 217.626 126.717L218.189 134.751Z" fill="#211E1F"/>
<path d="M220.226 162.35H221.295C222.878 162.35 224.011 162.35 224.011 160.49V129.19C224.011 125.534 223.164 125.421 221.016 124.804V123.905C223.274 123.176 225.645 122.162 226.832 121.486C227.447 121.151 227.903 120.867 228.07 120.867C228.415 120.867 228.528 121.206 228.528 121.658V160.49C228.528 162.35 229.767 162.35 231.35 162.35H232.303V163.811C230.392 163.811 228.415 163.699 226.38 163.699C224.35 163.699 222.318 163.754 220.225 163.811V162.35H220.226Z" fill="#211E1F"/>
<path d="M256.477 160.715C256.477 161.731 257.095 161.786 258.054 161.786C258.733 161.786 259.577 161.731 260.314 161.731V162.914C257.883 163.137 253.254 164.318 252.18 164.653L251.897 164.483V159.935C248.514 162.687 245.912 164.653 241.901 164.653C238.853 164.653 235.692 162.687 235.692 157.969V143.576C235.692 142.115 235.468 140.709 232.31 140.429V139.361C234.345 139.306 238.853 138.968 239.59 138.968C240.216 138.968 240.216 139.361 240.216 140.597V155.094C240.216 156.784 240.216 161.616 245.124 161.616C247.044 161.616 249.583 160.155 251.952 158.194V143.067C251.952 141.947 249.245 141.33 247.217 140.766V139.755C252.291 139.416 255.459 138.968 256.019 138.968C256.477 138.968 256.477 139.36 256.477 139.982L256.477 160.715Z" fill="#211E1F"/>
<path d="M267.711 142.171C269.967 140.26 273.015 138.123 276.124 138.123C282.674 138.123 286.622 143.805 286.622 149.927C286.622 157.289 281.205 164.653 273.126 164.653C268.95 164.653 266.75 163.302 265.28 162.687L263.589 163.976L262.406 163.361C262.907 160.045 263.194 156.784 263.194 153.357V129.189C263.194 125.534 262.342 125.421 260.199 124.804V123.905C262.464 123.176 264.828 122.162 266.015 121.486C266.637 121.151 267.086 120.867 267.261 120.867C267.598 120.867 267.711 121.206 267.711 121.658V142.17H267.711V142.171ZM267.711 157.456C267.711 159.594 269.741 163.194 273.525 163.194C279.566 163.194 282.106 157.289 282.106 152.285C282.106 146.216 277.481 141.159 273.075 141.159C270.981 141.159 269.234 142.51 267.711 143.805L267.711 157.456Z" fill="#211E1F"/>
<path d="M24.131 196.488H24.5635C25.667 196.488 26.8344 196.34 26.8344 194.747V178.726C26.8344 177.131 25.667 176.981 24.5635 176.981H24.131V176.062C25.3304 176.062 27.1731 176.183 28.6836 176.183C30.2174 176.183 32.058 176.062 33.5024 176.062V176.981H33.0699C31.9685 176.981 30.7992 177.131 30.7992 178.726V194.747C30.7992 196.34 31.9685 196.488 33.0699 196.488H33.5024V197.411C32.0282 197.411 30.1812 197.29 28.6495 197.29C27.1435 197.29 25.3304 197.411 24.131 197.411V196.488Z" fill="#211E1F"/>
<path d="M33.5033 197.54C32.0184 197.54 30.178 197.417 28.6482 197.417C27.1463 197.417 25.34 197.54 24.1319 197.54H24V197.408V196.49V196.357H24.1319H24.5624C25.6764 196.331 26.6906 196.242 26.7013 194.747V178.726C26.6906 177.231 25.6766 177.131 24.5624 177.11H24V176.981V175.927H24.1319C25.34 175.927 27.1806 176.048 28.6823 176.048C30.2119 176.048 32.0506 175.927 33.5033 175.927H33.6398V176.067V177.11H33.5033H33.0729C31.9588 177.131 30.9381 177.231 30.9319 178.726V194.747C30.9381 196.242 31.9585 196.331 33.0729 196.357H33.6396V196.49V197.54H33.5033ZM33.3712 197.279V196.626H33.0731C31.976 196.626 30.6701 196.437 30.6635 194.747V178.726C30.6699 177.036 31.9758 176.845 33.0731 176.845H33.3712V176.196C31.9524 176.196 30.1735 176.315 28.6823 176.315C27.223 176.315 25.4569 176.204 24.2682 176.196V176.845H24.5622C25.6572 176.845 26.9674 177.036 26.9674 178.726V194.747C26.9674 196.437 25.6572 196.626 24.5622 196.626H24.2682V197.279C25.4569 197.266 27.193 197.156 28.6482 197.156C30.1437 197.156 31.9225 197.27 33.3712 197.279Z" fill="#211E1F"/>
<path d="M54.6086 191.382L54.6702 191.323V179.856C54.6702 177.345 52.9171 176.98 51.9968 176.98H51.3191V176.062C52.7656 176.062 54.178 176.183 55.6203 176.183C56.8791 176.183 58.1448 176.062 59.4017 176.062V176.98H58.9415C57.6484 176.98 56.204 177.224 56.204 180.863V194.781C56.204 195.85 56.2357 196.918 56.387 197.866H55.2177L39.3998 180.312V192.913C39.3998 195.574 39.9175 196.488 42.2864 196.488H42.806V197.411C41.4876 197.411 40.1687 197.29 38.8457 197.29C37.4674 197.29 36.0531 197.411 34.6683 197.411V196.488H35.0987C37.2184 196.488 37.8619 195.055 37.8619 192.61V179.729C37.8619 178.018 36.4453 176.981 35.069 176.981H34.6685V176.063C35.8358 176.063 37.0332 176.183 38.1985 176.183C39.1208 176.183 40.0136 176.063 40.9337 176.063L54.6086 191.382Z" fill="#211E1F"/>
<path d="M56.3864 198L55.119 197.953L39.5289 180.657V192.913C39.5652 195.572 39.9721 196.327 42.2856 196.357H42.9439V196.488V197.54H42.8076C41.4782 197.54 40.1553 197.417 38.8449 197.417C37.4687 197.417 36.0584 197.54 34.6652 197.54H34.5309V197.408V196.357H34.6652H35.0976C37.1278 196.346 37.7073 195.048 37.7307 192.61V179.731C37.7263 178.102 36.3843 177.114 35.0678 177.11H34.5307V176.974V175.931H34.6649C35.839 175.931 37.0424 176.048 38.1949 176.048C39.1088 176.048 39.9995 175.931 41.0347 175.976L54.5368 191.105V179.858C54.5198 177.424 52.8903 177.131 51.9953 177.11H51.1815V176.974V175.931H51.3179C52.7688 175.931 54.1832 176.048 55.619 176.048C56.8695 176.048 58.1286 175.931 59.3983 175.931H59.5325V176.063V177.11H59.3983H58.9402C57.6727 177.146 56.371 177.256 56.335 180.863V194.779C56.335 195.848 56.3668 196.916 56.5161 197.843L56.5459 198H56.3864V198ZM55.2192 197.731H56.2353C56.0971 196.812 56.0734 195.795 56.0734 194.779V180.863C56.0734 177.193 57.6179 176.845 58.9409 176.845H59.2647V176.196C58.0547 176.204 56.8404 176.315 55.6199 176.315C54.2138 176.315 52.8462 176.204 51.4551 176.196L51.4529 176.845H51.9962C52.9399 176.845 54.804 177.265 54.804 179.858L54.7614 191.414L54.6996 191.478L54.5954 191.573L40.9333 176.196C40.0217 176.196 39.131 176.315 38.1958 176.315C37.0688 176.315 35.9163 176.204 34.8021 176.196L34.7957 176.845H35.0684C36.5107 176.845 37.9913 177.941 37.9913 179.731V192.61C37.9913 195.054 37.3074 196.619 35.0983 196.628L34.8021 196.619V197.279C36.1336 197.266 37.5013 197.156 38.8453 197.156C40.128 197.156 41.4041 197.266 42.6735 197.279V196.628H42.286C39.8679 196.619 39.2673 195.572 39.265 192.913V179.968L55.2192 197.731ZM54.5372 191.321V191.31L54.5117 191.289L54.5372 191.321Z" fill="#211E1F"/>
<path d="M64.0005 177.589C61.6933 177.589 61.606 178.141 61.1458 180.371H60.2234C60.3448 179.516 60.4982 178.662 60.5919 177.771C60.7153 176.915 60.7749 176.062 60.7749 175.176H61.5141C61.7613 176.094 62.5284 176.062 63.3614 176.062H79.209C80.0396 176.062 80.8068 176.033 80.8707 175.113L81.6033 175.236C81.484 176.062 81.3604 176.887 81.2667 177.714C81.2113 178.539 81.2113 179.366 81.2113 180.189L80.2868 180.53C80.2228 179.4 80.0695 177.589 78.0137 177.589H72.9754V193.861C72.9754 196.219 74.0514 196.488 75.5212 196.488H76.107V197.411C74.9098 197.411 72.7562 197.29 71.1007 197.29C69.2582 197.29 67.1042 197.411 65.9048 197.411V196.488H66.4906C68.1843 196.488 69.0406 196.337 69.0406 193.924V177.589H64.0005Z" fill="#211E1F"/>
<path d="M76.1119 197.54C74.9017 197.54 72.7522 197.417 71.1011 197.417C69.2605 197.417 67.1112 197.54 65.9052 197.54H65.7774V197.411V196.357H65.9052H66.4911C68.1847 196.316 68.8662 196.295 68.9047 193.924V177.723H64.0007V177.589V177.453H69.1712V193.924C69.1712 196.378 68.1785 196.626 66.4913 196.628H66.0396V197.273C67.2518 197.266 69.3182 197.156 71.1013 197.156C72.7036 197.156 74.757 197.266 75.9713 197.273V196.628H75.5218C74.037 196.626 72.8418 196.263 72.8418 193.861V177.453H78.0143C80.0765 177.462 80.3449 179.207 80.4131 180.341L81.0756 180.097C81.0756 179.3 81.0799 178.501 81.1353 177.695C81.2247 176.908 81.3377 176.128 81.4527 175.348L80.9838 175.269C80.8413 176.16 79.9783 176.204 79.205 176.196H63.3616H63.2018C62.4796 176.196 61.6893 176.162 61.4144 175.308H60.9074C60.9029 176.154 60.8433 176.974 60.7261 177.788C60.6366 178.628 60.496 179.436 60.381 180.244H61.0395C61.444 178.113 61.7084 177.422 64.0005 177.454V177.589V177.723C61.7295 177.763 61.7766 178.145 61.2758 180.405L61.2525 180.509H61.146H60.0702L60.0872 180.35C60.2108 179.493 60.3665 178.641 60.4579 177.75C60.5857 176.902 60.6454 176.054 60.6454 175.176V175.043H60.7753H61.619L61.6403 175.138C61.8512 175.91 62.42 175.914 63.2018 175.927H63.3616H79.205C80.0616 175.914 80.6834 175.901 80.7367 175.102L80.7495 174.957L80.8879 174.987L81.755 175.123L81.7356 175.257C81.612 176.075 81.4908 176.902 81.4014 177.723C81.3396 178.537 81.3396 179.364 81.3396 180.189V180.284L81.2544 180.318L80.1658 180.712L80.1574 180.534C80.0763 179.385 79.9548 177.722 78.0141 177.722H73.11V193.861C73.1377 196.168 74.0578 196.327 75.5214 196.356H76.2414V196.488V197.539L76.1119 197.54Z" fill="#211E1F"/>
<path d="M82.586 196.488H83.0185C84.1222 196.488 85.2913 196.34 85.2913 194.747V178.726C85.2913 177.131 84.1222 176.981 83.0185 176.981H82.586V176.062C84.4564 176.062 87.6564 176.183 90.2316 176.183C92.8181 176.183 96.0072 176.062 98.0947 176.062C98.044 177.375 98.0715 179.398 98.1629 180.74L97.2362 180.986C97.0894 178.999 96.7206 177.411 93.4932 177.411H89.2263V185.42H92.8779C94.7202 185.42 95.1231 184.383 95.3042 182.727H96.2245C96.1651 183.925 96.1329 185.117 96.1329 186.308C96.1329 187.473 96.1648 188.632 96.2245 189.794L95.3042 189.977C95.1231 188.143 95.0296 186.951 92.9075 186.951H89.2265V194.073C89.2265 196.064 91.0011 196.064 92.9695 196.064C96.6569 196.064 98.2824 195.816 99.2051 192.334L100.066 192.544C99.6631 194.168 99.2967 195.786 99.024 197.411C97.0555 197.411 93.5213 197.29 90.7601 197.29C87.9907 197.29 84.3376 197.411 82.586 197.411V196.488Z" fill="#211E1F"/>
<path d="M99.021 197.54C97.0483 197.54 93.5162 197.415 90.7576 197.415C87.9903 197.415 84.3386 197.54 82.5854 197.54H82.4556V197.411V196.488V196.357H82.5854H83.0159C84.1299 196.34 85.1397 196.242 85.1548 194.747V178.726C85.1399 177.233 84.1299 177.133 83.0159 177.11H82.4556V176.981V175.931H82.5854C84.4601 175.931 87.6556 176.048 90.2312 176.048C92.8151 176.048 96.0023 175.931 98.0943 175.931H98.2328L98.2262 176.067C98.2049 176.527 98.1966 177.07 98.1966 177.647C98.1966 178.704 98.2262 179.86 98.2881 180.732L98.2924 180.842L98.1902 180.872L97.1101 181.152L97.1039 180.995C96.9228 179.01 96.6565 177.57 93.4932 177.541H89.3539L89.3494 185.282H92.8775C94.6459 185.265 94.9629 184.364 95.1719 182.717L95.1828 182.596H95.3018H96.3608L96.3587 182.733C96.2993 183.925 96.2605 185.117 96.2605 186.308C96.2605 187.466 96.2993 188.626 96.3587 189.79L96.3608 189.898L96.2501 189.923L95.1828 190.136L95.1719 189.991C94.961 188.125 94.9459 187.103 92.905 187.08L89.3537 187.078V194.073C89.3562 195.931 90.9664 195.92 92.9691 195.931C96.6672 195.909 98.1501 195.731 99.0768 192.296L99.1068 192.173L99.2366 192.197L100.221 192.449L100.191 192.576C99.7949 194.196 99.4262 195.812 99.1512 197.432L99.1258 197.54H99.021ZM98.9083 197.273C99.1746 195.731 99.5257 194.183 99.9032 192.644L99.296 192.491C98.3757 195.914 96.5943 196.219 92.9687 196.196C91.0343 196.196 89.0957 196.196 89.087 194.073V186.817H92.905C95.0498 186.794 95.2697 188.083 95.4207 189.824L96.0856 189.686C96.0257 188.56 95.9983 187.43 95.9983 186.308C95.9983 185.157 96.0257 184.012 96.0856 182.86H95.4207C95.2505 184.453 94.7497 185.572 92.8773 185.551H89.0872V177.273H93.4932C96.6887 177.252 97.2187 178.893 97.3553 180.816L98.018 180.638C97.9648 179.775 97.9281 178.668 97.9281 177.646C97.9281 177.123 97.9411 176.629 97.9582 176.196C95.8706 176.204 92.7601 176.315 90.2314 176.315C87.7069 176.315 84.599 176.204 82.7177 176.196V176.845H83.0157C84.1107 176.845 85.4189 177.036 85.423 178.726V194.747C85.4187 196.433 84.1107 196.62 83.0157 196.628H82.7177V197.273C84.5095 197.27 88.0587 197.156 90.7574 197.156C93.4672 197.156 96.9269 197.27 98.9083 197.273Z" fill="#211E1F"/>
<path d="M104.211 179.302C104.211 177.072 102.984 176.981 102.028 176.981H101.476V176.06C102.46 176.06 104.362 176.183 106.237 176.183C108.08 176.183 109.556 176.06 111.182 176.06C115.05 176.06 118.496 177.101 118.496 181.448C118.496 184.194 116.653 185.878 114.226 186.83L119.477 194.654C120.338 195.947 120.95 196.31 122.458 196.488V197.41C121.444 197.41 120.459 197.289 119.447 197.289C118.495 197.289 117.509 197.41 116.561 197.41C114.196 194.321 112.164 191.017 110.167 187.498H108.146V194.045C108.146 196.403 109.248 196.488 110.66 196.488H111.214V197.411C109.458 197.411 107.684 197.29 105.931 197.29C104.454 197.29 103.01 197.411 101.476 197.411V196.488H102.028C103.169 196.488 104.211 195.975 104.211 194.84V179.302ZM108.146 186.397H109.646C112.72 186.397 114.375 185.235 114.375 181.626C114.375 178.908 112.626 177.163 109.889 177.163C108.966 177.163 108.574 177.258 108.145 177.286V186.397H108.146Z" fill="#211E1F"/>
<path d="M122.458 197.54C121.429 197.54 120.451 197.417 119.441 197.417C118.504 197.417 117.524 197.54 116.453 197.489C114.096 194.412 112.077 191.128 110.091 187.633H108.276V194.041C108.308 196.342 109.237 196.323 110.658 196.357H111.346V196.488V197.54H111.209C109.454 197.54 107.671 197.417 105.926 197.417C104.458 197.417 103.018 197.54 101.476 197.54H101.341V197.409V196.357H101.476H102.028C103.135 196.351 104.068 195.871 104.073 194.841V179.303C104.049 177.132 102.982 177.144 102.028 177.113H101.341V176.981V175.927H101.476C102.471 175.927 104.367 176.048 106.237 176.048C108.071 176.048 109.548 175.927 111.184 175.927C115.055 175.936 118.621 177 118.631 181.44C118.631 184.203 116.797 185.927 114.426 186.89L119.588 194.582C120.447 195.85 120.981 196.166 122.477 196.357L122.59 196.374V196.488V197.54H122.458V197.54ZM108.142 187.366H110.242L110.279 187.434C112.281 190.947 114.298 194.247 116.561 197.279C117.498 197.279 118.484 197.154 119.441 197.154C120.423 197.154 121.369 197.26 122.325 197.275V196.605C120.883 196.426 120.208 195.998 119.369 194.728L114.024 186.766L114.175 186.704C116.578 185.763 118.357 184.128 118.359 181.439C118.357 177.197 115.046 176.213 111.184 176.196C109.563 176.196 108.088 176.317 106.237 176.317C104.433 176.317 102.611 176.204 101.606 176.196V176.845H102.028C102.982 176.847 104.341 177.004 104.341 179.303V194.84C104.341 196.068 103.184 196.628 102.028 196.63H101.606V197.274C103.084 197.27 104.484 197.154 105.926 197.154C107.645 197.154 109.377 197.27 111.077 197.274V196.63H110.658C109.256 196.628 108.008 196.454 108.008 194.041V187.366H108.142H108.142ZM108.142 186.526H108.008V177.163L108.125 177.152C108.545 177.121 108.96 177.034 109.889 177.034C112.688 177.034 114.507 178.844 114.511 181.632C114.503 185.284 112.743 186.524 109.646 186.526H108.142V186.526ZM109.646 186.264C112.688 186.238 114.218 185.187 114.25 181.633C114.233 178.961 112.564 177.303 109.889 177.292C109.058 177.292 108.668 177.369 108.276 177.403V186.264H109.646Z" fill="#211E1F"/>
<path d="M143.316 191.382L143.371 191.323V179.856C143.371 177.345 141.623 176.98 140.702 176.98H140.029V176.062C141.471 176.062 142.882 176.183 144.328 176.183C145.589 176.183 146.844 176.062 148.112 176.062V176.98H147.649C146.359 176.98 144.914 177.224 144.914 180.863V194.781C144.914 195.85 144.944 196.918 145.095 197.866H143.93L128.11 180.312V192.913C128.11 195.574 128.632 196.488 130.996 196.488H131.519V197.411C130.2 197.411 128.877 197.29 127.558 197.29C126.171 197.29 124.759 197.411 123.378 197.411V196.488H123.804C125.926 196.488 126.572 195.055 126.572 192.61V179.729C126.572 178.018 125.159 176.981 123.779 176.981H123.378V176.063C124.542 176.063 125.745 176.183 126.91 176.183C127.827 176.183 128.721 176.063 129.644 176.063L143.316 191.382Z" fill="#211E1F"/>
<path d="M145.096 197.998L143.831 197.955L128.239 180.657V192.911C128.275 195.572 128.68 196.327 130.998 196.357H131.648V196.488V197.54H131.513C130.184 197.54 128.867 197.415 127.551 197.415C126.179 197.415 124.76 197.54 123.377 197.54H123.239V197.411V196.357H123.377H123.804C125.832 196.348 126.413 195.048 126.432 192.602V179.729C126.43 178.1 125.09 177.112 123.778 177.11H123.239V176.981V175.927H123.377C124.549 175.927 125.751 176.048 126.91 176.048C127.813 176.048 128.703 175.927 129.734 175.969L143.239 191.105V179.854C143.23 177.424 141.594 177.123 140.702 177.11H139.89V176.981V175.927H140.024C141.477 175.927 142.891 176.048 144.327 176.048C145.58 176.048 146.839 175.927 148.104 175.927H148.238V176.065V177.11H148.104H147.648C146.381 177.144 145.075 177.256 145.043 180.863V194.779C145.043 195.848 145.071 196.908 145.226 197.849L145.243 197.998H145.096ZM143.929 197.731H144.939C144.804 196.812 144.774 195.795 144.774 194.779V180.863C144.777 177.192 146.332 176.853 147.648 176.843H147.97V176.196C146.764 176.204 145.548 176.315 144.327 176.315C142.917 176.315 141.547 176.204 140.156 176.196V176.843H140.701C141.647 176.853 143.509 177.265 143.509 179.854L143.467 191.414L143.407 191.478L143.313 191.575L129.641 176.196C128.729 176.196 127.838 176.315 126.91 176.315C125.772 176.315 124.624 176.205 123.506 176.196V176.843H123.778C125.22 176.854 126.701 177.937 126.701 179.729V192.601C126.701 195.057 126.007 196.619 123.804 196.628L123.506 196.626V197.273C124.833 197.266 126.203 197.156 127.551 197.156C128.84 197.156 130.116 197.266 131.386 197.273V196.628H130.998C128.578 196.626 127.973 195.572 127.969 192.911V179.972L143.929 197.731ZM143.239 191.323V191.312L143.215 191.289L143.239 191.323Z" fill="#211E1F"/>
<path d="M153.052 193.036C152.741 194.073 152.37 194.874 152.37 195.419C152.37 196.34 153.663 196.488 154.673 196.488H155.016V197.41C153.785 197.344 152.53 197.289 151.292 197.289C150.187 197.289 149.087 197.345 147.98 197.41V196.488H148.165C149.362 196.488 150.378 195.786 150.832 194.499L155.753 180.466C156.149 179.334 156.707 177.805 156.893 176.671C157.871 176.338 159.102 175.727 159.684 175.358C159.78 175.327 159.833 175.295 159.929 175.295C160.021 175.295 160.08 175.295 160.148 175.39C160.238 175.632 160.327 175.91 160.425 176.154L166.077 192.15C166.445 193.218 166.809 194.349 167.208 195.269C167.579 196.125 168.226 196.488 169.243 196.488H169.424V197.41C168.041 197.345 166.657 197.29 165.187 197.29C163.68 197.29 162.14 197.345 160.574 197.41V196.488H160.915C161.618 196.488 162.82 196.369 162.82 195.604C162.82 195.207 162.543 194.382 162.2 193.401L161.005 189.853H154.032L153.052 193.036ZM157.534 179.487H157.472L154.615 188.142H160.357L157.534 179.487Z" fill="#211E1F"/>
<path d="M169.415 197.54C168.032 197.478 166.65 197.415 165.186 197.415C163.68 197.415 162.15 197.478 160.578 197.54L160.44 197.548V197.411V196.352H160.574H160.913C161.624 196.352 162.681 196.191 162.681 195.604C162.689 195.256 162.412 194.417 162.074 193.444L160.904 189.985H154.128L153.173 193.074C152.862 194.118 152.494 194.925 152.496 195.424C152.506 196.17 153.654 196.352 154.673 196.352H155.146V196.49V197.548L155.007 197.54C153.778 197.478 152.523 197.415 151.298 197.415C150.197 197.415 149.089 197.478 147.988 197.54L147.845 197.548V197.411V196.352H147.979H148.163C149.307 196.348 150.261 195.702 150.704 194.457L155.623 180.422C156.026 179.288 156.58 177.763 156.846 176.544C157.809 176.22 159.042 175.605 159.635 175.232C159.72 175.204 159.805 175.162 159.931 175.162C160.006 175.16 160.172 175.179 160.27 175.34C160.357 175.592 160.453 175.864 160.546 176.112L166.205 192.106C166.567 193.179 166.934 194.309 167.334 195.212C167.69 196.029 168.255 196.349 169.243 196.353H169.556V196.491V197.549L169.415 197.54ZM160.708 197.266C162.229 197.213 163.718 197.154 165.186 197.154C166.613 197.154 167.949 197.213 169.285 197.266V196.628H169.242C168.19 196.634 167.463 196.223 167.086 195.322C166.686 194.393 166.311 193.259 165.951 192.188L160.295 176.196C160.201 175.952 160.112 175.675 160.031 175.458C160.005 175.429 160.011 175.429 159.986 175.429H159.93C159.867 175.429 159.83 175.448 159.751 175.469C159.159 175.853 157.926 176.453 157.016 176.692C156.826 177.85 156.275 179.377 155.874 180.509L150.957 194.546C150.489 195.873 149.413 196.63 148.163 196.628H148.114V197.266C149.166 197.213 150.231 197.154 151.298 197.154C152.485 197.154 153.699 197.213 154.871 197.266V196.628H154.673C153.674 196.615 152.276 196.503 152.238 195.424C152.24 194.813 152.617 194.031 152.917 192.998L153.052 193.038L152.917 192.994L153.929 189.724H161.091L162.325 193.358C162.67 194.34 162.949 195.154 162.949 195.604C162.907 196.543 161.609 196.609 160.912 196.628H160.708L160.708 197.266ZM154.428 188.274L157.37 179.353H157.472H157.536H157.628L160.544 188.274H154.428ZM154.796 188.009H160.173L157.499 179.813L154.796 188.009Z" fill="#211E1F"/>
<path d="M170.774 177.589C168.469 177.589 168.378 178.141 167.915 180.371H166.992C167.114 179.516 167.27 178.662 167.366 177.771C167.489 176.915 167.545 176.062 167.545 175.176H168.286C168.531 176.094 169.302 176.062 170.127 176.062H185.983C186.807 176.062 187.574 176.033 187.638 175.113L188.373 175.236C188.256 176.062 188.135 176.887 188.041 177.714C187.975 178.539 187.975 179.366 187.975 180.189L187.054 180.53C186.997 179.4 186.843 177.589 184.783 177.589H179.745V193.861C179.745 196.219 180.823 196.488 182.293 196.488H182.877V197.411C181.68 197.411 179.532 197.29 177.87 197.29C176.03 197.29 173.876 197.411 172.679 197.411V196.488H173.26C174.954 196.488 175.815 196.337 175.815 193.924V177.589H170.774Z" fill="#211E1F"/>
<path d="M182.877 197.54C181.671 197.54 179.519 197.417 177.87 197.417C176.034 197.417 173.882 197.54 172.679 197.54H172.542V197.411V196.357H172.679H173.26C174.954 196.316 175.634 196.295 175.676 193.924L175.672 177.723H170.774V177.589V177.453H175.942V193.924C175.942 196.378 174.947 196.619 173.26 196.626H172.809V197.279C174.025 197.266 176.087 197.156 177.87 197.156C179.474 197.156 181.528 197.266 182.742 197.279V196.626H182.289C180.812 196.619 179.615 196.265 179.611 193.861V177.453H184.783C186.845 177.462 187.116 179.207 187.174 180.341L187.845 180.097C187.845 179.3 187.847 178.501 187.906 177.699C187.992 176.913 188.106 176.128 188.22 175.348L187.755 175.269C187.615 176.16 186.748 176.209 185.983 176.196H170.126H169.971C169.247 176.204 168.463 176.162 168.183 175.303H167.681C167.672 176.151 167.615 176.974 167.493 177.788C167.412 178.63 167.261 179.44 167.146 180.244H167.804C168.211 178.113 168.478 177.421 170.774 177.453V177.589L170.774 177.723C168.497 177.761 168.548 178.145 168.045 180.405L168.021 180.509H167.915H166.837L166.856 180.356C166.984 179.493 167.137 178.641 167.227 177.756C167.352 176.902 167.412 176.054 167.412 175.176V175.042H167.544H168.383L168.409 175.138C168.624 175.91 169.184 175.914 169.971 175.926L170.126 175.931H185.982C186.83 175.914 187.45 175.901 187.503 175.104L187.512 174.958L187.657 174.988L188.528 175.123L188.505 175.257C188.379 176.075 188.262 176.902 188.168 177.723C188.106 178.537 188.106 179.366 188.106 180.189V180.284L188.019 180.318L186.931 180.713L186.924 180.534C186.845 179.385 186.724 177.723 184.783 177.723H179.877V193.861C179.909 196.168 180.827 196.327 182.289 196.356H183.009V196.488V197.54L182.877 197.54Z" fill="#211E1F"/>
<path d="M189.508 196.488H189.938C191.048 196.488 192.209 196.34 192.209 194.747V178.726C192.209 177.131 191.048 176.981 189.938 176.981H189.508V176.062C190.707 176.062 192.548 176.183 194.049 176.183C195.592 176.183 197.435 176.062 198.879 176.062V176.981H198.449C197.343 176.981 196.171 177.131 196.171 178.726V194.747C196.171 196.34 197.343 196.488 198.449 196.488H198.879V197.411C197.403 197.411 195.558 197.29 194.026 197.29C192.518 197.29 190.707 197.411 189.508 197.411V196.488Z" fill="#211E1F"/>
<path d="M198.88 197.54C197.395 197.54 195.557 197.415 194.025 197.415C192.523 197.415 190.708 197.54 189.509 197.54H189.375V197.411V196.488V196.357H189.509H189.939C191.049 196.34 192.067 196.244 192.072 194.747V178.726C192.067 177.233 191.049 177.131 189.939 177.11H189.375V176.981V175.931H189.509C190.708 175.931 192.553 176.048 194.05 176.048C195.582 176.048 197.425 175.931 198.88 175.931H199.01V176.062V177.11H198.88H198.45C197.327 177.131 196.319 177.233 196.304 178.726V194.747C196.319 196.244 197.327 196.34 198.45 196.357H199.01V196.488V197.54H198.88ZM198.742 197.273V196.626H198.45C197.348 196.626 196.045 196.433 196.045 194.747V178.726C196.045 177.036 197.348 176.845 198.45 176.845H198.742V176.196C197.323 176.204 195.548 176.315 194.05 176.315C192.595 176.315 190.834 176.204 189.643 176.196V176.845H189.939C191.032 176.845 192.34 177.036 192.344 178.726V194.747C192.34 196.433 191.032 196.626 189.939 196.626H189.643V197.273C190.828 197.26 192.566 197.156 194.025 197.156C195.514 197.156 197.293 197.266 198.742 197.273Z" fill="#211E1F"/>
<path d="M211.131 175.604C217.679 175.604 222.899 179.646 222.899 186.157C222.899 193.193 217.83 197.868 211.29 197.868C204.771 197.868 199.799 193.464 199.799 186.889C199.799 180.53 204.742 175.604 211.131 175.604ZM211.595 196.522C217.556 196.522 218.593 191.289 218.593 186.83C218.593 182.36 216.173 176.949 211.071 176.949C205.694 176.949 204.098 181.72 204.098 185.814C204.098 191.289 206.617 196.522 211.595 196.522Z" fill="#211E1F"/>
<path d="M199.662 186.889C199.675 180.456 204.677 175.479 211.129 175.471V175.604V175.734C204.815 175.734 199.928 180.596 199.922 186.889C199.937 193.39 204.839 197.728 211.289 197.73C217.765 197.728 222.761 193.118 222.772 186.151C222.765 179.722 217.625 175.742 211.13 175.734V175.604V175.471C217.729 175.475 223.019 179.557 223.032 186.151C223.026 193.261 217.891 197.985 211.289 197.997C204.719 197.985 199.675 193.536 199.662 186.889H199.662V186.889ZM203.965 185.814C203.974 181.701 205.588 176.811 211.072 176.811C216.287 176.824 218.722 182.337 218.73 186.83C218.722 191.289 217.668 196.649 211.596 196.649V196.522V196.39C217.438 196.382 218.45 191.289 218.464 186.83C218.464 182.396 216.065 177.089 211.072 177.082C205.801 177.089 204.242 181.741 204.232 185.814C204.236 191.261 206.731 196.378 211.596 196.39V196.522V196.649C206.496 196.643 203.974 191.321 203.965 185.814Z" fill="#211E1F"/>
<path d="M243.601 191.382L243.663 191.323V179.856C243.663 177.345 241.908 176.98 240.985 176.98H240.321V176.062C241.761 176.062 243.173 176.183 244.613 176.183C245.876 176.183 247.135 176.062 248.397 176.062V176.98H247.932C246.645 176.98 245.199 177.224 245.199 180.863V194.781C245.199 195.85 245.229 196.918 245.385 197.866H244.219L228.395 180.312V192.913C228.395 195.574 228.915 196.488 231.279 196.488H231.805V197.411C230.483 197.411 229.164 197.29 227.843 197.29C226.46 197.29 225.044 197.411 223.661 197.411V196.488H224.093C226.218 196.488 226.855 195.055 226.855 192.61V179.729C226.855 178.018 225.448 176.981 224.061 176.981H223.661V176.063C224.828 176.063 226.028 176.183 227.193 176.183C228.116 176.183 229.004 176.063 229.929 176.063L243.601 191.382Z" fill="#211E1F"/>
<path d="M245.387 197.998L244.115 197.953L228.527 180.657V192.913C228.561 195.572 228.968 196.325 231.275 196.352H231.94V196.49V197.54H231.806C230.474 197.54 229.156 197.417 227.843 197.417C226.465 197.417 225.054 197.54 223.659 197.54H223.531V197.408V196.352H223.659H224.094C226.12 196.346 226.701 195.049 226.727 192.61V179.729C226.722 178.1 225.382 177.112 224.062 177.11H223.531V176.981V175.931H223.659C224.837 175.931 226.034 176.048 227.193 176.048C228.105 176.048 228.991 175.931 230.031 175.976L243.529 191.105V179.858C243.52 177.424 241.884 177.131 240.985 177.11H240.178V176.981V175.932H240.316C241.763 175.932 243.179 176.048 244.608 176.048C245.87 176.048 247.123 175.932 248.396 175.932H248.528V176.063V177.11H248.396H247.932C246.668 177.146 245.361 177.261 245.335 180.863V194.779C245.335 195.848 245.358 196.914 245.508 197.849L245.533 197.998H245.387V197.998ZM244.22 197.731H245.225C245.091 196.812 245.067 195.795 245.067 194.779V180.863C245.067 177.186 246.616 176.853 247.933 176.843H248.265V176.196C247.053 176.204 245.839 176.315 244.61 176.315C243.212 176.315 241.838 176.204 240.447 176.196V176.843H240.986C241.938 176.853 243.791 177.271 243.791 179.858L243.758 191.414L243.7 191.478L243.602 191.575L229.93 176.196C229.024 176.196 228.127 176.315 227.194 176.315C226.063 176.315 224.91 176.205 223.792 176.196V176.843H224.062C225.505 176.854 226.989 177.937 226.989 179.729V192.61C226.989 195.055 226.304 196.62 224.094 196.628L223.792 196.626V197.273C225.125 197.266 226.493 197.156 227.844 197.156C229.124 197.156 230.396 197.266 231.672 197.273V196.628H231.276C228.865 196.626 228.262 195.572 228.262 192.913V179.968L244.22 197.731ZM243.529 191.323V191.312L243.503 191.289L243.529 191.323Z" fill="#211E1F"/>
<path d="M253.334 193.036C253.033 194.073 252.66 194.874 252.66 195.419C252.66 196.34 253.954 196.488 254.961 196.488H255.304V197.41C254.075 197.344 252.814 197.289 251.585 197.289C250.475 197.289 249.373 197.345 248.272 197.41V196.488H248.447C249.65 196.488 250.669 195.786 251.122 194.499L256.044 180.466C256.44 179.334 256.996 177.805 257.175 176.671C258.159 176.338 259.386 175.727 259.976 175.358C260.063 175.327 260.125 175.295 260.219 175.295C260.311 175.295 260.368 175.295 260.43 175.39C260.524 175.632 260.62 175.91 260.711 176.154L266.361 192.15C266.729 193.218 267.096 194.349 267.501 195.269C267.869 196.125 268.517 196.488 269.527 196.488H269.714V197.41C268.33 197.345 266.947 197.29 265.471 197.29C263.968 197.29 262.431 197.345 260.862 197.41V196.488H261.204C261.904 196.488 263.11 196.369 263.11 195.604C263.11 195.207 262.831 194.382 262.488 193.401L261.295 189.853H254.32L253.334 193.036ZM257.824 179.487H257.763L254.902 188.142H260.651L257.824 179.487Z" fill="#211E1F"/>
<path d="M269.701 197.54C268.318 197.485 266.938 197.417 265.47 197.417C263.972 197.417 262.435 197.485 260.866 197.54L260.73 197.548V197.408V196.357H260.862H261.197C261.912 196.357 262.971 196.191 262.973 195.604C262.98 195.256 262.703 194.423 262.36 193.443L261.193 189.985H254.412L253.461 193.074C253.155 194.122 252.788 194.925 252.795 195.42C252.795 196.17 253.945 196.357 254.961 196.357H255.43V196.488V197.548L255.294 197.54C254.064 197.485 252.807 197.417 251.585 197.417C250.483 197.417 249.379 197.485 248.272 197.54L248.137 197.548V197.408V196.357H248.272H248.447C249.592 196.352 250.551 195.697 250.999 194.457L255.916 180.422C256.307 179.288 256.861 177.763 257.134 176.548C258.099 176.215 259.332 175.605 259.929 175.231C260.01 175.204 260.093 175.168 260.219 175.168C260.3 175.159 260.457 175.178 260.555 175.346C260.647 175.586 260.736 175.863 260.839 176.111L266.488 192.105C266.855 193.178 267.223 194.308 267.622 195.218C267.981 196.028 268.542 196.348 269.522 196.357H269.841V196.488V197.548L269.701 197.54ZM260.994 197.27C262.513 197.213 264.009 197.154 265.47 197.154C266.9 197.154 268.24 197.213 269.577 197.266L269.573 196.628H269.522C268.482 196.63 267.756 196.223 267.375 195.322C266.97 194.393 266.604 193.259 266.237 192.192L260.583 176.196C260.491 175.952 260.398 175.674 260.323 175.467C260.297 175.428 260.3 175.428 260.276 175.428H260.219C260.155 175.428 260.12 175.45 260.046 175.471C259.447 175.846 258.216 176.457 257.306 176.692C257.117 177.85 256.559 179.374 256.163 180.509L251.244 194.546C250.777 195.873 249.703 196.63 248.446 196.628H248.401V197.266C249.458 197.213 250.515 197.154 251.584 197.154C252.775 197.154 253.987 197.213 255.17 197.266V196.628H254.961C253.962 196.615 252.56 196.507 252.524 195.419C252.53 194.813 252.911 194.035 253.208 192.998L253.333 193.038L253.208 192.993L254.22 189.724H261.384L262.615 193.358C262.954 194.342 263.233 195.154 263.233 195.604C263.188 196.543 261.899 196.609 261.196 196.628H260.994V197.27H260.994ZM254.718 188.272L257.665 179.353H257.758H257.824H257.92L260.824 188.272H254.718ZM255.087 188.009H260.46L257.788 179.818L255.087 188.009Z" fill="#211E1F"/>
<path d="M277.455 194.412C277.455 195.636 278.307 196 279.292 196.125C280.551 196.219 281.933 196.219 283.352 196.064C284.639 195.909 285.747 195.176 286.296 194.412C286.786 193.738 287.063 192.881 287.248 192.209H288.139C287.802 193.952 287.372 195.669 287.001 197.41C284.304 197.41 281.595 197.289 278.895 197.289C276.188 197.289 273.489 197.41 270.785 197.41V196.488H271.207C272.319 196.488 273.521 196.34 273.521 194.442V178.726C273.521 177.131 272.319 176.981 271.207 176.981H270.785V176.062C272.408 176.062 274.008 176.183 275.634 176.183C277.206 176.183 278.74 176.062 280.308 176.062V176.981H279.534C278.371 176.981 277.455 177.014 277.455 178.63V194.412Z" fill="#211E1F"/>
<path d="M287.001 197.54C284.294 197.54 281.591 197.417 278.896 197.417C276.19 197.417 273.486 197.54 270.779 197.54H270.649V197.408V196.357H270.779H271.207C272.321 196.331 273.374 196.255 273.386 194.442V178.72C273.374 177.233 272.328 177.131 271.207 177.11H270.649V176.981V175.931H270.779C272.413 175.931 274.013 176.048 275.636 176.048C277.195 176.048 278.729 175.931 280.308 175.931H280.434V176.063V177.11H280.308H279.537C278.346 177.144 277.605 177.089 277.581 178.631V194.413C277.589 195.551 278.34 195.859 279.298 195.992C279.841 196.03 280.41 196.054 281.003 196.054C281.754 196.054 282.536 196.018 283.329 195.933C284.581 195.787 285.659 195.068 286.188 194.338C286.661 193.685 286.934 192.846 287.117 192.178L287.144 192.076H287.247H288.301L288.273 192.237C287.926 193.987 287.505 195.696 287.132 197.436L287.106 197.54H287.002H287.001V197.54ZM286.891 197.273C287.246 195.615 287.649 193.992 287.979 192.338H287.349C287.157 193.004 286.884 193.825 286.401 194.493C285.828 195.286 284.69 196.032 283.358 196.195C282.553 196.278 281.756 196.32 281.002 196.32C280.408 196.32 279.831 196.293 279.275 196.255C278.276 196.144 277.306 195.72 277.311 194.412V178.63C277.311 176.932 278.39 176.845 279.537 176.845H280.171V176.196C278.657 176.204 277.166 176.317 275.636 176.317C274.045 176.317 272.489 176.204 270.913 176.196V176.845H271.207C272.304 176.845 273.646 177.036 273.646 178.719V194.442C273.646 196.42 272.31 196.626 271.207 196.626H270.913V197.273C273.569 197.27 276.226 197.156 278.895 197.156C281.565 197.156 284.232 197.27 286.891 197.273Z" fill="#211E1F"/>
<path d="M287.766 175.193C289.617 175.193 291 176.609 291 178.424C291 180.231 289.617 181.635 287.766 181.635C285.915 181.635 284.53 180.231 284.53 178.424C284.53 176.61 285.914 175.193 287.766 175.193ZM287.766 181.035C289.212 181.035 290.325 179.805 290.325 178.424C290.325 177.036 289.229 175.795 287.766 175.795C286.311 175.795 285.199 177.036 285.199 178.424C285.199 179.805 286.311 181.035 287.766 181.035ZM286.155 180.121V179.962C286.554 179.907 286.626 179.919 286.626 179.673V177.29C286.626 176.955 286.59 176.841 286.17 176.858V176.694H287.826C288.396 176.694 288.918 176.964 288.918 177.549C288.918 178.028 288.599 178.382 288.153 178.52L288.684 179.258C288.933 179.593 289.212 179.907 289.398 180.017V180.121H288.767C288.465 180.121 288.2 179.487 287.604 178.636H287.246V179.707C287.246 179.919 287.32 179.906 287.719 179.962V180.121L286.155 180.121ZM287.246 178.424H287.627C288.045 178.424 288.241 178.109 288.241 177.602C288.241 177.089 287.938 176.908 287.606 176.908H287.246V178.424Z" fill="#211E1F"/>
</svg>
