<svg width="310" height="210" viewBox="0 0 310 210" fill="none" xmlns="http://www.w3.org/2000/svg">
<rect x="2.5" y="2.5" width="305" height="205" rx="22.5" stroke="black" stroke-width="5"/>
<rect x="12" y="13" width="288" height="185" rx="12" fill="#E06928"/>
<rect x="14" y="57" width="124" height="75" fill="black"/>
<path d="M191.5 91L196 121.5C220.833 120.833 270.7 119.5 271.5 119.5C272.3 119.5 291.5 117.167 301 116L293.5 58.5C261 57.6667 195.5 56 193.5 56C191.5 56 182.333 59 178 60.5L191.5 91Z" fill="black"/>
<path d="M45.7553 89.5058C45.7553 93.9328 44.1928 97.5786 41.0678 100.443C38.5504 102.7 34.6876 103.829 29.4792 103.829H27.2657V75.1828H29.4792C34.7742 75.1828 38.6371 76.3547 41.0678 78.6985C44.1928 81.3895 45.7553 84.9919 45.7553 89.5058ZM277.005 81.0422C277.005 85.5561 274.227 87.813 268.672 87.813H266.197V74.662H268.801C274.27 74.662 277.005 76.7887 277.005 81.0422ZM54.4793 89.5058C54.4793 83.0821 52.3091 77.8521 47.9688 73.8158C43.6284 69.7793 38.0294 67.761 31.1718 67.761H18.8021V111.12H31.1718C37.5954 111.12 42.7604 109.471 46.6668 106.172C51.8751 101.745 54.4793 96.1898 54.4793 89.5058ZM58.3855 111.12H66.849V67.761H58.3855V111.12ZM100.052 97.9693C100.052 94.4971 99.1623 91.8061 97.3828 89.8963C95.6033 87.9866 92.3264 86.1637 87.552 84.4275C85.0347 83.5592 83.3203 82.7342 82.4088 81.9525C81.4971 81.1708 81.0413 80.1725 81.0413 78.9575C81.0413 77.5692 81.6271 76.419 82.7988 75.507C83.9704 74.5953 85.4678 74.1395 87.291 74.1395C89.8083 74.1395 92.1087 75.3113 94.192 77.655L98.619 71.9258C95.06 68.7141 90.8065 67.1083 85.8585 67.1083C82.0392 67.1083 78.8274 68.3018 76.2233 70.6888C73.6191 73.0759 72.317 76.0057 72.317 79.478C72.317 82.5162 73.0979 84.925 74.6595 86.7045C76.2212 88.484 78.9989 90.0682 82.9928 91.457C86.2046 92.5853 88.1578 93.4103 88.8523 93.932C90.5023 94.9737 91.3273 96.4493 91.3273 98.359C91.3273 100.095 90.7198 101.549 89.5048 102.721C88.2898 103.893 86.7273 104.478 84.8173 104.478C80.6506 104.478 77.569 102.569 75.5725 98.7493L70.1038 103.958C73.9231 109.513 78.9144 112.291 85.0775 112.291C89.5047 112.291 93.1072 110.967 95.885 108.32C98.6627 105.672 100.052 102.223 100.052 97.9693ZM136.25 109.688V99.662C133.038 102.874 129.653 104.48 126.094 104.48C121.84 104.48 118.346 103.069 115.612 100.248C112.878 97.4268 111.511 93.8461 111.511 89.5058C111.511 85.3391 112.878 81.8018 115.612 78.8938C118.346 75.9858 121.71 74.5318 125.703 74.5318C129.436 74.5318 132.951 76.1811 136.25 79.4797V69.4537C132.778 67.7176 129.306 66.8495 125.833 66.8495C119.41 66.8495 113.963 69.0413 109.492 73.425C105.022 77.8087 102.787 83.1689 102.787 89.5058C102.787 95.8426 105 101.203 109.427 105.586C113.854 109.97 119.28 112.162 125.703 112.162C129.349 112.162 132.865 111.338 136.25 109.688ZM296.667 188.334V119.714C291.024 123.186 284.753 126.832 277.852 130.652C270.951 134.471 260.642 139.549 246.927 145.886C233.212 152.223 218.911 158.19 204.024 163.789C189.136 169.388 171.016 175.226 149.662 181.303C128.307 187.379 106.432 192.501 84.0365 196.667H288.333C290.59 196.667 292.543 195.842 294.193 194.192C295.843 192.542 296.667 190.59 296.667 188.334ZM185.859 89.7662C185.859 83.2557 183.559 77.7002 178.958 73.0995C174.358 68.4988 168.802 66.1985 162.292 66.1985C155.781 66.1985 150.226 68.4988 145.625 73.0995C141.024 77.7002 138.724 83.2557 138.724 89.7662C138.724 96.2766 141.024 101.832 145.625 106.433C150.226 111.033 155.781 113.334 162.292 113.334C168.802 113.334 174.358 111.033 178.958 106.433C183.559 101.832 185.859 96.2766 185.859 89.7662ZM205.651 112.292L224.401 67.761H215.156L203.438 96.9275L191.849 67.761H182.604L201.094 112.292H205.651ZM228.177 111.12H252.135V103.828H236.641V92.1093H251.615V84.8177H236.641V75.1823H252.135V67.7605H228.177V111.12ZM279.089 111.12H289.505L275.833 92.8907C282.431 91.5024 285.729 87.4225 285.729 80.651C285.729 76.5712 284.384 73.4028 281.693 71.1458C279.002 68.8889 275.226 67.7605 270.365 67.7605H257.734V111.12H266.198V93.802H267.37L279.089 111.12ZM305 22.448V187.552C305 192.413 303.329 196.536 299.987 199.922C296.645 203.307 292.587 205 287.812 205H22.1875C17.4132 205 13.355 203.307 10.013 199.922C6.67101 196.536 5 192.413 5 187.552V22.448C5 17.5868 6.67101 13.4636 10.013 10.0782C13.355 6.69275 17.4132 5 22.1875 5H287.812C292.587 5 296.645 6.69275 299.987 10.0782C303.329 13.4636 305 17.5868 305 22.448Z" fill="white"/>
</svg>
