<svg width="311" height="210" viewBox="0 0 311 210" fill="none" xmlns="http://www.w3.org/2000/svg">
<rect width="311" height="210" rx="20" fill="white"/>
<path d="M189.29 145.399H120.583V26.189H189.29V145.399Z" fill="#7375CF"/>
<path d="M125.028 85.794C125.028 61.6331 136.712 40.0478 155 26.189C141.665 16.0096 124.774 10 106.486 10C63.179 10 28 43.9724 28 85.794C28 127.616 63.179 161.588 106.486 161.588C124.774 161.588 141.665 155.578 155 145.399C136.712 131.54 125.028 109.955 125.028 85.794Z" fill="#EB001B"/>
<path d="M282 85.794C282 127.616 246.821 161.588 203.514 161.588C185.226 161.588 168.335 155.578 155 145.399C173.288 131.54 184.972 109.955 184.972 85.794C184.972 61.6331 173.288 40.0478 155 26.189C168.335 16.0096 185.226 9.99999 203.514 9.99999C246.821 9.99999 282 43.9724 282 85.794Z" fill="#00A2E5"/>
<path d="M212.404 179.126C213.293 179.126 214.69 179.249 215.579 179.617L214.182 183.787C213.166 183.419 212.277 183.296 211.388 183.296C208.467 183.296 206.943 185.136 206.943 188.447V199.73H202.371V179.617H206.816V182.07C208.086 180.23 209.864 179.126 212.404 179.126ZM195.64 183.541H188.274V192.617C188.274 194.579 189.036 195.928 191.322 195.928C192.465 195.928 193.989 195.56 195.386 194.825L196.656 198.627C195.259 199.608 192.973 200.221 190.941 200.221C185.607 200.221 183.702 197.4 183.702 192.74V183.541H179.511V179.494H183.702V173.362H188.274V179.494H195.64V183.541ZM137.601 187.834C138.109 184.89 139.887 182.928 143.189 182.928C146.11 182.928 148.015 184.645 148.523 187.834H137.601ZM153.222 189.674C153.222 183.419 149.158 179.126 143.316 179.126C137.22 179.126 132.902 183.419 132.902 189.674C132.902 196.051 137.347 200.221 143.57 200.221C146.745 200.221 149.539 199.485 152.079 197.4L149.793 194.211C148.015 195.56 145.856 196.296 143.697 196.296C140.776 196.296 138.109 194.947 137.474 191.391H152.968C153.095 190.777 153.222 190.287 153.222 189.674ZM173.161 184.768C171.891 184.032 169.351 183.051 166.684 183.051C164.144 183.051 162.747 183.909 162.747 185.381C162.747 186.73 164.271 187.098 166.303 187.343L168.462 187.589C173.034 188.202 175.701 190.041 175.701 193.598C175.701 197.4 172.272 200.221 166.176 200.221C162.747 200.221 159.572 199.362 157.159 197.645L159.318 194.211C160.842 195.315 163.128 196.296 166.303 196.296C169.351 196.296 171.002 195.438 171.002 193.843C171.002 192.74 169.859 192.126 167.319 191.758L165.16 191.513C160.461 190.9 157.921 188.815 157.921 185.626C157.921 181.579 161.35 179.126 166.557 179.126C169.859 179.126 172.907 179.862 175.066 181.211L173.161 184.768ZM229.041 183.173C228.152 183.173 227.263 183.296 226.501 183.664C225.739 184.032 224.977 184.4 224.469 185.013C223.961 185.626 223.453 186.239 223.072 187.098C222.691 187.834 222.564 188.815 222.564 189.674C222.564 190.655 222.691 191.513 223.072 192.249C223.453 192.985 223.834 193.721 224.469 194.334C225.104 194.947 225.739 195.315 226.501 195.683C227.263 196.051 228.152 196.174 229.041 196.174C229.93 196.174 230.819 196.051 231.581 195.683C232.343 195.315 233.105 194.947 233.613 194.334C234.248 193.721 234.629 193.108 235.01 192.249C235.391 191.513 235.518 190.532 235.518 189.674C235.518 188.692 235.391 187.834 235.01 187.098C234.629 186.362 234.248 185.626 233.613 185.013C232.978 184.4 232.343 184.032 231.581 183.664C230.819 183.419 229.93 183.173 229.041 183.173ZM229.041 179.126C230.692 179.126 232.216 179.371 233.486 179.985C234.883 180.475 236.026 181.211 237.042 182.192C238.058 183.173 238.82 184.277 239.455 185.504C239.963 186.853 240.344 188.202 240.344 189.674C240.344 191.145 240.09 192.617 239.455 193.843C238.947 195.192 238.058 196.296 237.042 197.155C236.026 198.136 234.883 198.872 233.486 199.362C232.089 199.853 230.565 200.221 229.041 200.221C227.39 200.221 225.866 199.976 224.596 199.362C223.199 198.872 222.056 198.136 221.04 197.155C220.024 196.174 219.262 195.07 218.627 193.843C218.119 192.494 217.738 191.145 217.738 189.674C217.738 188.202 217.992 186.73 218.627 185.504C219.135 184.155 220.024 183.051 221.04 182.192C222.056 181.211 223.199 180.475 224.596 179.985C225.866 179.371 227.39 179.126 229.041 179.126ZM111.185 189.674C111.185 186.117 113.598 183.173 117.535 183.173C121.345 183.173 123.758 185.994 123.758 189.674C123.758 193.353 121.218 196.051 117.535 196.051C113.598 196.051 111.185 193.23 111.185 189.674ZM128.076 189.674V179.617H123.504V182.07C122.107 180.23 119.948 179.126 116.9 179.126C111.058 179.126 106.486 183.541 106.486 189.674C106.486 195.806 111.058 200.221 116.9 200.221C119.821 200.221 121.98 199.117 123.504 197.277V199.73H128.076V189.674ZM102.549 199.73V187.098C102.549 182.315 99.374 179.126 94.294 179.126C91.627 179.126 88.833 179.862 86.928 182.683C85.531 180.475 83.245 179.126 80.07 179.126C77.911 179.126 75.625 179.739 73.974 182.07V179.617H69.402V199.73H73.974V188.57C73.974 185.136 76.006 183.173 79.054 183.173C82.102 183.173 83.626 185.013 83.626 188.447V199.608H88.198V188.447C88.198 185.013 90.357 183.051 93.278 183.051C96.326 183.051 97.85 184.89 97.85 188.324V199.485H102.549V199.73Z" fill="black"/>
<path d="M245.17 198.136V198.627H245.678C245.805 198.627 245.932 198.627 245.932 198.504C246.059 198.504 246.059 198.381 246.059 198.259C246.059 198.136 246.059 198.136 245.932 198.136C245.932 198.136 245.805 198.013 245.678 198.013H245.17V198.136ZM245.678 197.891C245.932 197.891 246.059 197.891 246.186 198.013C246.313 198.136 246.44 198.259 246.44 198.504C246.44 198.627 246.44 198.749 246.313 198.872C246.186 198.994 246.059 198.994 245.805 198.994L246.44 199.73H245.932L245.297 198.994H245.17V199.73H244.789V197.891H245.678ZM245.551 200.344C245.805 200.344 245.932 200.344 246.186 200.221C246.44 200.098 246.567 199.976 246.694 199.853C246.821 199.73 246.948 199.608 247.075 199.362C247.202 199.117 247.202 198.994 247.202 198.749C247.202 198.504 247.202 198.381 247.075 198.136C246.948 197.891 246.821 197.768 246.694 197.645C246.567 197.523 246.44 197.4 246.186 197.277C246.059 197.155 245.805 197.155 245.551 197.155C245.297 197.155 245.17 197.155 244.916 197.277C244.662 197.4 244.535 197.523 244.408 197.645C244.281 197.768 244.154 198.013 244.027 198.136C243.9 198.381 243.9 198.504 243.9 198.749C243.9 198.994 243.9 199.117 244.027 199.362C244.154 199.608 244.281 199.73 244.408 199.853C244.535 199.976 244.789 200.098 244.916 200.221C245.17 200.344 245.297 200.344 245.551 200.344ZM245.551 196.787C245.805 196.787 246.059 196.787 246.313 196.909C246.567 197.032 246.821 197.155 246.948 197.277C247.075 197.4 247.329 197.645 247.456 197.891C247.583 198.136 247.583 198.381 247.583 198.627C247.583 198.872 247.583 199.117 247.456 199.362C247.329 199.608 247.202 199.853 246.948 199.976C246.694 200.098 246.567 200.344 246.313 200.466C246.059 200.589 245.805 200.589 245.551 200.589C245.297 200.589 244.916 200.589 244.662 200.466C244.408 200.344 244.154 200.221 244.027 199.976C243.9 199.853 243.646 199.608 243.519 199.362C243.392 199.117 243.392 198.872 243.392 198.627C243.392 198.381 243.392 198.136 243.519 197.891C243.646 197.645 243.773 197.4 244.027 197.277C244.154 197.155 244.408 196.909 244.662 196.909C244.916 196.787 245.297 196.787 245.551 196.787Z" fill="black"/>
</svg>
