<svg width="311" height="210" viewBox="0 0 311 210" fill="none" xmlns="http://www.w3.org/2000/svg">
<rect width="311" height="210" rx="20" fill="white"/>
<path d="M187.473 27.6782H123.337V142.905H187.473V27.6782Z" fill="#FF5A00"/>
<path d="M127.606 85.2916C127.606 61.881 138.612 41.1032 155.5 27.6782C143.071 17.906 127.393 12 110.292 12C69.7796 12 37 44.7796 37 85.2916C37 125.804 69.7796 158.583 110.292 158.583C127.393 158.583 143.071 152.677 155.5 142.905C138.588 129.67 127.606 108.702 127.606 85.2916Z" fill="#EB001B"/>
<path d="M274 85.2916C274 125.804 241.22 158.583 200.708 158.583C183.607 158.583 167.929 152.677 155.5 142.905C172.601 129.456 183.394 108.702 183.394 85.2916C183.394 61.881 172.388 41.1032 155.5 27.6782C167.905 17.906 183.583 12 200.685 12C241.22 12 274 44.9931 274 85.2916Z" fill="#F79E1B"/>
<path d="M79.9551 195.656V183.441C79.9551 178.768 77.1088 175.708 72.2227 175.708C69.7796 175.708 67.1231 176.515 65.2967 179.171C63.8736 176.942 61.8338 175.708 58.774 175.708C56.7342 175.708 54.6943 176.325 53.0815 178.555V176.112H48.812V195.656H53.0815V184.864C53.0815 181.401 54.9078 179.764 57.7541 179.764C60.6004 179.764 62.0235 181.591 62.0235 184.864V195.656H66.2929V184.864C66.2929 181.401 68.3328 179.764 70.9656 179.764C73.8118 179.764 75.235 181.591 75.235 184.864V195.656H79.9551ZM143.285 176.112H136.359V170.206H132.089V176.112H128.223V179.978H132.089V188.944C132.089 193.426 133.916 196.059 138.802 196.059C140.628 196.059 142.668 195.443 144.091 194.636L142.858 190.96C141.624 191.766 140.201 191.98 139.181 191.98C137.141 191.98 136.335 190.746 136.335 188.73V179.978H143.261V176.112H143.285ZM179.527 175.685C177.084 175.685 175.448 176.918 174.428 178.531V176.088H170.158V195.632H174.428V184.627C174.428 181.377 175.851 179.527 178.507 179.527C179.314 179.527 180.334 179.741 181.164 179.93L182.397 175.851C181.543 175.685 180.334 175.685 179.527 175.685ZM124.76 177.724C122.72 176.301 119.874 175.685 116.814 175.685C111.928 175.685 108.679 178.128 108.679 181.994C108.679 185.243 111.122 187.093 115.391 187.686L117.431 187.9C119.661 188.303 120.894 188.92 120.894 189.94C120.894 191.363 119.257 192.383 116.411 192.383C113.565 192.383 111.312 191.363 109.888 190.343L107.849 193.592C110.078 195.229 113.138 196.036 116.198 196.036C121.89 196.036 125.163 193.379 125.163 189.726C125.163 186.263 122.507 184.437 118.451 183.82L116.411 183.607C114.585 183.393 113.162 182.99 113.162 181.78C113.162 180.357 114.585 179.551 116.838 179.551C119.281 179.551 121.724 180.571 122.958 181.187L124.76 177.724ZM238.35 175.685C235.907 175.685 234.271 176.918 233.251 178.531V176.088H228.981V195.632H233.251V184.627C233.251 181.377 234.674 179.527 237.33 179.527C238.137 179.527 239.157 179.741 239.987 179.93L241.22 175.898C240.39 175.685 239.181 175.685 238.35 175.685ZM183.797 185.884C183.797 191.79 187.876 196.059 194.186 196.059C197.032 196.059 199.072 195.443 201.112 193.83L199.072 190.367C197.435 191.6 195.822 192.193 193.972 192.193C190.509 192.193 188.066 189.75 188.066 185.884C188.066 182.207 190.509 179.764 193.972 179.575C195.799 179.575 197.435 180.191 199.072 181.401L201.112 177.938C199.072 176.301 197.032 175.708 194.186 175.708C187.876 175.685 183.797 179.978 183.797 185.884ZM223.289 185.884V176.112H219.019V178.555C217.596 176.728 215.556 175.708 212.9 175.708C207.397 175.708 203.128 179.978 203.128 185.884C203.128 191.79 207.397 196.059 212.9 196.059C215.746 196.059 217.786 195.039 219.019 193.213V195.656H223.289V185.884ZM207.611 185.884C207.611 182.421 209.84 179.575 213.517 179.575C216.98 179.575 219.423 182.231 219.423 185.884C219.423 189.347 216.98 192.193 213.517 192.193C209.864 191.98 207.611 189.323 207.611 185.884ZM156.52 175.685C150.827 175.685 146.748 179.764 146.748 185.86C146.748 191.98 150.827 196.036 156.733 196.036C159.58 196.036 162.426 195.229 164.679 193.379L162.639 190.319C161.003 191.553 158.963 192.359 156.947 192.359C154.29 192.359 151.658 191.126 151.041 187.686H165.486C165.486 187.07 165.486 186.667 165.486 186.05C165.675 179.764 161.999 175.685 156.52 175.685ZM156.52 179.361C159.176 179.361 161.003 180.998 161.406 184.034H151.231C151.634 181.401 153.46 179.361 156.52 179.361ZM262.591 185.884V168.379H258.322V178.555C256.899 176.728 254.859 175.708 252.202 175.708C246.699 175.708 242.43 179.978 242.43 185.884C242.43 191.79 246.699 196.059 252.202 196.059C255.049 196.059 257.088 195.039 258.322 193.213V195.656H262.591V185.884ZM246.913 185.884C246.913 182.421 249.142 179.575 252.819 179.575C256.282 179.575 258.725 182.231 258.725 185.884C258.725 189.347 256.282 192.193 252.819 192.193C249.142 191.98 246.913 189.323 246.913 185.884ZM103.982 185.884V176.112H99.713V178.555C98.2898 176.728 96.25 175.708 93.5935 175.708C88.0907 175.708 83.8212 179.978 83.8212 185.884C83.8212 191.79 88.0907 196.059 93.5935 196.059C96.4397 196.059 98.4796 195.039 99.713 193.213V195.656H103.982V185.884ZM88.1144 185.884C88.1144 182.421 90.344 179.575 94.0204 179.575C97.4834 179.575 99.9264 182.231 99.9264 185.884C99.9264 189.347 97.4834 192.193 94.0204 192.193C90.344 191.98 88.1144 189.323 88.1144 185.884Z" fill="black"/>
</svg>
