<?xml version="1.0" encoding="UTF-8"?>
<svg id="Capa_2" data-name="Capa 2" xmlns="http://www.w3.org/2000/svg" viewBox="0 0 962 352.71">
  <g id="Capa_2-2" data-name="Capa 2">
    <g>
      <g>
        <path d="m866.54,36.56c-.07.19-.14.38-.21.58-.16.47-.31.94-.43,1.42-.06.22-.12.44-.17.67-.11.49-.2.99-.27,1.49-.03.21-.07.42-.1.64-.08.71-.13,1.44-.13,2.18,0,10.74,8.7,19.44,19.43,19.44.69,0,1.36-.04,2.03-.11.15-.02.3-.05.46-.07.51-.07,1.03-.14,1.53-.24.13-.03.26-.07.39-.1.52-.12,1.03-.25,1.53-.41.09-.03.18-.07.26-.1.54-.18,1.07-.38,1.59-.61.04-.02.08-.04.13-.06.56-.25,1.1-.52,1.64-.82,0,0,.01,0,.02-.01,5.88-3.34,9.85-9.65,9.85-16.9,0-10.73-8.7-19.43-19.43-19.43-4.45,0-8.54,1.51-11.81,4.03h0s0,0-.01,0c-2.27,1.75-4.15,3.98-5.46,6.55-.06.12-.12.25-.18.37-.24.49-.46.99-.66,1.5Z" style="fill: #2c2c2c;"/>
        <path d="m585.07,13.9c2.42-7.26-3.23-12.64-8.07-13.45-4.84-.81-16.38-1.17-26.86,4.58-10.94,5.99-19.39,29.84-27.46,50.28-8.07,20.44-28.08,66.62-29.5,70.2-3.18,7.97-6.11,7.54-3.6-1.22,3.66-12.75,19.92-70.32,17.15-85.46-3.86-21.08-20.62-20.31-41.24-19.4-12.12.53-17.05,7.82-19.05,15.13-1.4,3.51-1.97,7.24-2.19,10.41-.59,8.46.51,37.41-12.26,76.46-11.96,35.13-35.17,78.03-80.55,121.41-51.09,48.84-115.25,71.36-176.85,75.59-74.12,5.07-137.33-25.71-145.25-85.09-4.78-35.81,21.49-56.71,39.77-66.54,6.69-3.42,11.73-5.13,12.72-5.46,1.46-.48,2.88-1.12,4.23-1.92,7.55-3.51,14.01-11.35,11.76-22.63-2.51-12.55-16.85-17.93-27.61-13.63-4.31,1.72-17.75,8.51-31.64,20.85C17.41,162.38-5.38,193.68,1.13,239.73c13.71,96.88,131.48,117.6,229.45,96.56-.02-.09-.05-.18-.08-.26,21.77-4.68,42.08-11.27,60.35-19.6,4.77-2.18,9.48-4.49,14.14-6.9,64.26-32.66,105.28-80.87,130.5-124.82.06.13.12.26.21.38,1.72-2.27,2.78-1.25,1.95,2.51-6.94,31.54-11.19,48.42-13.01,72.92-1.61,21.6,17.88,21.24,27.97,18.94,4.73-1.08,7.77-3.13,10.2-6.52-.05-.04-.11-.07-.16-.11,8.24-9.43,9.02-31.47,35.19-77.54.84-1.48,1.52-2.53,2.06-3.18,0,0,0,0,.01,0,.14,0,.26-.03.38-.08.13.81-.06,2.46-.57,4.97-10.96,53.91-11.07,118.62-10.91,135.06.11,11.67,8.22,20.66,23.82,20.66,9.62,0,15.99-3.54,19.47-8.66,2.85-3.4,4.21-7.68,4.21-12.16,0-10.22-5.01-89.43,13.01-180.32,18.02-90.89,33.34-130.41,35.76-137.67Zm-146.82,167.7c.25.02.44.22.55.58-.14-.1-.29-.19-.46-.27-.07-.03-.13-.04-.2-.07.05-.08.08-.16.11-.24Z" style="fill: #2c2c2c;"/>
        <path d="m947.99,147.64c-10.24,1.44-8.62,17.56-5.93,37.18,2.69,19.62-8.26,76.68-42.92,76.68-.73,0-1.45-.03-2.15-.07h0c-35.73-1.97-30.57-53.21-25.28-80,5.39-27.31,14.66-62.94,18.31-76.45,4.58-16.94-1.99-26.55-12.82-26.1-2.61.11-4.87.56-6.89,1.36h0s0,0,0,0c-.15.06-.29.13-.43.19-.23.1-.45.19-.67.3-.17.08-.33.17-.49.26-.19.1-.38.2-.56.31-.16.1-.33.2-.49.3-.18.11-.35.23-.52.34-.16.11-.31.22-.47.33-.17.13-.34.26-.51.39-.15.12-.29.23-.44.35-.19.16-.37.33-.55.5-.19.18-.38.36-.56.55-.2.2-.4.41-.6.63-.13.15-.26.3-.39.45-.15.17-.29.34-.44.52-.13.17-.26.34-.39.51-.14.18-.27.36-.4.55-.13.18-.26.36-.38.55-.13.19-.26.39-.39.59-.12.19-.24.38-.36.57-.13.22-.27.45-.4.67-.11.19-.22.38-.33.57-.22.4-.45.82-.67,1.24-.1.2-.21.42-.31.63-.13.26-.25.51-.38.78-.11.24-.22.48-.33.72-.11.25-.23.5-.34.76-.11.25-.22.51-.33.77-.11.27-.23.54-.34.81-.11.26-.21.52-.32.79-.12.29-.23.59-.35.89-.1.26-.2.52-.3.79-.13.36-.27.73-.4,1.1-.14.39-.29.79-.43,1.2-.14.4-.28.8-.42,1.21-.1.29-.2.59-.3.89-.12.35-.23.69-.35,1.05-.1.32-.21.64-.31.96-.11.35-.23.7-.34,1.06-.1.33-.21.66-.31,1-.12.38-.24.76-.36,1.15-.1.33-.2.66-.3.99-.13.43-.26.87-.39,1.3-.09.3-.18.6-.27.91-.21.72-.43,1.45-.65,2.19-.11.37-.22.75-.33,1.12-.13.43-.25.86-.38,1.29-.14.46-.27.93-.41,1.4-.11.36-.21.72-.32,1.09-.25.85-.5,1.72-.76,2.61-.09.3-.17.59-.26.89-.18.61-.36,1.24-.55,1.87-.1.33-.19.66-.29.99-.27.93-.55,1.86-.83,2.82-10.49,35.48-30.63,90.36-56.31,92.93-.42.04-.82.04-1.22.04-.31,0-.62-.03-.93-.06h0c-15.11-1.58-14.92-38.05,1.99-80.86,16.68-42.2,18.51-48.38,20.72-54.72,5.21-14.97.23-25.56-13.48-25.15-4.51.14-8.45,1.3-11.91,3.13-.54.29-1.07.59-1.59.91-.19.12-.38.23-.56.35-.45.29-.89.59-1.33.9-.12.08-.23.16-.35.25-.52.39-1.03.79-1.53,1.21-.16.13-.31.27-.47.4-.39.34-.78.69-1.16,1.04-.12.11-.25.23-.37.34-.47.45-.93.92-1.38,1.39-.13.13-.25.27-.37.4-.36.39-.71.78-1.06,1.18-.12.13-.23.27-.35.4-.43.5-.84,1.01-1.25,1.53-.09.12-.18.24-.28.36-.34.43-.66.87-.99,1.31-.11.15-.22.29-.32.44-.39.54-.77,1.07-1.14,1.62-.06.08-.11.17-.17.25-.33.48-.65.97-.96,1.45-.1.15-.19.3-.29.45-.35.55-.7,1.1-1.04,1.65-6.16,10-21.2,39.99-28.51,48.84-.21.25-.4.47-.58.67-.06.07-.12.13-.18.19-.12.13-.23.25-.34.36-.06.06-.12.12-.17.17-.11.11-.21.2-.31.29-.04.03-.08.07-.12.1-.13.1-.24.19-.35.25-.04.03-.08.04-.11.06-.06.04-.13.07-.18.09-.04.01-.08.03-.11.03-.05.01-.09.01-.13.01-.03,0-.06,0-.09,0-.05-.01-.09-.03-.13-.06-.03-.03-.06-.06-.09-.1-.02-.03-.04-.05-.05-.09-.02-.04-.03-.09-.05-.14,0-.03-.02-.07-.02-.11-.01-.06-.02-.12-.03-.2,0-.02,0-.05,0-.08-.01-.29.01-.64.08-1.06,0-.01,0-.03,0-.04.02-.15.05-.3.08-.46h0c.81-4.27,4.37-13.23,6.03-17.25,2.69-6.54,8.46-20.39,3.85-25.78-4.62-5.39-15.61-6.5-22.96-2.98-8.12,3.88-10.57,11.1-17.88,23.8-7.31,12.69-13.02,23.8-15.33,25.34-.14.1-.27.16-.38.21-.1.04-.19.05-.26.05,0,0-.02,0-.03,0-.49-.04-.48-.94-.2-2.44,0,0,0,0,0,0,.38-2.02,1.25-5.11,2.03-8.6,1.54-6.92,6.16-25.01,0-30.01-3.37-2.73-10.39-3.07-17.56,1.18,0,0,0,0,0,0-.01,0-.02.01-.03.02-.35.21-.71.43-1.06.66-.02.01-.04.03-.06.04-.36.24-.72.49-1.08.75,0,0-.01,0-.02.01-1.82,1.33-3.63,2.97-5.36,4.96-.03.04-.07.07-.1.11-.26.3-.52.62-.78.94-.11.14-.22.27-.33.41-.23.29-.45.58-.67.88-.14.19-.28.38-.42.57-.2.28-.4.57-.6.87-.15.23-.31.46-.46.69-.19.28-.37.57-.55.87-.16.26-.32.53-.48.8-.17.29-.34.58-.51.87-.17.3-.33.61-.5.91-.16.29-.31.58-.46.87-.17.34-.34.69-.51,1.04-.14.28-.28.56-.41.86-.19.41-.37.83-.56,1.26-.11.25-.22.5-.33.76-.29.69-.57,1.4-.84,2.12-7.34,19.64-14.52,44.37-43.09,91.52-.62,1.02-1.23,2-1.85,2.96-.11.18-.23.35-.34.53-.6.92-1.19,1.81-1.79,2.67-.11.16-.22.32-.33.48-1.24,1.78-2.48,3.45-3.71,5-.1.13-.21.27-.32.4-.6.75-1.19,1.46-1.79,2.15-.1.11-.2.22-.29.34-1.24,1.42-2.47,2.72-3.69,3.9-.08.08-.17.16-.25.24-.6.57-1.19,1.11-1.79,1.63-.07.06-.14.12-.21.18-1.23,1.05-2.45,1.97-3.64,2.75-.05.03-.09.06-.14.09-.6.39-1.19.74-1.78,1.06-.03.02-.06.03-.08.04-1.21.65-2.39,1.15-3.54,1.5,0,0-.01,0-.02,0-1.75.53-3.41.7-4.98.51h0c-1.68-.21-3.25-.83-4.67-1.9-8.43-6.36.86-25.17,9.94-42.94,6.84-13.4,14.84-30.95,17.92-38.25,3.08-7.31,6.3-22.28-6.69-25.77-3.29-.89-6.93-.48-10.58,1.36h0c-.76.39-1.52.83-2.28,1.35-.05.03-.09.06-.14.1-.33.22-.65.46-.98.7-.06.04-.12.09-.17.13-.36.28-.72.57-1.07.88,0,0,0,0-.01.01-.38.33-.76.68-1.14,1.04,0,0-.01.01-.02.02-.35.33-.69.68-1.03,1.04-.07.08-.15.16-.22.24-.28.31-.57.62-.85.95-.08.09-.15.18-.23.27-.32.38-.65.78-.96,1.19-.02.03-.04.05-.06.08-.35.45-.69.92-1.03,1.4-.06.09-.12.18-.18.26-.27.38-.53.78-.8,1.19-.1.15-.19.3-.29.45-.24.37-.47.75-.7,1.14-.09.15-.18.31-.28.46-.29.49-.57.99-.85,1.5-.03.05-.06.1-.09.16-.31.57-.61,1.16-.9,1.76-.08.17-.16.34-.25.51-.21.44-.42.89-.63,1.34-.1.22-.2.43-.29.65-.2.45-.4.91-.59,1.38-.09.21-.17.41-.26.62-.27.67-.54,1.36-.81,2.06-7.31,19.62-43.14,92.61-9.23,111.95.55.31,1.1.59,1.65.85.17.08.33.15.5.22.4.18.8.34,1.21.49.18.07.35.13.53.19.45.16.91.29,1.37.42.11.03.21.06.32.09.57.14,1.14.26,1.71.35.12.02.25.03.37.05.45.07.91.12,1.36.16.17.01.33.02.5.03.45.03.9.04,1.34.04.13,0,.26,0,.4,0,.59-.01,1.18-.04,1.77-.1,0,0,0,0,0,0,.58-.06,1.16-.14,1.74-.24.13-.02.27-.05.4-.07.47-.09.95-.19,1.42-.3.13-.03.25-.06.38-.09,1.2-.31,2.4-.69,3.6-1.15.07-.03.13-.05.2-.08.54-.21,1.07-.44,1.6-.67.1-.05.2-.09.3-.14.57-.26,1.13-.53,1.7-.82.02-.01.05-.02.07-.04,1.23-.63,2.46-1.34,3.68-2.11.06-.04.13-.08.19-.12.56-.36,1.13-.73,1.69-1.11.03-.02.05-.03.08-.05h0c20.86-14.35,39.54-46.13,44.06-55.02.76-1.5,1.45-2.62,2.04-3.42.2-.27.4-.51.58-.7,0,0,.02-.02.02-.03.09-.09.16-.16.24-.23.04-.03.08-.07.11-.1.07-.06.14-.11.21-.15.03-.02.07-.04.1-.05.06-.03.13-.06.18-.07.03,0,.05,0,.07,0,.1,0,.19.02.27.09.02.02.04.02.05.04.03.04.05.09.08.14.02.04.04.08.05.13.02.06.03.13.04.2,0,.07.02.14.02.21,0,.08.01.16.01.25,0,.11,0,.23-.02.36,0,.13-.02.26-.04.41-.02.17-.05.36-.08.56-.02.11-.05.24-.07.36-.04.18-.07.36-.12.55-.03.14-.06.28-.1.42-.05.22-.11.44-.18.68-.04.14-.07.27-.11.41-.11.39-.23.79-.38,1.23-3.35,10.36-13.95,36.03-14.8,39.47-2.3,9.38-.77,18.3,13.85,18.46.56,0,1.1-.03,1.64-.09.14-.02.29-.03.43-.05.45-.06.9-.15,1.34-.25.08-.02.17-.03.26-.06.52-.13,1.03-.3,1.53-.49.1-.04.19-.08.29-.12.43-.17.86-.36,1.28-.58.08-.04.17-.08.25-.12,1-.52,1.96-1.15,2.89-1.86.05-.04.1-.07.15-.11,7.98-6.21,12.92-18.43,15.17-22.65,3.08-5.77,18.43-39.21,20.22-43.27.45-1.03.93-2,1.37-2.83.11-.2.21-.39.32-.57.02-.04.04-.07.06-.11.11-.19.22-.37.32-.53,0,0,0,0,0,0,.11-.17.21-.32.31-.46.01-.02.03-.04.04-.06.1-.14.19-.26.28-.37.01-.01.02-.03.04-.04.18-.22.35-.37.49-.46,0,0,.02-.01.03-.02.07-.04.13-.06.19-.06,0,0,.01,0,.02,0,.06,0,.11.02.15.07,0,0,0,0,0,0,.04.04.07.11.1.2,0,.01,0,.02,0,.03.02.09.04.21.05.35h0c0,.16,0,.33,0,.52,0,0,0,.01,0,.02-.01.2-.04.42-.07.67,0,.02,0,.05-.01.08-.07.51-.18,1.13-.34,1.87,0,.04-.01.07-.02.11-.08.36-.17.76-.27,1.18-.01.06-.03.12-.05.18-.11.44-.22.89-.36,1.39-3.35,12.59-9.23,35.39-10.39,39.24-1.15,3.84-4.88,19.75,9.24,21.93.76.12,1.49.2,2.21.27.19.02.38.04.57.05.66.06,1.31.1,1.94.11.06,0,.11,0,.17,0,.67.02,1.32,0,1.96-.02.17,0,.34-.02.52-.03.57-.03,1.13-.08,1.68-.14.07,0,.14-.01.2-.02.6-.08,1.19-.18,1.76-.29.14-.03.28-.06.42-.09.52-.11,1.02-.24,1.52-.38.06-.02.12-.03.17-.05.55-.16,1.08-.35,1.6-.55.11-.04.21-.08.32-.13.48-.19.95-.4,1.4-.62.04-.02.08-.04.13-.06.5-.25.99-.52,1.47-.8.07-.04.14-.09.22-.13.45-.27.89-.56,1.32-.86.02-.02.05-.03.07-.05.46-.33.91-.68,1.35-1.04.04-.03.08-.07.12-.1.43-.36.85-.73,1.25-1.12,0,0,.01-.01.02-.02.43-.41.85-.84,1.25-1.28,0,0,.02-.02.03-.03,3.53-3.84,6.28-8.79,8.84-14.2,3.24-6.85,13.66-29.22,18.66-41.53,1.87-4.61,3.85-8.19,5.35-9.92,0,0,0,0,0,0,.15-.17.3-.33.44-.47.02-.02.04-.03.05-.05.12-.11.23-.2.33-.28.03-.02.06-.05.1-.07.09-.07.19-.12.27-.16.03-.01.06-.03.08-.04.22-.09.42-.1.58-.02.02.01.04.03.06.04.06.04.11.08.16.14.02.03.04.05.06.09.05.07.09.15.12.24.01.04.03.07.04.11.09.28.15.65.17,1.13,0,.06,0,.13,0,.19,0,.19,0,.38,0,.6,0,.09,0,.18-.01.27-.01.22-.03.46-.05.71,0,.09-.02.18-.03.28-.07.71-.19,1.52-.36,2.44-.02.12-.05.26-.07.39-.06.35-.14.71-.21,1.08-.04.17-.07.34-.11.52-.08.38-.17.78-.27,1.19-.04.17-.08.33-.12.51-.14.59-.29,1.2-.45,1.85-4.62,18.08-4.19,55.6,23.85,61.17,1.06.21,2.11.38,3.15.52.35.05.69.07,1.04.11.69.08,1.38.15,2.06.2.4.03.79.04,1.19.06.62.03,1.24.05,1.86.05.4,0,.8,0,1.2-.01.61-.01,1.21-.04,1.82-.08.38-.02.77-.05,1.14-.08.63-.05,1.26-.13,1.88-.21.33-.04.67-.08,1-.13.75-.11,1.49-.25,2.22-.4.19-.04.39-.07.59-.11.95-.2,1.89-.43,2.82-.69.07-.02.15-.05.22-.07.84-.24,1.67-.5,2.5-.78.22-.08.44-.16.65-.24.68-.24,1.35-.5,2.02-.77.24-.1.47-.2.71-.3.65-.28,1.3-.56,1.94-.87.22-.1.43-.21.65-.31.68-.33,1.35-.68,2.02-1.03.16-.09.32-.17.48-.26.79-.43,1.57-.88,2.33-1.35.03-.02.06-.03.08-.05,3.36-2.06,6.53-4.44,9.49-7.02,0,0,0,0,0,0h0c8.76-7.65,15.78-17.12,20.91-25.53,6.6-10.81,7.14-12.2,6.37-3.74-.77,8.46-8.53,65.88,42.25,69.72,50.79,3.85,77.58-50.6,77.58-89.07,0-23.85-2.69-41.99-14.01-40.41Z" style="fill: #2c2c2c;"/>
        <path d="m596.93,81c-.08.2-.15.39-.22.59-.16.46-.3.93-.43,1.41-.06.23-.12.45-.18.68-.11.49-.19.98-.27,1.48-.03.22-.07.43-.1.65-.08.72-.13,1.44-.13,2.18,0,10.73,8.7,19.43,19.43,19.43.69,0,1.37-.04,2.03-.11.17-.02.33-.05.5-.08.5-.07,1-.14,1.49-.24.15-.03.29-.08.44-.11.5-.12,1-.24,1.48-.4.11-.04.22-.08.32-.12.52-.18,1.03-.37,1.53-.59.07-.03.13-.07.2-.1.53-.24,1.06-.5,1.57-.79.03-.02.06-.04.09-.06.54-.31,1.06-.64,1.56-1,0,0,.02-.01.02-.02.52-.37,1.02-.77,1.51-1.19,0,0,0,0,0,0,.48-.42.94-.87,1.38-1.33,0,0,0,0,.01-.01h0c3.27-3.48,5.28-8.14,5.28-13.29,0-10.73-8.7-19.43-19.43-19.43-7.54,0-14.06,4.3-17.28,10.57-.06.13-.12.26-.18.38-.24.49-.46.99-.65,1.5Z" style="fill: #2c2c2c;"/>
      </g>
      <g id="JOYERÃA">
        <path d="m574.75,305.93v-.89h13.88v.89h-1.18c-1.33,0-2.3.39-2.89,1.18-.38.48-.57,1.7-.57,3.68v15.85c0,2.5-.27,11.09-.82,12.57-.26.74-.62,1.45-1.09,2.12-.47.68-1.02,1.28-1.66,1.8-.64.53-1.36.94-2.16,1.25-.8.31-1.66.47-2.59.47-.76,0-1.44-.1-2.03-.3-.59-.2-1.09-.47-1.5-.82-.41-.35-.72-.74-.95-1.18-.23-.44-.34-.9-.34-1.38,0-.9.26-1.55.78-1.93.52-.38,1.07-.57,1.64-.57.24,0,.47.03.7.07.23.05.45.18.68.39.23.22.47.54.71.97.25.43.53,1.01.84,1.75.36.86.83,1.28,1.43,1.28.43,0,.83-.26,1.2-.78.37-.52.55-1.45.55-2.78v-28.77c0-.76-.01-1.38-.04-1.86-.02-.47-.08-.87-.18-1.18-.1-.31-.23-.55-.41-.73-.18-.18-.41-.35-.7-.52-.71-.38-1.43-.57-2.14-.57h-1.18Z" style="fill: #2c2c2c;"/>
        <path d="m634.87,304.33c2.07,0,4.04.43,5.93,1.28,1.88.86,3.53,2.03,4.96,3.53,1.43,1.5,2.57,3.27,3.41,5.3.85,2.03,1.27,4.24,1.27,6.62s-.42,4.72-1.27,6.82c-.84,2.09-1.99,3.91-3.42,5.44-1.44,1.53-3.13,2.74-5.07,3.61-1.94.87-4,1.3-6.19,1.3s-4.28-.42-6.21-1.25c-1.93-.83-3.6-2-5.02-3.52-1.41-1.51-2.53-3.31-3.35-5.41-.82-2.09-1.23-4.4-1.23-6.92,0-2.33.41-4.52,1.23-6.57.82-2.05,1.95-3.83,3.39-5.34,1.44-1.51,3.14-2.7,5.12-3.59,1.98-.88,4.13-1.32,6.46-1.32Zm-.46,1.75c-1.64,0-3.1.35-4.37,1.06-1.27.7-2.34,1.7-3.21,3-.87,1.3-1.53,2.87-1.98,4.71-.45,1.84-.68,3.92-.68,6.23s.22,4.37.66,6.26c.44,1.89,1.09,3.52,1.96,4.89.87,1.37,1.95,2.43,3.23,3.18,1.28.75,2.76,1.12,4.43,1.12,1.5,0,2.88-.28,4.16-.86,1.27-.57,2.39-1.46,3.33-2.66.95-1.2,1.7-2.73,2.23-4.6.54-1.87.8-4.1.8-6.69,0-2.45-.22-4.65-.66-6.59-.44-1.94-1.11-3.58-2-4.93-.89-1.34-2-2.37-3.32-3.07-1.32-.7-2.85-1.06-4.58-1.06Z" style="fill: #2c2c2c;"/>
        <path d="m701.87,305.04h11.31v.89h-.64c-.9,0-1.88.41-2.93,1.23-1.05.82-2.2,2.24-3.46,4.26l-7.82,12.31v8.14c0,1.09.08,1.96.23,2.59.15.63.38,1.1.68,1.41.3.31.66.51,1.11.59.44.08.95.13,1.52.13h1.03v.89h-13.77v-.89h1.18c.57,0,1.07-.05,1.5-.15.43-.09.78-.3,1.07-.62.28-.32.5-.79.64-1.41.14-.62.21-1.46.21-2.53v-7.71l-8.89-13.56c-.55-.81-.99-1.46-1.34-1.95-.35-.49-.61-.84-.8-1.05-.1-.1-.26-.24-.48-.43-.23-.19-.5-.37-.84-.55-.34-.18-.7-.34-1.11-.48-.41-.15-.83-.22-1.28-.22v-.89h13.85v.89h-.72c-.36,0-.71.04-1.07.13-.36.08-.68.21-.97.37-.28.17-.52.39-.69.66-.18.27-.27.59-.27.95-.03.28.09.68.36,1.19.26.51.63,1.15,1.11,1.91l6.75,10.46,6.39-9.99c.9-1.45,1.38-2.57,1.43-3.35-.05-.33-.13-.64-.23-.93-.11-.28-.28-.53-.54-.73-.25-.2-.57-.36-.98-.48-.4-.12-.92-.18-1.53-.18v-.89Z" style="fill: #2c2c2c;"/>
        <path d="m750.35,306.83v12.81h7.1c1.05,0,1.89-.1,2.53-.29.64-.19,1.15-.47,1.52-.86.37-.38.63-.87.77-1.46.14-.59.24-1.3.28-2.11h.89v11.28h-.89c-.12-.93-.26-1.7-.41-2.32-.15-.62-.4-1.11-.75-1.48-.35-.37-.83-.63-1.45-.79-.62-.15-1.45-.23-2.5-.23h-7.1v10.7c0,.81.01,1.45.04,1.93.02.47.12.84.29,1.09.16.25.43.41.78.48.35.07.88.11,1.57.11h5.5c.93,0,1.71-.02,2.36-.07.64-.05,1.19-.14,1.66-.28.46-.15.87-.34,1.23-.59.36-.25.74-.57,1.14-.95.95-.93,1.96-2.41,3.03-4.46h.96l-2.82,8.14h-24.98v-.89h1.14c.31,0,.63-.04.97-.11.33-.07.65-.17.95-.3.3-.13.56-.3.8-.52.24-.21.4-.47.5-.75.19-.52.29-1.57.29-3.14v-21.06c0-2.07-.2-3.34-.61-3.82-.57-.64-1.53-.96-2.89-.96h-1.14v-.89h24.98v7.1h-.57c-.24-1.17-.49-2.1-.77-2.8-.27-.7-.64-1.24-1.09-1.62-.45-.38-1.03-.62-1.73-.73-.7-.11-1.6-.16-2.7-.16h-8.89Z" style="fill: #2c2c2c;"/>
        <path d="m831.13,337.48h-8.64l-10.99-15.17c-.4.02-.76.04-1.09.06-.32,0-.61.02-.87.02-.21,0-.44,0-.68-.02-.24-.01-.49-.03-.75-.06v9.42c0,1.14.08,2.04.23,2.7.16.65.38,1.14.68,1.46.3.32.65.52,1.07.59.41.07.88.11,1.41.11h1.28v.89h-13.92v-.89h1.25c1.33,0,2.31-.44,2.93-1.32.33-.53.5-1.7.5-3.53v-20.95c0-2-.23-3.26-.68-3.78-.62-.71-1.54-1.07-2.75-1.07h-1.25v-.89h11.81c1.74,0,3.23.06,4.5.2,1.26.13,2.3.33,3.11.59.81.26,1.57.62,2.29,1.09.71.46,1.34,1.02,1.87,1.68s.96,1.38,1.27,2.2c.31.81.46,1.68.46,2.6,0,2.02-.64,3.76-1.93,5.21-1.28,1.45-3.3,2.49-6.03,3.11l6.67,9.28c.78,1.07,1.48,1.95,2.09,2.64.61.69,1.21,1.24,1.82,1.64.61.4,1.25.7,1.93.89.68.19,1.48.33,2.41.43v.89Zm-23.02-16.67c.31,0,.58,0,.8.02.23.01.41.02.55.02,1.55,0,2.9-.18,4.07-.54,1.17-.36,2.14-.86,2.93-1.5.78-.64,1.37-1.4,1.77-2.27.39-.87.59-1.81.59-2.84s-.17-1.92-.5-2.76c-.33-.85-.81-1.57-1.43-2.18-.62-.61-1.36-1.08-2.21-1.41-.86-.33-1.79-.5-2.82-.5s-2.22.15-3.75.46v13.49Z" style="fill: #2c2c2c;"/>
        <path d="m873.83,336.59v.89h-13.88v-.89h1.14c.57,0,1.08-.04,1.52-.13.44-.08.8-.29,1.09-.61.28-.32.5-.81.66-1.46.15-.66.23-1.54.23-2.66v-20.95c0-.74-.02-1.35-.05-1.84-.04-.49-.1-.88-.18-1.19-.08-.31-.21-.55-.37-.73-.16-.18-.39-.35-.68-.52-.71-.38-1.45-.57-2.21-.57h-1.14v-.89h13.88v.89h-1.14c-.57,0-1.08.05-1.52.14-.44.1-.8.3-1.09.63-.29.32-.51.81-.66,1.46-.15.66-.23,1.53-.23,2.62v20.95c0,.76,0,1.38.04,1.86.02.47.08.87.18,1.18.09.31.23.55.41.73.18.18.41.35.7.52.66.38,1.39.57,2.18.57h1.14Zm-1.57-42.08l-7.07,8.24h-.82l2.5-8.24h5.39Z" style="fill: #2c2c2c;"/>
        <path d="m922.77,326.63h-12.56l-2.21,5.1c-.52,1.26-.78,2.2-.78,2.82,0,.26.04.5.13.72.08.21.26.41.53.59.27.18.66.33,1.14.47.49.13,1.14.22,1.95.27v.89h-10.21v-.89c.81-.12,1.46-.3,1.96-.54.5-.24.93-.56,1.28-.98.35-.42.68-.96.98-1.62.3-.67.66-1.49,1.09-2.46l11.42-26.66h.82l11.28,26.94c.45,1.12.87,2.02,1.27,2.7.39.68.8,1.21,1.21,1.59.41.38.87.64,1.36.78.49.14,1.08.23,1.77.25v.89h-12.81v-.89c1.28-.05,2.16-.26,2.62-.63.47-.37.7-.81.7-1.34-.02-.69-.35-1.81-.97-3.35l-1.96-4.64Zm-.68-1.78l-5.49-13.1-5.64,13.1h11.13Z" style="fill: #2c2c2c;"/>
      </g>
      <g>
        <path d="m223.84,179.23v-18.2h-67.59L230.44,27.26v127.17h17.4v6.6h-17.4v18.2h-6.6Zm0-24.79V50.25l-57.79,104.18h57.79Z" style="fill: #2c2c2c;"/>
        <path d="m337.82,181.83h-3c-20.66,0-38.49-7.73-53.49-23.2-15-15.46-22.5-33.62-22.5-54.49s7.6-38.92,22.79-54.19c15.2-15.26,33.46-22.9,54.79-22.9s39.59,7.6,54.79,22.8c15.2,15.2,22.79,33.46,22.79,54.79,0,13.47-3.4,26.13-10.2,37.99-6.8,11.87-16.1,21.36-27.89,28.49-11.8,7.13-24.5,10.7-38.09,10.7Zm69.59-77.28c0-19.66-6.97-36.52-20.9-50.59-13.93-14.06-30.66-21.09-50.19-21.09s-36.23,7.03-50.09,21.09c-13.87,14.07-20.8,30.93-20.8,50.59s6.93,36.49,20.8,50.49c13.86,14,30.56,20.99,50.09,20.99s36.26-7,50.19-20.99c13.93-14,20.9-30.83,20.9-50.49Z" style="fill: #2c2c2c;"/>
      </g>
      <g>
        <path d="m185.55,201.16v24.77h-1.76v-6.17c-1.03,2.09-2.57,3.74-4.62,4.95-2.06,1.21-4.26,1.82-6.61,1.82-3.6,0-6.68-1.27-9.25-3.83-2.57-2.55-3.85-5.61-3.85-9.17s1.28-6.62,3.85-9.17c2.57-2.55,5.65-3.83,9.25-3.83,2.35,0,4.6.62,6.74,1.87,2.15,1.25,3.64,2.9,4.49,4.95v-6.22h1.76Zm-24.33,12.44c0,3.08,1.13,5.75,3.38,8.01,2.26,2.26,4.94,3.39,8.04,3.39s5.75-1.13,7.96-3.39c2.2-2.26,3.3-4.94,3.3-8.04s-1.11-5.79-3.33-8.06c-2.22-2.28-4.87-3.41-7.95-3.41s-5.75,1.15-8.01,3.44c-2.26,2.29-3.38,4.98-3.38,8.06Z" style="fill: #2c2c2c;"/>
        <path d="m222,225.94h-1.76v-24.77h1.76v5.01c1.87-3.74,5.07-5.61,9.58-5.61,3.08,0,5.67,1.06,7.76,3.19,2.09,2.13,3.14,4.72,3.14,7.76v14.42h-1.76v-14.42c0-2.53-.89-4.73-2.67-6.61-1.78-1.87-3.94-2.81-6.47-2.81s-4.76.94-6.69,2.81c-1.93,1.87-2.89,4.07-2.89,6.61v14.42Zm13.76-30.11c-1.06,0-2.5-.5-4.32-1.51-1.82-1.01-3.28-1.5-4.38-1.49-1.1.02-2.24,1-3.41,2.94h-1.71c1.43-2.94,3.18-4.4,5.23-4.4h.5c1.1,0,2.48.49,4.13,1.46,1.65.97,2.98,1.46,3.99,1.46s2.08-.9,3.22-2.7h1.71c-1.73,2.83-3.38,4.24-4.95,4.24Z" style="fill: #2c2c2c;"/>
        <path d="m279.58,222.61c-2.53-2.62-3.8-5.68-3.8-9.17s1.28-6.51,3.85-9.06c2.57-2.55,5.66-3.83,9.28-3.83s6.7,1.27,9.25,3.83c2.55,2.55,3.83,5.58,3.83,9.08s-1.25,6.56-3.74,9.17c-2.5,2.61-5.52,3.91-9.08,3.91h-.5c-3.52,0-6.55-1.31-9.08-3.94Zm20.64-9.03c0-3.1-1.11-5.79-3.33-8.06-2.22-2.28-4.87-3.41-7.95-3.41s-5.75,1.15-8.01,3.44c-2.26,2.29-3.38,4.98-3.38,8.06s1.13,5.75,3.38,8.01c2.26,2.26,4.94,3.39,8.04,3.39s5.75-1.13,7.96-3.39c2.2-2.26,3.3-4.94,3.3-8.04Z" style="fill: #2c2c2c;"/>
        <path d="m340.14,202.04c-.96,0-1.8.31-2.53.94-.73.62-1.1,1.4-1.1,2.31s.41,1.76,1.24,2.53,1.82,1.48,2.97,2.12c1.16.64,2.32,1.33,3.5,2.06,1.18.73,2.18,1.67,3,2.81.83,1.14,1.24,2.44,1.24,3.91,0,2.17-.82,4.01-2.45,5.53-1.63,1.52-3.61,2.28-5.92,2.28-1.47,0-2.84-.32-4.1-.96-1.27-.64-2.19-1.5-2.78-2.56v-2.64c1.39,3.08,3.63,4.62,6.72,4.62,1.91,0,3.51-.59,4.82-1.76,1.3-1.17,1.95-2.49,1.95-3.94s-.41-2.67-1.24-3.66c-.83-.99-1.83-1.83-3-2.53-1.18-.7-2.34-1.39-3.5-2.06s-2.15-1.51-2.97-2.48c-.83-.97-1.24-2.11-1.24-3.41s.52-2.4,1.57-3.3,2.4-1.35,4.05-1.35,3.06.64,4.24,1.93v2.26c-1.18-1.76-2.66-2.64-4.46-2.64Z" style="fill: #2c2c2c;"/>
      </g>
    </g>
  </g>
</svg>