<?xml version="1.0" encoding="utf-8"?>
<!-- Generator: Adobe Illustrator 27.2.0, SVG Export Plug-In . SVG Version: 6.00 Build 0)  -->
<svg version="1.1" id="Capa_2_00000149362424549870936290000011799089707188250521_"
	 xmlns="http://www.w3.org/2000/svg" xmlns:xlink="http://www.w3.org/1999/xlink" x="0px" y="0px" viewBox="0 0 967.1 448.5"
	 style="enable-background:new 0 0 967.1 448.5;" xml:space="preserve">
<style type="text/css">
	.st0{fill:#FFFFFF;}
	.st1{font-family:'TimesNewRomanPSMT';}
	.st2{font-size:38.02px;}
	.st3{fill:none;stroke:#FFFFFF;stroke-width:8;stroke-miterlimit:10;}
</style>
<g id="Capa_2-2">
	<g>
		<g>
			<path class="st0" d="M871.6,36.6c-0.1,0.2-0.1,0.4-0.2,0.6c-0.2,0.5-0.3,0.9-0.4,1.4c-0.1,0.2-0.1,0.4-0.2,0.7
				c-0.1,0.5-0.2,1-0.3,1.5c0,0.2-0.1,0.4-0.1,0.6c-0.1,0.7-0.1,1.4-0.1,2.2c0,10.7,8.7,19.4,19.4,19.4c0.7,0,1.4,0,2-0.1
				c0.2,0,0.3,0,0.5-0.1c0.5-0.1,1-0.1,1.5-0.2c0.1,0,0.3-0.1,0.4-0.1c0.5-0.1,1-0.2,1.5-0.4c0.1,0,0.2-0.1,0.3-0.1
				c0.5-0.2,1.1-0.4,1.6-0.6c0,0,0.1,0,0.1-0.1c0.6-0.2,1.1-0.5,1.6-0.8c0,0,0,0,0,0c5.9-3.3,9.8-9.7,9.8-16.9
				c0-10.7-8.7-19.4-19.4-19.4c-4.5,0-8.5,1.5-11.8,4l0,0c0,0,0,0,0,0c-2.3,1.8-4.2,4-5.5,6.6c-0.1,0.1-0.1,0.2-0.2,0.4
				C872,35.6,871.8,36.1,871.6,36.6L871.6,36.6z"/>
			<path class="st0" d="M590.1,13.9c2.4-7.3-3.2-12.6-8.1-13.4S565.7-0.7,555.2,5c-10.9,6-19.4,29.8-27.5,50.3s-28.1,66.6-29.5,70.2
				c-3.2,8-6.1,7.5-3.6-1.2c3.7-12.8,19.9-70.3,17.1-85.5c-3.9-21.1-20.6-20.3-41.2-19.4c-12.1,0.5-17,7.8-19,15.1
				c-1.4,3.5-2,7.2-2.2,10.4c-0.6,8.5,0.5,37.4-12.3,76.5c-12,35.1-35.2,78-80.5,121.4c-51.1,48.8-115.2,71.4-176.9,75.6
				c-74.1,5.1-137.3-25.7-145.2-85.1c-4.8-35.8,21.5-56.7,39.8-66.5c6.7-3.4,11.7-5.1,12.7-5.5c1.5-0.5,2.9-1.1,4.2-1.9
				c7.6-3.5,14-11.4,11.8-22.6c-2.5-12.6-16.8-17.9-27.6-13.6c-4.3,1.7-17.8,8.5-31.6,20.8c-21.2,18.4-44,49.7-37.4,95.7
				c13.7,96.9,131.5,117.6,229.4,96.6c0-0.1-0.1-0.2-0.1-0.3c21.8-4.7,42.1-11.3,60.3-19.6c4.8-2.2,9.5-4.5,14.1-6.9
				c64.3-32.7,105.3-80.9,130.5-124.8c0.1,0.1,0.1,0.3,0.2,0.4c1.7-2.3,2.8-1.2,2,2.5c-6.9,31.5-11.2,48.4-13,72.9
				c-1.6,21.6,17.9,21.2,28,18.9c4.7-1.1,7.8-3.1,10.2-6.5c0,0-0.1-0.1-0.2-0.1c8.2-9.4,9-31.5,35.2-77.5c0.8-1.5,1.5-2.5,2.1-3.2
				c0,0,0,0,0,0c0.1,0,0.3,0,0.4-0.1c0.1,0.8-0.1,2.5-0.6,5c-11,53.9-11.1,118.6-10.9,135.1c0.1,11.7,8.2,20.7,23.8,20.7
				c9.6,0,16-3.5,19.5-8.7c2.8-3.4,4.2-7.7,4.2-12.2c0-10.2-5-89.4,13-180.3S587.7,21.2,590.1,13.9L590.1,13.9z M443.3,181.6
				c0.2,0,0.4,0.2,0.5,0.6c-0.1-0.1-0.3-0.2-0.5-0.3c-0.1,0-0.1,0-0.2-0.1C443.3,181.8,443.3,181.7,443.3,181.6L443.3,181.6z"/>
			<path class="st0" d="M953.1,147.6c-10.2,1.4-8.6,17.6-5.9,37.2s-8.3,76.7-42.9,76.7c-0.7,0-1.5,0-2.2-0.1l0,0
				c-35.7-2-30.6-53.2-25.3-80c5.4-27.3,14.7-62.9,18.3-76.4c4.6-16.9-2-26.6-12.8-26.1c-2.6,0.1-4.9,0.6-6.9,1.4l0,0l0,0
				c-0.2,0.1-0.3,0.1-0.4,0.2c-0.2,0.1-0.5,0.2-0.7,0.3c-0.2,0.1-0.3,0.2-0.5,0.3c-0.2,0.1-0.4,0.2-0.6,0.3
				c-0.2,0.1-0.3,0.2-0.5,0.3c-0.2,0.1-0.3,0.2-0.5,0.3c-0.2,0.1-0.3,0.2-0.5,0.3c-0.2,0.1-0.3,0.3-0.5,0.4
				c-0.2,0.1-0.3,0.2-0.4,0.3c-0.2,0.2-0.4,0.3-0.5,0.5c-0.2,0.2-0.4,0.4-0.6,0.6c-0.2,0.2-0.4,0.4-0.6,0.6
				c-0.1,0.2-0.3,0.3-0.4,0.4c-0.2,0.2-0.3,0.3-0.4,0.5c-0.1,0.2-0.3,0.3-0.4,0.5c-0.1,0.2-0.3,0.4-0.4,0.6
				c-0.1,0.2-0.3,0.4-0.4,0.6c-0.1,0.2-0.3,0.4-0.4,0.6c-0.1,0.2-0.2,0.4-0.4,0.6c-0.1,0.2-0.3,0.4-0.4,0.7
				c-0.1,0.2-0.2,0.4-0.3,0.6c-0.2,0.4-0.5,0.8-0.7,1.2c-0.1,0.2-0.2,0.4-0.3,0.6c-0.1,0.3-0.2,0.5-0.4,0.8
				c-0.1,0.2-0.2,0.5-0.3,0.7c-0.1,0.2-0.2,0.5-0.3,0.8c-0.1,0.2-0.2,0.5-0.3,0.8c-0.1,0.3-0.2,0.5-0.3,0.8
				c-0.1,0.3-0.2,0.5-0.3,0.8c-0.1,0.3-0.2,0.6-0.3,0.9c-0.1,0.3-0.2,0.5-0.3,0.8c-0.1,0.4-0.3,0.7-0.4,1.1
				c-0.1,0.4-0.3,0.8-0.4,1.2c-0.1,0.4-0.3,0.8-0.4,1.2c-0.1,0.3-0.2,0.6-0.3,0.9c-0.1,0.3-0.2,0.7-0.3,1.1c-0.1,0.3-0.2,0.6-0.3,1
				c-0.1,0.3-0.2,0.7-0.3,1.1c-0.1,0.3-0.2,0.7-0.3,1c-0.1,0.4-0.2,0.8-0.4,1.2c-0.1,0.3-0.2,0.7-0.3,1c-0.1,0.4-0.3,0.9-0.4,1.3
				c-0.1,0.3-0.2,0.6-0.3,0.9c-0.2,0.7-0.4,1.4-0.7,2.2c-0.1,0.4-0.2,0.8-0.3,1.1c-0.1,0.4-0.2,0.9-0.4,1.3
				c-0.1,0.5-0.3,0.9-0.4,1.4c-0.1,0.4-0.2,0.7-0.3,1.1c-0.2,0.8-0.5,1.7-0.8,2.6c-0.1,0.3-0.2,0.6-0.3,0.9
				c-0.2,0.6-0.4,1.2-0.5,1.9c-0.1,0.3-0.2,0.7-0.3,1c-0.3,0.9-0.5,1.9-0.8,2.8c-10.5,35.5-30.6,90.4-56.3,92.9c-0.4,0-0.8,0-1.2,0
				c-0.3,0-0.6,0-0.9-0.1l0,0c-15.1-1.6-14.9-38.1,2-80.9c16.7-42.2,18.5-48.4,20.7-54.7c5.2-15,0.2-25.6-13.5-25.2
				c-4.5,0.1-8.5,1.3-11.9,3.1c-0.5,0.3-1.1,0.6-1.6,0.9c-0.2,0.1-0.4,0.2-0.6,0.3c-0.5,0.3-0.9,0.6-1.3,0.9
				c-0.1,0.1-0.2,0.2-0.3,0.2c-0.5,0.4-1,0.8-1.5,1.2c-0.2,0.1-0.3,0.3-0.5,0.4c-0.4,0.3-0.8,0.7-1.2,1c-0.1,0.1-0.2,0.2-0.4,0.3
				c-0.5,0.4-0.9,0.9-1.4,1.4c-0.1,0.1-0.2,0.3-0.4,0.4c-0.4,0.4-0.7,0.8-1.1,1.2c-0.1,0.1-0.2,0.3-0.3,0.4c-0.4,0.5-0.8,1-1.2,1.5
				c-0.1,0.1-0.2,0.2-0.3,0.4c-0.3,0.4-0.7,0.9-1,1.3c-0.1,0.2-0.2,0.3-0.3,0.4c-0.4,0.5-0.8,1.1-1.1,1.6c-0.1,0.1-0.1,0.2-0.2,0.2
				c-0.3,0.5-0.7,1-1,1.4c-0.1,0.2-0.2,0.3-0.3,0.4c-0.3,0.6-0.7,1.1-1,1.7c-6.2,10-21.2,40-28.5,48.8c-0.2,0.2-0.4,0.5-0.6,0.7
				c-0.1,0.1-0.1,0.1-0.2,0.2c-0.1,0.1-0.2,0.2-0.3,0.4c-0.1,0.1-0.1,0.1-0.2,0.2c-0.1,0.1-0.2,0.2-0.3,0.3c0,0-0.1,0.1-0.1,0.1
				c-0.1,0.1-0.2,0.2-0.3,0.2c0,0-0.1,0-0.1,0.1c-0.1,0-0.1,0.1-0.2,0.1c0,0-0.1,0-0.1,0c0,0-0.1,0-0.1,0c0,0-0.1,0-0.1,0
				c0,0-0.1,0-0.1-0.1c0,0-0.1-0.1-0.1-0.1c0,0,0-0.1,0-0.1c0,0,0-0.1,0-0.1c0,0,0-0.1,0-0.1c0-0.1,0-0.1,0-0.2c0,0,0-0.1,0-0.1
				c0-0.3,0-0.6,0.1-1.1c0,0,0,0,0,0c0-0.1,0-0.3,0.1-0.5l0,0c0.8-4.3,4.4-13.2,6-17.2c2.7-6.5,8.5-20.4,3.8-25.8
				c-4.6-5.4-15.6-6.5-23-3c-8.1,3.9-10.6,11.1-17.9,23.8c-7.3,12.7-13,23.8-15.3,25.3c-0.1,0.1-0.3,0.2-0.4,0.2
				c-0.1,0-0.2,0.1-0.3,0.1c0,0,0,0,0,0c-0.5,0-0.5-0.9-0.2-2.4l0,0c0.4-2,1.2-5.1,2-8.6c1.5-6.9,6.2-25,0-30
				c-3.4-2.7-10.4-3.1-17.6,1.2l0,0c0,0,0,0,0,0c-0.3,0.2-0.7,0.4-1.1,0.7c0,0,0,0-0.1,0c-0.4,0.2-0.7,0.5-1.1,0.8c0,0,0,0,0,0
				c-1.8,1.3-3.6,3-5.4,5c0,0-0.1,0.1-0.1,0.1c-0.3,0.3-0.5,0.6-0.8,0.9c-0.1,0.1-0.2,0.3-0.3,0.4c-0.2,0.3-0.5,0.6-0.7,0.9
				c-0.1,0.2-0.3,0.4-0.4,0.6c-0.2,0.3-0.4,0.6-0.6,0.9c-0.2,0.2-0.3,0.5-0.5,0.7c-0.2,0.3-0.4,0.6-0.5,0.9
				c-0.2,0.3-0.3,0.5-0.5,0.8c-0.2,0.3-0.3,0.6-0.5,0.9c-0.2,0.3-0.3,0.6-0.5,0.9c-0.2,0.3-0.3,0.6-0.5,0.9c-0.2,0.3-0.3,0.7-0.5,1
				c-0.1,0.3-0.3,0.6-0.4,0.9c-0.2,0.4-0.4,0.8-0.6,1.3c-0.1,0.2-0.2,0.5-0.3,0.8c-0.3,0.7-0.6,1.4-0.8,2.1
				c-7.3,19.6-14.5,44.4-43.1,91.5c-0.6,1-1.2,2-1.8,3c-0.1,0.2-0.2,0.4-0.3,0.5c-0.6,0.9-1.2,1.8-1.8,2.7c-0.1,0.2-0.2,0.3-0.3,0.5
				c-1.2,1.8-2.5,3.4-3.7,5c-0.1,0.1-0.2,0.3-0.3,0.4c-0.6,0.8-1.2,1.5-1.8,2.1c-0.1,0.1-0.2,0.2-0.3,0.3c-1.2,1.4-2.5,2.7-3.7,3.9
				c-0.1,0.1-0.2,0.2-0.2,0.2c-0.6,0.6-1.2,1.1-1.8,1.6c-0.1,0.1-0.1,0.1-0.2,0.2c-1.2,1.1-2.5,2-3.6,2.8c0,0-0.1,0.1-0.1,0.1
				c-0.6,0.4-1.2,0.7-1.8,1.1c0,0-0.1,0-0.1,0c-1.2,0.6-2.4,1.1-3.5,1.5c0,0,0,0,0,0c-1.8,0.5-3.4,0.7-5,0.5l0,0
				c-1.7-0.2-3.2-0.8-4.7-1.9c-8.4-6.4,0.9-25.2,9.9-42.9c6.8-13.4,14.8-30.9,17.9-38.2c3.1-7.3,6.3-22.3-6.7-25.8
				c-3.3-0.9-6.9-0.5-10.6,1.4l0,0c-0.8,0.4-1.5,0.8-2.3,1.3c0,0-0.1,0.1-0.1,0.1c-0.3,0.2-0.7,0.5-1,0.7c-0.1,0-0.1,0.1-0.2,0.1
				c-0.4,0.3-0.7,0.6-1.1,0.9c0,0,0,0,0,0c-0.4,0.3-0.8,0.7-1.1,1c0,0,0,0,0,0c-0.3,0.3-0.7,0.7-1,1c-0.1,0.1-0.2,0.2-0.2,0.2
				c-0.3,0.3-0.6,0.6-0.8,0.9c-0.1,0.1-0.2,0.2-0.2,0.3c-0.3,0.4-0.7,0.8-1,1.2c0,0,0,0.1-0.1,0.1c-0.3,0.4-0.7,0.9-1,1.4
				c-0.1,0.1-0.1,0.2-0.2,0.3c-0.3,0.4-0.5,0.8-0.8,1.2c-0.1,0.1-0.2,0.3-0.3,0.4c-0.2,0.4-0.5,0.8-0.7,1.1
				c-0.1,0.1-0.2,0.3-0.3,0.5c-0.3,0.5-0.6,1-0.8,1.5c0,0.1-0.1,0.1-0.1,0.2c-0.3,0.6-0.6,1.2-0.9,1.8c-0.1,0.2-0.2,0.3-0.2,0.5
				c-0.2,0.4-0.4,0.9-0.6,1.3c-0.1,0.2-0.2,0.4-0.3,0.6c-0.2,0.4-0.4,0.9-0.6,1.4c-0.1,0.2-0.2,0.4-0.3,0.6
				c-0.3,0.7-0.5,1.4-0.8,2.1c-7.3,19.6-43.1,92.6-9.2,111.9c0.5,0.3,1.1,0.6,1.7,0.9c0.2,0.1,0.3,0.1,0.5,0.2
				c0.4,0.2,0.8,0.3,1.2,0.5c0.2,0.1,0.3,0.1,0.5,0.2c0.5,0.2,0.9,0.3,1.4,0.4c0.1,0,0.2,0.1,0.3,0.1c0.6,0.1,1.1,0.3,1.7,0.4
				c0.1,0,0.2,0,0.4,0c0.5,0.1,0.9,0.1,1.4,0.2c0.2,0,0.3,0,0.5,0c0.5,0,0.9,0,1.3,0c0.1,0,0.3,0,0.4,0c0.6,0,1.2,0,1.8-0.1l0,0
				c0.6-0.1,1.2-0.1,1.7-0.2c0.1,0,0.3,0,0.4-0.1c0.5-0.1,1-0.2,1.4-0.3c0.1,0,0.2-0.1,0.4-0.1c1.2-0.3,2.4-0.7,3.6-1.1
				c0.1,0,0.1,0,0.2-0.1c0.5-0.2,1.1-0.4,1.6-0.7c0.1,0,0.2-0.1,0.3-0.1c0.6-0.3,1.1-0.5,1.7-0.8c0,0,0,0,0.1,0
				c1.2-0.6,2.5-1.3,3.7-2.1c0.1,0,0.1-0.1,0.2-0.1c0.6-0.4,1.1-0.7,1.7-1.1c0,0,0,0,0.1-0.1l0,0c20.9-14.4,39.5-46.1,44.1-55
				c0.8-1.5,1.5-2.6,2-3.4c0.2-0.3,0.4-0.5,0.6-0.7c0,0,0,0,0,0c0.1-0.1,0.2-0.2,0.2-0.2c0,0,0.1-0.1,0.1-0.1
				c0.1-0.1,0.1-0.1,0.2-0.1c0,0,0.1,0,0.1-0.1c0.1,0,0.1-0.1,0.2-0.1c0,0,0,0,0.1,0c0.1,0,0.2,0,0.3,0.1c0,0,0,0,0,0
				c0,0,0,0.1,0.1,0.1c0,0,0,0.1,0,0.1c0,0.1,0,0.1,0,0.2c0,0.1,0,0.1,0,0.2c0,0.1,0,0.2,0,0.2c0,0.1,0,0.2,0,0.4c0,0.1,0,0.3,0,0.4
				c0,0.2,0,0.4-0.1,0.6c0,0.1,0,0.2-0.1,0.4c0,0.2-0.1,0.4-0.1,0.6c0,0.1-0.1,0.3-0.1,0.4c0,0.2-0.1,0.4-0.2,0.7
				c0,0.1-0.1,0.3-0.1,0.4c-0.1,0.4-0.2,0.8-0.4,1.2c-3.3,10.4-14,36-14.8,39.5c-2.3,9.4-0.8,18.3,13.8,18.5c0.6,0,1.1,0,1.6-0.1
				c0.1,0,0.3,0,0.4,0c0.5-0.1,0.9-0.1,1.3-0.2c0.1,0,0.2,0,0.3-0.1c0.5-0.1,1-0.3,1.5-0.5c0.1,0,0.2-0.1,0.3-0.1
				c0.4-0.2,0.9-0.4,1.3-0.6c0.1,0,0.2-0.1,0.2-0.1c1-0.5,2-1.1,2.9-1.9c0,0,0.1-0.1,0.2-0.1c8-6.2,12.9-18.4,15.2-22.6
				c3.1-5.8,18.4-39.2,20.2-43.3c0.5-1,0.9-2,1.4-2.8c0.1-0.2,0.2-0.4,0.3-0.6c0,0,0-0.1,0.1-0.1c0.1-0.2,0.2-0.4,0.3-0.5l0,0
				c0.1-0.2,0.2-0.3,0.3-0.5c0,0,0,0,0-0.1c0.1-0.1,0.2-0.3,0.3-0.4c0,0,0,0,0,0c0.2-0.2,0.3-0.4,0.5-0.5c0,0,0,0,0,0
				c0.1,0,0.1-0.1,0.2-0.1c0,0,0,0,0,0c0.1,0,0.1,0,0.2,0.1l0,0c0,0,0.1,0.1,0.1,0.2c0,0,0,0,0,0c0,0.1,0,0.2,0,0.4l0,0
				c0,0.2,0,0.3,0,0.5c0,0,0,0,0,0c0,0.2,0,0.4-0.1,0.7c0,0,0,0.1,0,0.1c-0.1,0.5-0.2,1.1-0.3,1.9c0,0,0,0.1,0,0.1
				c-0.1,0.4-0.2,0.8-0.3,1.2c0,0.1,0,0.1,0,0.2c-0.1,0.4-0.2,0.9-0.4,1.4c-3.3,12.6-9.2,35.4-10.4,39.2c-1.2,3.8-4.9,19.8,9.2,21.9
				c0.8,0.1,1.5,0.2,2.2,0.3c0.2,0,0.4,0,0.6,0.1c0.7,0.1,1.3,0.1,1.9,0.1c0.1,0,0.1,0,0.2,0c0.7,0,1.3,0,2,0c0.2,0,0.3,0,0.5,0
				c0.6,0,1.1-0.1,1.7-0.1c0.1,0,0.1,0,0.2,0c0.6-0.1,1.2-0.2,1.8-0.3c0.1,0,0.3-0.1,0.4-0.1c0.5-0.1,1-0.2,1.5-0.4
				c0.1,0,0.1,0,0.2-0.1c0.5-0.2,1.1-0.4,1.6-0.6c0.1,0,0.2-0.1,0.3-0.1c0.5-0.2,1-0.4,1.4-0.6c0,0,0.1,0,0.1-0.1
				c0.5-0.2,1-0.5,1.5-0.8c0.1,0,0.1-0.1,0.2-0.1c0.5-0.3,0.9-0.6,1.3-0.9c0,0,0,0,0.1-0.1c0.5-0.3,0.9-0.7,1.3-1
				c0,0,0.1-0.1,0.1-0.1c0.4-0.4,0.8-0.7,1.2-1.1c0,0,0,0,0,0c0.4-0.4,0.8-0.8,1.2-1.3c0,0,0,0,0,0c3.5-3.8,6.3-8.8,8.8-14.2
				c3.2-6.9,13.7-29.2,18.7-41.5c1.9-4.6,3.8-8.2,5.3-9.9l0,0c0.2-0.2,0.3-0.3,0.4-0.5c0,0,0,0,0-0.1c0.1-0.1,0.2-0.2,0.3-0.3
				c0,0,0.1-0.1,0.1-0.1c0.1-0.1,0.2-0.1,0.3-0.2c0,0,0.1,0,0.1,0c0.2-0.1,0.4-0.1,0.6,0c0,0,0,0,0.1,0c0.1,0,0.1,0.1,0.2,0.1
				c0,0,0,0.1,0.1,0.1c0,0.1,0.1,0.1,0.1,0.2c0,0,0,0.1,0,0.1c0.1,0.3,0.2,0.6,0.2,1.1c0,0.1,0,0.1,0,0.2c0,0.2,0,0.4,0,0.6
				c0,0.1,0,0.2,0,0.3c0,0.2,0,0.5,0,0.7c0,0.1,0,0.2,0,0.3c-0.1,0.7-0.2,1.5-0.4,2.4c0,0.1,0,0.3-0.1,0.4c-0.1,0.4-0.1,0.7-0.2,1.1
				c0,0.2-0.1,0.3-0.1,0.5c-0.1,0.4-0.2,0.8-0.3,1.2c0,0.2-0.1,0.3-0.1,0.5c-0.1,0.6-0.3,1.2-0.5,1.9c-4.6,18.1-4.2,55.6,23.8,61.2
				c1.1,0.2,2.1,0.4,3.2,0.5c0.3,0.1,0.7,0.1,1,0.1c0.7,0.1,1.4,0.1,2.1,0.2c0.4,0,0.8,0,1.2,0.1c0.6,0,1.2,0.1,1.9,0.1
				c0.4,0,0.8,0,1.2,0c0.6,0,1.2,0,1.8-0.1c0.4,0,0.8-0.1,1.1-0.1c0.6-0.1,1.3-0.1,1.9-0.2c0.3,0,0.7-0.1,1-0.1
				c0.8-0.1,1.5-0.2,2.2-0.4c0.2,0,0.4-0.1,0.6-0.1c1-0.2,1.9-0.4,2.8-0.7c0.1,0,0.2-0.1,0.2-0.1c0.8-0.2,1.7-0.5,2.5-0.8
				c0.2-0.1,0.4-0.2,0.7-0.2c0.7-0.2,1.3-0.5,2-0.8c0.2-0.1,0.5-0.2,0.7-0.3c0.7-0.3,1.3-0.6,1.9-0.9c0.2-0.1,0.4-0.2,0.7-0.3
				c0.7-0.3,1.3-0.7,2-1c0.2-0.1,0.3-0.2,0.5-0.3c0.8-0.4,1.6-0.9,2.3-1.4c0,0,0.1,0,0.1-0.1c3.4-2.1,6.5-4.4,9.5-7l0,0l0,0
				c8.8-7.6,15.8-17.1,20.9-25.5c6.6-10.8,7.1-12.2,6.4-3.7c-0.8,8.5-8.5,65.9,42.2,69.7c50.8,3.9,77.6-50.6,77.6-89.1
				c0-23.9-2.7-42-14-40.4L953.1,147.6z"/>
			<path class="st0" d="M602,81c-0.1,0.2-0.2,0.4-0.2,0.6c-0.2,0.5-0.3,0.9-0.4,1.4c-0.1,0.2-0.1,0.4-0.2,0.7
				c-0.1,0.5-0.2,1-0.3,1.5c0,0.2-0.1,0.4-0.1,0.7c-0.1,0.7-0.1,1.4-0.1,2.2c0,10.7,8.7,19.4,19.4,19.4c0.7,0,1.4,0,2-0.1
				c0.2,0,0.3-0.1,0.5-0.1c0.5-0.1,1-0.1,1.5-0.2c0.2,0,0.3-0.1,0.4-0.1c0.5-0.1,1-0.2,1.5-0.4c0.1,0,0.2-0.1,0.3-0.1
				c0.5-0.2,1-0.4,1.5-0.6c0.1,0,0.1-0.1,0.2-0.1c0.5-0.2,1.1-0.5,1.6-0.8c0,0,0.1,0,0.1-0.1c0.5-0.3,1.1-0.6,1.6-1c0,0,0,0,0,0
				c0.5-0.4,1-0.8,1.5-1.2l0,0c0.5-0.4,0.9-0.9,1.4-1.3c0,0,0,0,0,0l0,0c3.3-3.5,5.3-8.1,5.3-13.3c0-10.7-8.7-19.4-19.4-19.4
				c-7.5,0-14.1,4.3-17.3,10.6c-0.1,0.1-0.1,0.3-0.2,0.4C602.4,80,602.2,80.5,602,81L602,81z"/>
		</g>
		<g id="JOYERÃA">
			<path class="st0" d="M579.8,305.9V305h13.9v0.9h-1.2c-1.3,0-2.3,0.4-2.9,1.2c-0.4,0.5-0.6,1.7-0.6,3.7v15.9
				c0,2.5-0.3,11.1-0.8,12.6c-0.3,0.7-0.6,1.5-1.1,2.1c-0.5,0.7-1,1.3-1.7,1.8c-0.6,0.5-1.4,0.9-2.2,1.2s-1.7,0.5-2.6,0.5
				c-0.8,0-1.4-0.1-2-0.3c-0.6-0.2-1.1-0.5-1.5-0.8s-0.7-0.7-1-1.2c-0.2-0.4-0.3-0.9-0.3-1.4c0-0.9,0.3-1.5,0.8-1.9s1.1-0.6,1.6-0.6
				c0.2,0,0.5,0,0.7,0.1c0.2,0,0.5,0.2,0.7,0.4c0.2,0.2,0.5,0.5,0.7,1c0.2,0.4,0.5,1,0.8,1.8c0.4,0.9,0.8,1.3,1.4,1.3
				c0.4,0,0.8-0.3,1.2-0.8s0.5-1.5,0.5-2.8v-28.8c0-0.8,0-1.4,0-1.9c0-0.5-0.1-0.9-0.2-1.2s-0.2-0.5-0.4-0.7
				c-0.2-0.2-0.4-0.4-0.7-0.5c-0.7-0.4-1.4-0.6-2.1-0.6L579.8,305.9L579.8,305.9z"/>
			<path class="st0" d="M639.9,304.3c2.1,0,4,0.4,5.9,1.3c1.9,0.9,3.5,2,5,3.5s2.6,3.3,3.4,5.3c0.8,2,1.3,4.2,1.3,6.6
				s-0.4,4.7-1.3,6.8c-0.8,2.1-2,3.9-3.4,5.4c-1.4,1.5-3.1,2.7-5.1,3.6s-4,1.3-6.2,1.3s-4.3-0.4-6.2-1.2s-3.6-2-5-3.5
				c-1.4-1.5-2.5-3.3-3.3-5.4c-0.8-2.1-1.2-4.4-1.2-6.9c0-2.3,0.4-4.5,1.2-6.6c0.8-2,2-3.8,3.4-5.3s3.1-2.7,5.1-3.6
				C635.5,304.7,637.6,304.3,639.9,304.3L639.9,304.3z M639.5,306.1c-1.6,0-3.1,0.4-4.4,1.1c-1.3,0.7-2.3,1.7-3.2,3s-1.5,2.9-2,4.7
				c-0.5,1.8-0.7,3.9-0.7,6.2s0.2,4.4,0.7,6.3s1.1,3.5,2,4.9c0.9,1.4,2,2.4,3.2,3.2c1.3,0.8,2.8,1.1,4.4,1.1c1.5,0,2.9-0.3,4.2-0.9
				c1.3-0.6,2.4-1.5,3.3-2.7c1-1.2,1.7-2.7,2.2-4.6c0.5-1.9,0.8-4.1,0.8-6.7c0-2.5-0.2-4.6-0.7-6.6s-1.1-3.6-2-4.9
				c-0.9-1.3-2-2.4-3.3-3.1S641.2,306.1,639.5,306.1L639.5,306.1z"/>
			<path class="st0" d="M706.9,305h11.3v0.9h-0.6c-0.9,0-1.9,0.4-2.9,1.2s-2.2,2.2-3.5,4.3l-7.8,12.3v8.1c0,1.1,0.1,2,0.2,2.6
				c0.2,0.6,0.4,1.1,0.7,1.4s0.7,0.5,1.1,0.6c0.4,0.1,1,0.1,1.5,0.1h1v0.9h-13.8v-0.9h1.2c0.6,0,1.1,0,1.5-0.1
				c0.4-0.1,0.8-0.3,1.1-0.6c0.3-0.3,0.5-0.8,0.6-1.4s0.2-1.5,0.2-2.5v-7.7l-8.9-13.6c-0.5-0.8-1-1.5-1.3-2c-0.3-0.5-0.6-0.8-0.8-1
				c-0.1-0.1-0.3-0.2-0.5-0.4c-0.2-0.2-0.5-0.4-0.8-0.5s-0.7-0.3-1.1-0.5c-0.4-0.1-0.8-0.2-1.3-0.2V305h13.8v0.9h-0.7
				c-0.4,0-0.7,0-1.1,0.1c-0.4,0.1-0.7,0.2-1,0.4c-0.3,0.2-0.5,0.4-0.7,0.7c-0.2,0.3-0.3,0.6-0.3,1c0,0.3,0.1,0.7,0.4,1.2
				c0.3,0.5,0.6,1.1,1.1,1.9l6.8,10.5l6.4-10c0.9-1.5,1.4-2.6,1.4-3.4c0-0.3-0.1-0.6-0.2-0.9c-0.1-0.3-0.3-0.5-0.5-0.7
				c-0.2-0.2-0.6-0.4-1-0.5c-0.4-0.1-0.9-0.2-1.5-0.2L706.9,305L706.9,305z"/>
			<path class="st0" d="M755.4,306.8v12.8h7.1c1,0,1.9-0.1,2.5-0.3s1.2-0.5,1.5-0.9c0.4-0.4,0.6-0.9,0.8-1.5s0.2-1.3,0.3-2.1h0.9
				v11.3h-0.9c-0.1-0.9-0.3-1.7-0.4-2.3c-0.2-0.6-0.4-1.1-0.8-1.5c-0.3-0.4-0.8-0.6-1.5-0.8c-0.6-0.1-1.5-0.2-2.5-0.2h-7.1v10.7
				c0,0.8,0,1.5,0,1.9c0,0.5,0.1,0.8,0.3,1.1c0.2,0.2,0.4,0.4,0.8,0.5c0.3,0.1,0.9,0.1,1.6,0.1h5.5c0.9,0,1.7,0,2.4-0.1
				c0.6,0,1.2-0.1,1.7-0.3c0.5-0.1,0.9-0.3,1.2-0.6s0.7-0.6,1.1-1c1-0.9,2-2.4,3-4.5h1l-2.8,8.1h-25v-0.9h1.1c0.3,0,0.6,0,1-0.1
				c0.3-0.1,0.7-0.2,1-0.3c0.3-0.1,0.6-0.3,0.8-0.5c0.2-0.2,0.4-0.5,0.5-0.8c0.2-0.5,0.3-1.6,0.3-3.1v-21.1c0-2.1-0.2-3.3-0.6-3.8
				c-0.6-0.6-1.5-1-2.9-1h-1.1V305h25v7.1h-0.6c-0.2-1.2-0.5-2.1-0.8-2.8c-0.3-0.7-0.6-1.2-1.1-1.6s-1-0.6-1.7-0.7
				c-0.7-0.1-1.6-0.2-2.7-0.2H755.4L755.4,306.8z"/>
			<path class="st0" d="M836.2,337.5h-8.6l-11-15.2c-0.4,0-0.8,0-1.1,0.1c-0.3,0-0.6,0-0.9,0c-0.2,0-0.4,0-0.7,0
				c-0.2,0-0.5,0-0.8-0.1v9.4c0,1.1,0.1,2,0.2,2.7c0.2,0.6,0.4,1.1,0.7,1.5c0.3,0.3,0.7,0.5,1.1,0.6c0.4,0.1,0.9,0.1,1.4,0.1h1.3
				v0.9h-13.9v-0.9h1.2c1.3,0,2.3-0.4,2.9-1.3c0.3-0.5,0.5-1.7,0.5-3.5v-21c0-2-0.2-3.3-0.7-3.8c-0.6-0.7-1.5-1.1-2.8-1.1h-1.2V305
				h11.8c1.7,0,3.2,0.1,4.5,0.2c1.3,0.1,2.3,0.3,3.1,0.6s1.6,0.6,2.3,1.1c0.7,0.5,1.3,1,1.9,1.7s1,1.4,1.3,2.2
				c0.3,0.8,0.5,1.7,0.5,2.6c0,2-0.6,3.8-1.9,5.2c-1.3,1.5-3.3,2.5-6,3.1l6.7,9.3c0.8,1.1,1.5,2,2.1,2.6c0.6,0.7,1.2,1.2,1.8,1.6
				c0.6,0.4,1.2,0.7,1.9,0.9s1.5,0.3,2.4,0.4L836.2,337.5L836.2,337.5z M813.2,320.8c0.3,0,0.6,0,0.8,0c0.2,0,0.4,0,0.5,0
				c1.5,0,2.9-0.2,4.1-0.5c1.2-0.4,2.1-0.9,2.9-1.5c0.8-0.6,1.4-1.4,1.8-2.3c0.4-0.9,0.6-1.8,0.6-2.8s-0.2-1.9-0.5-2.8
				c-0.3-0.9-0.8-1.6-1.4-2.2s-1.4-1.1-2.2-1.4c-0.9-0.3-1.8-0.5-2.8-0.5s-2.2,0.1-3.8,0.5V320.8L813.2,320.8z"/>
			<path class="st0" d="M878.9,336.6v0.9H865v-0.9h1.1c0.6,0,1.1,0,1.5-0.1c0.4-0.1,0.8-0.3,1.1-0.6c0.3-0.3,0.5-0.8,0.7-1.5
				c0.2-0.7,0.2-1.5,0.2-2.7v-21c0-0.7,0-1.4,0-1.8c0-0.5-0.1-0.9-0.2-1.2s-0.2-0.5-0.4-0.7c-0.2-0.2-0.4-0.4-0.7-0.5
				c-0.7-0.4-1.5-0.6-2.2-0.6H865V305h13.9v0.9h-1.1c-0.6,0-1.1,0-1.5,0.1c-0.4,0.1-0.8,0.3-1.1,0.6c-0.3,0.3-0.5,0.8-0.7,1.5
				c-0.2,0.7-0.2,1.5-0.2,2.6v21c0,0.8,0,1.4,0,1.9c0,0.5,0.1,0.9,0.2,1.2c0.1,0.3,0.2,0.5,0.4,0.7c0.2,0.2,0.4,0.4,0.7,0.5
				c0.7,0.4,1.4,0.6,2.2,0.6H878.9L878.9,336.6z M877.3,294.5l-7.1,8.2h-0.8l2.5-8.2H877.3z"/>
			<path class="st0" d="M927.8,326.6h-12.6l-2.2,5.1c-0.5,1.3-0.8,2.2-0.8,2.8c0,0.3,0,0.5,0.1,0.7c0.1,0.2,0.3,0.4,0.5,0.6
				s0.7,0.3,1.1,0.5c0.5,0.1,1.1,0.2,2,0.3v0.9h-10.2v-0.9c0.8-0.1,1.5-0.3,2-0.5c0.5-0.2,0.9-0.6,1.3-1c0.3-0.4,0.7-1,1-1.6
				c0.3-0.7,0.7-1.5,1.1-2.5l11.4-26.7h0.8l11.3,26.9c0.5,1.1,0.9,2,1.3,2.7c0.4,0.7,0.8,1.2,1.2,1.6c0.4,0.4,0.9,0.6,1.4,0.8
				c0.5,0.1,1.1,0.2,1.8,0.2v0.9h-12.8v-0.9c1.3,0,2.2-0.3,2.6-0.6c0.5-0.4,0.7-0.8,0.7-1.3c0-0.7-0.3-1.8-1-3.4L927.8,326.6
				L927.8,326.6z M927.2,324.9l-5.5-13.1l-5.6,13.1H927.2z"/>
		</g>
	</g>
	<text transform="matrix(1 0 0 1 375.92 438.94)" class="st0 st1 st2">DESDE 1982</text>
	<line class="st3" x1="0" y1="429.4" x2="362" y2="429.4"/>
	<line class="st3" x1="605" y1="429.4" x2="967" y2="429.4"/>
</g>
</svg>
