<svg width="311" height="210" viewBox="0 0 311 210" fill="none" xmlns="http://www.w3.org/2000/svg">
<rect width="311" height="210" rx="20" fill="white"/>
<path d="M139.723 51.7073C138.498 51.7072 137.312 52.1445 136.381 52.9404C135.449 53.7364 134.832 54.8387 134.641 56.049L126.195 109.606L118.434 158.818L118.43 158.859L118.439 158.818L126.199 109.606C126.594 107.105 128.747 105.264 131.278 105.264H156.022C180.925 105.264 202.06 87.096 205.92 62.4767C206.215 60.6062 206.372 58.7535 206.408 56.9252V56.9224H206.405C200.077 53.6022 192.645 51.7073 184.502 51.7073H139.723Z" fill="#001C64"/>
<path d="M206.406 56.9233C206.371 58.7517 206.212 60.6062 205.919 62.4767C202.059 87.096 180.923 105.264 156.021 105.264H131.277C128.745 105.264 126.592 107.105 126.197 109.606L118.437 158.818L113.567 189.693C113.473 190.29 113.51 190.899 113.674 191.48C113.838 192.061 114.126 192.6 114.519 193.059C114.911 193.518 115.398 193.886 115.946 194.139C116.495 194.391 117.091 194.522 117.695 194.522H144.553C145.778 194.522 146.963 194.085 147.895 193.289C148.827 192.493 149.444 191.391 149.635 190.181L156.71 145.31C157.107 142.809 159.261 140.966 161.792 140.966H177.607C202.509 140.966 223.642 122.799 227.503 98.1812C230.243 80.7048 221.448 64.8064 206.406 56.9233Z" fill="#0070E0"/>
<path d="M109.208 16C107.983 16 106.797 16.4377 105.865 17.2342C104.934 18.0307 104.317 19.1337 104.126 20.3445L83.0512 153.986C82.9569 154.583 82.9931 155.193 83.1572 155.774C83.3214 156.355 83.6095 156.894 84.0018 157.353C84.3942 157.812 84.8814 158.181 85.4299 158.434C85.9785 158.687 86.5753 158.818 87.1793 158.818H118.433L126.194 109.606L134.64 56.049C134.831 54.8387 135.448 53.7364 136.38 52.9404C137.312 52.1445 138.497 51.7072 139.722 51.7073H184.5C192.644 51.7073 200.076 53.605 206.405 56.9205C206.836 34.5073 188.342 16 162.911 16H109.208Z" fill="#003087"/>
</svg>
