<?xml version="1.0" encoding="UTF-8"?>
<svg id="Capa_2" data-name="Capa 2" xmlns="http://www.w3.org/2000/svg" viewBox="0 0 1727.63 958.78">
  <g id="Capa_1-2" data-name="Capa 1">
    <g>
      <path d="m869.82,0c1.2,3.18,4.5,2.22,6.73,3.14,15.66,6.43,21.49,25.9,14.22,40.99-3.79,7.86-9.61,13.52-18.26,15.97-3.32.94-5.16,1.99-4.1,6.85,1.43,6.62,1.82,13.63,2.37,20.49.96,11.92,2.29,23.79,3.93,35.63,1.03,7.47,1.3,15.05,2.14,22.55,1.8,16.12,2.13,32.38,4.82,48.43,1.27,7.59,1.38,15.37,2.17,23.04,1.02,9.95,2.21,19.89,3.3,29.83.59,5.39,1.11,10.79,1.68,16.18,1.56,14.73,3.18,29.45,4.67,44.18,1.18,11.64,2.18,23.29,3.34,34.93.91,9.12,1.94,18.23,2.94,27.51,3.09-1.12,1.59-3.5,2.17-5.15,2.82-7.97,4.08-16.33,6.04-24.51,3.97-16.53,8.13-33.01,11.99-49.56,3.8-16.26,7.92-32.46,11.5-48.75,4.98-22.67,10.15-45.29,15.37-67.9,4.64-20.06,9.78-40.01,14.48-60.06,1.37-5.84,2.69-11.69,4.29-17.48,1.13-4.12-.89-6.63-4.51-8.73-10.69-6.18-16.79-15.44-16.22-28.02.67-14.82,11.47-27.48,28.02-28.57,12.22-.81,22.63,3.01,28.98,13.78,9.97,16.92,1.95,42.93-21.44,46.14-3.34.46-5.38,1.61-6.22,5.03-.37,1.5-.45,2.95-.39,4.4.73,18.74-1.79,37.35-2.22,56.06-.26,11.18-1.21,22.38-1.93,33.56-.76,11.85-1.29,23.72-2,35.57-.77,13.02-1.39,26.05-2,39.07-.84,17.8-2.63,35.55-3.8,53.33-.49,7.42.13,14.87-1.01,22.3-1.66,10.77-.24,21.77-1.98,32.57-.2,1.23-.99,3.38.87,3.86,1.94.5,2.15-1.92,2.67-3.02,8.88-18.65,17.59-37.37,26.34-56.07,12.99-27.78,26-55.55,38.96-83.35,9.41-20.18,18.75-40.39,28.1-60.59,2.89-6.25,2.52-8.08-2.64-11.57-10.45-7.08-12.86-17.56-11.22-28.98,1.74-12.07,9.13-20.06,21.07-22.99,8.55-2.1,17.19-2.21,25.35,2.11,8.47,4.49,12.23,12.29,14.3,20.98,2.41,10.09-.75,19.3-7.51,26.52-6.91,7.37-16.06,11.64-26.48,9.91-3.25-.54-3.38.98-3.83,2.52-7.49,25.87-14.62,51.84-22.34,77.63-9.44,31.54-18.89,63.08-27.99,94.73-8.52,29.63-17.71,59.07-26.39,88.66-3.6,12.26-6.69,24.64-11.21,36.64-3.41,9.05-9.56,15.82-16.59,21.76-16.26,13.72-35.71,21.05-56.05,25.98-13.9,3.37-28.12,4.41-42.51,4.34-17.49-.08-34.64-1.77-51.33-7.02-17.96-5.64-34.19-14.36-47.81-27.61-8.6-8.37-13.25-18.79-16.62-30.07-4.07-13.61-7.51-27.39-11.88-40.92-4.22-13.05-7.44-26.42-11.34-39.58-3.09-10.44-6.64-20.74-9.81-31.16-4.06-13.36-8.01-26.76-11.89-40.18-3.78-13.05-7.33-26.16-11.13-39.2-5.3-18.18-10.77-36.3-16.1-54.47-3.74-12.74-7.36-25.52-11.05-38.28-.89-3.09-1.88-5.09-6.19-3.95-7.28,1.93-14.16-.99-19.72-5.21-8.76-6.66-14.6-15.25-14.15-27.21.57-15.13,14.67-27.99,28.57-28.2,12.1-.18,21.81,3.14,28.59,13.68,6.29,9.77,5.74,25.28-1.39,34.35-1.93,2.46-3.79,4.87-6.53,6.46-3.44,1.99-3.84,4.55-2.06,8.08,5.64,11.2,11.21,22.43,16.53,33.78,21.96,46.84,43.81,93.74,65.72,140.6,4.93,10.55,9.97,21.06,15.32,32.34,1.14-5.67-.44-10.4-.66-15.18-.72-15.85-.96-31.73-2.16-47.54-.85-11.19-.66-22.42-1.8-33.56-1.52-14.92-1.14-29.95-2.95-44.86-.88-7.19-.05-14.49-.91-21.79-1.11-9.33-.52-18.86-1.26-28.25-1.43-18.27-2.22-36.55-3.12-54.85-.56-11.52-1.94-23.01-1.81-34.58.04-3.24-.61-4.93-4.69-5.76-16.92-3.46-27.63-16.19-27.14-32.12.48-15.66,12.63-28.34,28.87-28.69,6.01-.13,11.71.74,17.2,3.11,8.44,3.65,12.48,10.91,14.3,19.2,2.46,11.21.43,21.63-8.28,29.96-2.63,2.52-5.86,4.12-9.07,5.72-2.54,1.27-3.6,2.82-2.87,5.88,6.63,27.59,13.08,55.23,19.68,82.83,5.97,24.97,12.1,49.91,18.09,74.88,6.57,27.39,13.08,54.8,19.58,82.21,2.47,10.39,4.85,20.8,7.27,31.21.17.74-.05,1.72,1.63,1.82,1.26-4.12.85-8.63,1.15-12.79.79-10.95,2.71-21.77,3.37-32.74.9-14.73,1.77-29.54,4.09-44.1,2.9-18.27,3.41-36.77,6.61-55,1.67-9.51,1.28-19.37,2.25-29.03,1.02-10.07,2.89-20.06,3.76-30.14.64-7.36,1.14-14.73,2.18-22.05,2.23-15.74,2.38-31.68,4.73-47.44,1.42-9.51,1.54-19.26,3.24-28.8.53-2.97-.73-4.25-3.75-5.15-14.16-4.22-22.94-17.37-22.24-32.05.61-12.83,10.75-23.67,21.34-26.39,1.74-.45,3.49-.52,4.66-2.09h11Zm-6.04,497.88c17.04,1.45,35.22-.07,53.16-4.06,11.89-2.64,23.65-5.92,33.86-12.98,4.28-2.96,7.55-6.26,7.25-12.55-.28-5.71-3.02-8.86-7.16-11.63-13.89-9.3-29.86-12.28-45.92-14.72-10.3-1.56-20.85-1.15-31.12-2.37-12.68-1.51-25.11-.1-37.57.58-12.97.7-25.81,3.41-38.44,6.73-10.01,2.63-19.57,6.09-26.73,14.12-4.2,4.71-4.64,9.92-.8,14.77,1.82,2.31,4.05,4.49,6.53,6.05,17.29,10.88,36.81,14.31,56.66,15.93,9.59.78,19.3.14,30.28.14Z" style="fill: #fff;"/>
      <path d="m0,926.78c1.45-1.03,3.1-1.02,4.78-1.01,10.16.02,20.32-.03,30.49.03,6.54.04,6.55.1,6.55-6.68,0-9.66,0-19.32,0-28.99,0-67.97,0-135.93,0-203.9,0-7.78-.62-8.39-8.41-8.39-9.5,0-19-.2-28.48.1-3.76.12-4.66-1.51-4.39-4.62.35-4.15.53-8.3.01-12.45-.46-3.69.66-5.14,4.86-5.13,59.31.16,118.61.11,177.92.11,12.16,0,24.32-.12,36.48.03,18.22.22,35.25,4.4,50.18,15.46,12.6,9.33,21.23,21.63,25.81,36.4,8.95,28.85,2.79,54.74-17.67,76.79-8.86,9.54-20.34,15.52-32.87,19.27-1.26.38-2.54.72-3.78,1.18-.43.16-.75.62-1.23,1.04,2.62,2.98,6.5,3.26,9.77,4.27,16.99,5.25,27.57,17.38,36.05,32.1,7.63,13.26,11.73,27.89,16.79,42.15,4.24,11.97,8.2,24.03,12.41,36.01,1.18,3.35,2.79,5.76,7.43,5.4,7.78-.59,15.65-.05,23.48-.22,3.44-.07,4.88,1.12,4.7,4.62-.21,4.15-.32,8.34-.06,12.49.24,3.91-1.13,5.23-5.11,5.18-16.32-.19-32.65-.08-48.98-.08-12.66,0-25.32-.02-37.98.02-2.74,0-4.14-.4-4.97-3.83-4.64-19.18-8.06-38.67-13.81-57.57-5.09-16.77-10.72-33.35-20.53-48.12-10.55-15.88-25.86-24.08-44.19-27.69-19.89-3.91-39.98-3.77-60.09-3.87-4.2-.02-5.29,1.27-5.27,5.39.15,35.98.18,71.97-.02,107.95-.03,4.85,1.56,5.82,6.05,5.67,10.48-.34,20.99-.02,31.48-.17,3.44-.05,4.63,1.11,4.67,4.62.05,5.31-.56,10.52-1.04,15.77-.11,1.24-.42,1.82-1.67,1.81-1,0-2,.01-3,.01-46.3.11-92.61.22-138.91.3-2.48,0-4.96-.31-7.44-.47v-21Zm110.14-196.39c0,15.99.14,31.99-.08,47.98-.07,4.86,1.75,6.39,6.45,6.34,17.48-.18,34.97.17,52.44-.18,8.22-.17,16.57.61,24.65-1.82,15.95-4.81,29.28-12.97,36.86-28.61,5.14-10.59,5.18-21.57,3.69-32.99-1.24-9.5-4.79-17.53-11.04-24.7-12.24-14.04-28.54-18.08-46.02-18.47-20.65-.46-41.32,0-61.98-.2-4.06-.04-5.09,1.27-5.05,5.16.19,15.83.08,31.66.08,47.48Z" style="fill: #fff;"/>
      <path d="m509.89,958.78c-5.46-1.01-10.94-1.93-16.38-3.04-14.85-3.02-28.93-8.3-42.25-15.42-9.72-5.2-18.94-11.39-27.34-18.45-5.43-4.56-10.66-9.5-15.47-14.96-8.21-9.34-15.5-19.15-21.58-29.94-8.57-15.21-14.87-31.36-17.76-48.53-2.09-12.38-2.12-25.07-1.6-37.65,1.37-33.28,14.77-61.85,35.37-87.34,17.57-21.74,39.72-37.47,65.66-47.71,12.03-4.74,24.54-7.74,37.51-9.01,7.74-.76,15.43-1.58,23.2-1.03,27.09,1.92,52.87,7.72,76.86,21.53,21.64,12.46,38.57,29.26,52.74,49.38,10.41,14.79,17.06,31.31,21.25,48.69,3.18,13.22,5.66,26.81,4.67,40.49-3.2,44.2-19.19,82.58-52.97,112.38-21.38,18.86-46.15,31.36-74,37.47-5.89,1.29-12.04,1.48-17.9,3.15h-6c-6-1.36-12-1.37-18,0h-6Zm-76.03-155.85c-1.12,20.48,2.66,41.05,11.06,60.74,6.06,14.2,13.06,27.99,23.75,39.26,16.11,16.99,35.49,25.59,59.7,24.24,18.31-1.02,34.14-7.03,47.85-18.24,12.64-10.34,21.35-24.09,28.11-38.95,8.1-17.81,12.04-36.73,13.43-56.07,1.32-18.4-.25-36.75-4.35-54.78-3.98-17.54-12.38-33.11-21.94-48.12-5.15-8.08-11.88-14.7-19.78-20.01-18.66-12.55-39.26-16.69-61.3-12.85-18.82,3.28-34.51,12.61-46.43,27.43-11.25,13.98-18.16,30.47-23.98,47.28-5.5,15.87-6.64,32.45-6.11,50.09Z" style="fill: #fff;"/>
      <path d="m1727.63,945.78c-2.55,1.93-5.26,2.91-8.63,2.91-48.48-.05-96.97-.03-145.45.19-4.79.02-6.1-1.36-5.53-5.99.48-3.93.13-7.98-.05-11.97-.14-2.9.68-4.17,3.9-4.04,6.47.24,12.96,0,19.44.09,5.04.07,9.93-.05,12.56-5.42,2.83-5.77-.48-10.16-3.78-14.12-8.09-9.7-15.71-19.8-23.79-29.48-8.91-10.67-17.31-21.74-26.27-32.36-3.38-4.01-6.97-7.93-9.71-12.36-2.11-3.41-3.43-2.8-5.47-.4-6.32,7.45-12.71,14.85-18.99,22.34-14.99,17.91-29.89,35.9-44.93,53.77-5.75,6.83-5.67,10.94.46,16.3,1.73,1.51,3.51,1.65,5.46,1.67,8.16.05,16.33.04,24.49.05q6.81,0,6.81,7.03c0,3.33-.18,6.68.06,9.99.28,3.79-1.32,4.91-4.96,4.86-13.66-.2-27.32-.22-40.98-.21-24.82.01-49.65-.03-74.47.26-4.87.06-6.59-1.39-6.03-6.19.36-3.12.37-6.36,0-9.48-.62-5.28,1.69-6.7,6.59-6.35,4.97.36,10-.05,14.99.11,9.87.31,17.93-3.91,24.84-10.32,10.59-9.82,19.52-21.18,28.68-32.31,7.56-9.18,15.59-17.97,23.21-27.1,9.39-11.25,18.55-22.69,27.85-34.02,3.31-4.03,6.66-8.02,10.11-11.92,2.02-2.29,1.8-3.67-.32-6.18-7.95-9.42-15.33-19.32-23.08-28.92-7.66-9.48-15.61-18.74-23.26-28.23-8.35-10.37-16.44-20.94-24.77-31.33-5.43-6.76-10.89-13.51-16.71-19.92-3.15-3.47-5.7-7.39-9.76-10.26-7.67-5.4-15.86-7.85-25.09-7.64-5.45.12-7.16-1.49-6.24-6.7.59-3.29.8-6.25-.03-9.54-1.11-4.4.85-6.02,5.62-6,38.66.19,77.31.12,115.97.09,6.66,0,13.32-.17,19.97-.35,4.31-.12,7,.97,6.39,6.18-.44,3.78-.3,7.67-.02,11.48.22,3-.64,4.12-3.75,4.04-6.16-.17-12.33,0-18.49-.02-4.94-.01-9.77.64-12.03,5.68-2.16,4.83-.22,8.7,3.16,12.81,16.03,19.54,31.66,39.41,47.41,59.18,4.41,5.53,4.65,5.3,9.2-.51,5.73-7.32,12.01-14.22,18.03-21.32,8.13-9.59,16.26-19.18,24.36-28.8,2.41-2.87,4.71-5.83,7.06-8.75,2.8-3.48,5.31-6.89,3.17-11.87-2.14-4.99-6.13-6.33-10.92-6.39-6.5-.09-13-.19-19.49.04-3.38.12-4.49-1.25-4.28-4.36.27-3.98.61-7.96.03-11.95-.54-3.74.73-5.21,4.89-5.19,33.16.17,66.32.1,99.47.08,2.99,0,5.98-.2,8.97-.3,3.18-.1,4.93.99,4.68,4.65-.28,4.15-.24,8.34-.01,12.49.19,3.46-1,4.63-4.54,4.59-8.23-.1-16.45-.41-24.65,1.61-6.38,1.57-11.89,4.39-16.44,8.81-14.94,14.5-27.39,31.2-40.89,46.96-11.64,13.59-22.88,27.51-34.48,41.14-2.54,2.98-3.26,4.98-.42,8.45,18.73,22.94,37.18,46.1,55.76,69.17,13.29,16.51,26.41,33.15,40.01,49.39,6.63,7.91,12.89,16.52,22.96,20.69,8.05,3.33,16.59,3.74,25.1,3.34,3.64-.17,5.7,1,7.01,4.12v14Z" style="fill: #fff;"/>
      <path d="m515.89,958.78c6-1.37,12-1.36,18,0h-18Z" style="fill: #fff;"/>
      <path d="m1314.37,843.03c5.48.05,10.97.32,16.44.06,3.83-.19,4.98,1.3,4.96,4.91-.1,16.33-.04,32.66-.04,48.99,0,15.16-.17,30.33.1,45.49.08,4.79-1.31,6.26-6.19,6.25-89.48-.14-178.95-.1-268.43-.1-4.16,0-8.32-.05-12.48.06-2.95.08-4.35-.94-3.77-4.1.85-4.61.85-9.27.2-13.91-.46-3.26.86-4.46,4.14-4.42,10.16.13,20.33.05,30.49.04,6.9,0,7-.09,7-6.9,0-46.82,0-93.64,0-140.46,0-31.16,0-62.32,0-93.47,0-6.27-.51-6.77-6.89-6.77-10.16,0-20.33-.14-30.49.08-3.07.07-4.16-.9-4.11-3.8.07-5,.1-10-.01-14.99-.06-2.81,1.06-3.79,3.87-3.68,4.66.18,9.33.05,13.99.05,88.14,0,176.29.01,264.43.02,8.05,0,8.17.11,8.17,7.98,0,28.15,0,56.31,0,84.46q0,8.03-7.69,8.03c-3.5,0-7.02-.26-10.49.07-3.7.36-4.44-1.26-4.36-4.53.17-7.48.19-14.97.03-22.45-.32-15.26-4.85-29.03-16.85-39-6.81-5.66-14.8-9.68-23.94-11.21-5.94-.99-11.82-1.01-17.75-1.02-31.16-.03-62.32.1-93.48-.13-4.96-.04-6.06,1.51-6.02,6.2.21,26.99.13,53.98.08,80.98,0,4.48-.24,8.96-.52,13.44-.17,2.78.85,3.87,3.7,3.84,12.5-.1,25,.2,37.49-.13,10.43-.27,23.75-11.28,26.95-21.6,2.35-7.58,2.7-15.39,2.78-23.19.03-3.16.66-4.49,4.11-4.21,3.97.33,8,.28,11.99.05,3.33-.19,4.27,1.05,4.23,4.31-.17,12.66-.07,25.33-.07,37.99,0,24.83,0,49.65,0,74.48,0,5.67-.62,6.22-6.35,5.89-1.33-.08-2.65-.29-3.98-.27-9.83.1-9.58.1-9.9-9.95-.32-10.07-.86-19.97-7.87-28.54-5.92-7.24-13.28-11.1-22.01-13-12.31-2.68-24.78-.67-37.17-1.09-4.32-.15-3.32,2.71-3.32,4.99-.03,34.82-.02,69.65-.02,104.47,0,3,.1,6-.03,9-.13,3.05,1.25,4.09,4.19,4.08,36.82-.05,73.65.03,110.47-.1,7.8-.03,14.16-4.09,20.52-8.24,10.97-7.15,18.5-16.79,21.26-29.52,2.29-10.55,1.82-21.41,1.36-32.17-.19-4.35-.05-8.63.84-12.88,0,0,.39-.01.39-.01,0,0,.09-.36.09-.36Z" style="fill: #fff;"/>
      <path d="m997.91,948.11c-16.32.17-32.63.47-48.95.49-73.48.05-146.96-.02-220.43.15-3.93,0-4.53-1.56-4.51-4.59.04-4.49.28-8.98.04-13.45-.19-3.54,1.19-4.81,4.6-4.78,10.16.09,20.33-.06,30.49.07,6.47.09,7.7-.93,7.68-7.57-.03-12.33-.16-24.65-.15-36.98.03-51.48.12-102.96.15-154.44,0-14.33-.24-28.65-.07-42.98.05-4.39-1.43-5.87-5.77-5.73-10.32.32-20.64.24-30.97.4-5.64.09-6.04-.4-5.8-6.26.16-3.98.11-7.99-.14-11.97-.2-3.3,1.1-4.43,4.33-4.42,23.31.06,46.63-.09,69.94,0,24.98.11,49.95.47,74.93.58,3.51.01,4.77,1.22,4.58,4.66-.21,3.82-.03,7.66-.05,11.49-.03,4.86-1.8,6.36-6.65,5.99-10.97-.82-21.94-.31-32.92-.27-3.38.01-4.21,1.71-3.29,4.29.83,2.34.34,4.58.34,6.83.05,76.31.04,152.62.05,228.93,0,1.33-.11,2.69.09,3.99.38,2.57,1.61,3.85,4.58,3.83,28.49-.12,56.98-.12,85.47-.08,18.68.02,33.49-7.27,43.45-23.26,4.03-6.47,5.9-13.84,6.91-21.46,1.91-14.4.56-28.84.89-43.25.06-2.64.57-4.06,3.46-4.02,5.16.07,10.33.04,15.49,0,2.22-.02,3.32.78,3.31,3.21-.21,36.8-.37,73.6-.54,110.4,0,0-.34-.05-.34-.05l-.2.27Z" style="fill: #fff;"/>
      <path d="m1314.37,843.03l-.09.36s-.39.02-.39.01c0,0,.1-.41.1-.41l.38.04Z" style="fill: #fff;"/>
      <path d="m997.91,948.11l.2-.27s.34.05.34.05c-.02.47-.13.71-.53.21Z" style="fill: #fff;"/>
    </g>
  </g>
</svg>