<svg width="306" height="210" viewBox="0 0 306 210" fill="none" xmlns="http://www.w3.org/2000/svg">
<rect width="306" height="210" rx="20" fill="white"/>
<path fill-rule="evenodd" clip-rule="evenodd" d="M306 23.9205C306 7.93197 298.362 0 283.545 0H22.4534C15.0475 0 9.60748 2.14046 6.01899 6.54593C1.96925 10.9532 0 16.6184 0 23.9205V186.08C0 193.382 1.96925 198.92 6.01899 203.452C10.1865 207.86 15.5103 210 22.4534 210H283.545C298.362 210 306 201.945 306 186.081V23.9205ZM283.545 3.77738C295.812 3.77738 302.063 10.576 302.063 23.9205V186.08C302.063 199.549 295.812 206.221 283.545 206.221H22.4534C16.5506 206.221 12.038 204.333 8.68173 200.556C5.20937 196.903 3.474 191.867 3.474 186.078V23.9205C3.474 10.576 9.60748 3.77738 22.4534 3.77738H283.545Z" fill="#1A1E75"/>
<path fill-rule="evenodd" clip-rule="evenodd" d="M24.5301 12.0337C19.5557 12.0337 16.4308 12.8431 14.6958 14.5797C13.1914 16.5469 12.4981 19.7863 12.4981 24.5301V56.8113H293.434V24.5301C293.434 16.0842 289.266 12.0337 280.936 12.0337H24.5301Z" fill="#1A1E75"/>
<path fill-rule="evenodd" clip-rule="evenodd" d="M12.4981 186.007C12.4981 194.566 16.5469 198.965 24.5301 198.965H280.936C289.266 198.965 293.434 194.568 293.434 186.007V153.724H12.4981V186.007Z" fill="#F7B700"/>
<path fill-rule="evenodd" clip-rule="evenodd" d="M104.615 81.6014C104.615 83.1701 104.37 84.3756 103.762 85.2214L82.446 122.021L81.105 77.1374H47L58.4492 82.5665C61.7372 84.6178 63.4431 87.2709 63.4431 90.6505L66.6088 138.31H83.2964L123.251 77.1374H102.788C104.005 78.2236 104.615 79.9116 104.615 81.6014ZM242.501 78.9465L243.839 77.1357H223.009C223.739 77.8587 223.984 78.2219 223.984 78.4623C223.738 79.4257 223.25 80.031 223.009 80.754L192.679 135.529C191.95 136.494 191.216 137.34 190.366 138.307H207.541L206.687 136.496C206.687 134.927 207.541 132.034 209.367 127.931L213.022 121.174H230.684C231.417 126.845 231.904 131.551 232.147 135.052L230.684 138.309H252L248.833 133.723L242.501 78.9465ZM229.831 112.609H217.163L228.003 91.9771L229.831 112.609ZM177.211 74C170.635 74 165.03 75.8108 160.036 79.4291C154.553 82.5665 151.875 86.548 151.875 91.4962C151.875 97.1674 153.823 102.114 157.721 105.853L169.538 113.936C173.802 116.954 175.873 119.607 175.873 122.021C175.873 124.313 174.773 126.364 172.706 127.933C170.635 129.502 168.318 130.225 165.397 130.225C161.133 130.225 153.825 127.21 143.715 121.66V132.879C151.632 137.586 159.308 140 166.736 140C173.802 140 179.77 138.068 184.888 133.725C190.369 129.742 193.048 125.039 193.048 119.851C193.048 115.504 191.097 111.525 186.713 107.301L175.383 99.217C171.611 96.2006 169.538 93.5458 169.538 91.4962C169.538 86.7918 172.339 84.3773 178.065 84.3773C181.962 84.3773 187.687 86.5497 195.36 91.1347L197.677 79.4308C191.218 75.8091 184.52 74 177.211 74ZM131.899 138.309C131.655 135.775 131.168 133.483 130.923 131.069L146.394 81.6014L150.048 77.1374H127.757C128.002 78.2236 128.245 79.6712 128.489 80.7574C128.489 81.8435 128.489 83.1718 128.245 84.3773L112.776 133.362L109.608 138.31L131.899 138.309Z" fill="#1A1E75"/>
</svg>
