<svg width="185" height="201" viewBox="0 0 185 201" fill="none" xmlns="http://www.w3.org/2000/svg">
<path d="M92.5001 169.071C112.865 169.071 129.409 174.258 129.409 180.672C129.409 187.086 112.9 192.273 92.5001 192.273C72.1003 192.273 55.5913 187.086 55.5913 180.672C55.5913 174.293 72.1354 169.071 92.5001 169.071ZM11.7423 65.1542C12.7588 65.1542 13.7402 64.9789 14.6515 64.7336L48.1604 178.639C51.9109 191.362 70.4179 201 92.6754 201C114.968 201 133.475 191.362 137.19 178.639L170.664 64.8387C171.47 65.014 172.347 65.1542 173.223 65.1542C179.742 65.1542 185 59.8969 185 53.343C185 46.8591 179.742 41.5669 173.223 41.5669C166.703 41.5669 161.446 46.8591 161.446 53.343C161.446 58.0394 164.18 62.0699 168.14 63.9625L129.339 147.166L135.578 35.083H135.823C142.343 35.083 147.6 29.8258 147.6 23.3419C147.6 16.823 142.343 11.5658 135.823 11.5658C129.304 11.5658 124.046 16.823 124.046 23.3419C124.046 28.7043 127.656 33.2255 132.528 34.6274L106.696 144.187L94.2526 23.412C99.966 22.6059 104.347 17.6992 104.347 11.7761C104.347 5.29224 99.0547 0 92.5702 0C86.0507 0 80.793 5.29224 80.793 11.7761C80.793 17.7343 85.2445 22.641 90.9579 23.412L78.5147 143.942L52.7521 34.5923C57.6943 33.1904 61.3747 28.6692 61.3747 23.2718C61.3747 16.7529 56.082 11.4957 49.5975 11.4957C43.078 11.4957 37.8203 16.7529 37.8203 23.2718C37.8203 29.7557 43.078 35.0129 49.5975 35.0129H49.7728L56.0119 147.061L17.1051 63.7522C20.8907 61.7895 23.5195 57.8642 23.5195 53.2729C23.5195 46.789 18.2618 41.4968 11.7423 41.4968C5.25786 41.4968 0.000173096 46.789 0.000173096 53.2729C-0.034878 59.8969 5.25786 65.1542 11.7423 65.1542Z" fill="#01603A"/>
</svg>
